<?xml version="1.0" encoding="utf-8" standalone="no"?>
<!DOCTYPE svg PUBLIC "-//W3C//DTD SVG 1.1//EN"
  "http://www.w3.org/Graphics/SVG/1.1/DTD/svg11.dtd">
<!-- Created with matplotlib (http://matplotlib.org/) -->
<svg height="404pt" version="1.1" viewBox="0 0 894 404" width="894pt" xmlns="http://www.w3.org/2000/svg" xmlns:xlink="http://www.w3.org/1999/xlink">
 <defs>
  <style type="text/css">
*{stroke-linecap:butt;stroke-linejoin:round;}
  </style>
 </defs>
 <g id="figure_1">
  <g id="patch_1">
   <path d="
M0 404.775
L894.179 404.775
L894.179 0
L0 0
z
" style="fill:#ffffff;"/>
  </g>
  <g id="axes_1">
   <g id="patch_2">
    <path d="
M46.9665 358.166
L883.966 358.166
L883.966 23.3662
L46.9665 23.3662
z
" style="fill:#ffffff;"/>
   </g>
   <g id="matplotlib.axis_1">
    <g id="xtick_1">
     <g id="line2d_1">
      <defs>
       <path d="
M0 0
L0 0" id="m56cc5124a0" style="stroke:#262626;stroke-width:1.3;"/>
      </defs>
      <g>
       <use style="fill:#262626;stroke:#262626;stroke-width:1.3;" x="46.96646875" xlink:href="#m56cc5124a0" y="358.1661875"/>
      </g>
     </g>
     <g id="line2d_2">
      <g>
       <use style="fill:#262626;stroke:#262626;stroke-width:1.3;" x="46.96646875" xlink:href="#m56cc5124a0" y="23.3661875"/>
      </g>
     </g>
     <g id="text_1">
      <!-- 0 -->
      <defs>
       <path d="
M4.15625 35.2969
Q4.15625 48 6.76562 55.7344
Q9.375 63.4844 14.5156 67.6719
Q19.6719 71.875 27.4844 71.875
Q33.25 71.875 37.5938 69.5469
Q41.9375 67.2344 44.7656 62.8594
Q47.6094 58.5 49.2188 52.2188
Q50.8281 45.9531 50.8281 35.2969
Q50.8281 22.7031 48.2344 14.9688
Q45.6562 7.23438 40.5 3
Q35.3594 -1.21875 27.4844 -1.21875
Q17.1406 -1.21875 11.2344 6.20312
Q4.15625 15.1406 4.15625 35.2969
M13.1875 35.2969
Q13.1875 17.6719 17.3125 11.8281
Q21.4375 6 27.4844 6
Q33.5469 6 37.6719 11.8594
Q41.7969 17.7188 41.7969 35.2969
Q41.7969 52.9844 37.6719 58.7812
Q33.5469 64.5938 27.3906 64.5938
Q21.3438 64.5938 17.7188 59.4688
Q13.1875 52.9375 13.1875 35.2969" id="ArialMT-30"/>
      </defs>
      <g style="fill:#262626;" transform="translate(43.932796875 376.57134375)scale(0.13 -0.13)">
       <use xlink:href="#ArialMT-30"/>
      </g>
     </g>
    </g>
    <g id="xtick_2">
     <g id="line2d_3">
      <g>
       <use style="fill:#262626;stroke:#262626;stroke-width:1.3;" x="166.537897321" xlink:href="#m56cc5124a0" y="358.1661875"/>
      </g>
     </g>
     <g id="line2d_4">
      <g>
       <use style="fill:#262626;stroke:#262626;stroke-width:1.3;" x="166.537897321" xlink:href="#m56cc5124a0" y="23.3661875"/>
      </g>
     </g>
     <g id="text_2">
      <!-- 1 -->
      <defs>
       <path d="
M37.25 0
L28.4688 0
L28.4688 56
Q25.2969 52.9844 20.1406 49.9531
Q14.9844 46.9219 10.8906 45.4062
L10.8906 53.9062
Q18.2656 57.375 23.7812 62.2969
Q29.2969 67.2344 31.5938 71.875
L37.25 71.875
z
" id="ArialMT-31"/>
      </defs>
      <g style="fill:#262626;" transform="translate(164.824537946 376.57134375)scale(0.13 -0.13)">
       <use xlink:href="#ArialMT-31"/>
      </g>
     </g>
    </g>
    <g id="xtick_3">
     <g id="line2d_5">
      <g>
       <use style="fill:#262626;stroke:#262626;stroke-width:1.3;" x="286.109325893" xlink:href="#m56cc5124a0" y="358.1661875"/>
      </g>
     </g>
     <g id="line2d_6">
      <g>
       <use style="fill:#262626;stroke:#262626;stroke-width:1.3;" x="286.109325893" xlink:href="#m56cc5124a0" y="23.3661875"/>
      </g>
     </g>
     <g id="text_3">
      <!-- 2 -->
      <defs>
       <path d="
M50.3438 8.45312
L50.3438 0
L3.03125 0
Q2.9375 3.17188 4.04688 6.10938
Q5.85938 10.9375 9.82812 15.625
Q13.8125 20.3125 21.3438 26.4688
Q33.0156 36.0312 37.1094 41.625
Q41.2188 47.2188 41.2188 52.2031
Q41.2188 57.4219 37.4688 61
Q33.7344 64.5938 27.7344 64.5938
Q21.3906 64.5938 17.5781 60.7812
Q13.7656 56.9844 13.7188 50.25
L4.6875 51.1719
Q5.60938 61.2812 11.6562 66.5781
Q17.7188 71.875 27.9375 71.875
Q38.2344 71.875 44.2344 66.1562
Q50.25 60.4531 50.25 52
Q50.25 47.7031 48.4844 43.5469
Q46.7344 39.4062 42.6562 34.8125
Q38.5781 30.2188 29.1094 22.2188
Q21.1875 15.5781 18.9375 13.2031
Q16.7031 10.8438 15.2344 8.45312
z
" id="ArialMT-32"/>
      </defs>
      <g style="fill:#262626;" transform="translate(283.027919643 376.57134375)scale(0.13 -0.13)">
       <use xlink:href="#ArialMT-32"/>
      </g>
     </g>
    </g>
    <g id="xtick_4">
     <g id="line2d_7">
      <g>
       <use style="fill:#262626;stroke:#262626;stroke-width:1.3;" x="405.680754464" xlink:href="#m56cc5124a0" y="358.1661875"/>
      </g>
     </g>
     <g id="line2d_8">
      <g>
       <use style="fill:#262626;stroke:#262626;stroke-width:1.3;" x="405.680754464" xlink:href="#m56cc5124a0" y="23.3661875"/>
      </g>
     </g>
     <g id="text_4">
      <!-- 3 -->
      <defs>
       <path d="
M4.20312 18.8906
L12.9844 20.0625
Q14.5 12.5938 18.1406 9.29688
Q21.7812 6 27 6
Q33.2031 6 37.4688 10.2969
Q41.75 14.5938 41.75 20.9531
Q41.75 27 37.7969 30.9219
Q33.8438 34.8594 27.7344 34.8594
Q25.25 34.8594 21.5312 33.8906
L22.5156 41.6094
Q23.3906 41.5 23.9219 41.5
Q29.5469 41.5 34.0312 44.4219
Q38.5312 47.3594 38.5312 53.4688
Q38.5312 58.2969 35.25 61.4688
Q31.9844 64.6562 26.8125 64.6562
Q21.6875 64.6562 18.2656 61.4219
Q14.8438 58.2031 13.875 51.7656
L5.07812 53.3281
Q6.6875 62.1562 12.3906 67.0156
Q18.1094 71.875 26.6094 71.875
Q32.4688 71.875 37.3906 69.3594
Q42.3281 66.8438 44.9375 62.5
Q47.5625 58.1562 47.5625 53.2656
Q47.5625 48.6406 45.0625 44.8281
Q42.5781 41.0156 37.7031 38.7656
Q44.0469 37.3125 47.5625 32.6875
Q51.0781 28.0781 51.0781 21.1406
Q51.0781 11.7656 44.2344 5.25
Q37.4062 -1.26562 26.9531 -1.26562
Q17.5312 -1.26562 11.2969 4.34375
Q5.07812 9.96875 4.20312 18.8906" id="ArialMT-33"/>
      </defs>
      <g style="fill:#262626;" transform="translate(402.633879464 376.57134375)scale(0.13 -0.13)">
       <use xlink:href="#ArialMT-33"/>
      </g>
     </g>
    </g>
    <g id="xtick_5">
     <g id="line2d_9">
      <g>
       <use style="fill:#262626;stroke:#262626;stroke-width:1.3;" x="525.252183036" xlink:href="#m56cc5124a0" y="358.1661875"/>
      </g>
     </g>
     <g id="line2d_10">
      <g>
       <use style="fill:#262626;stroke:#262626;stroke-width:1.3;" x="525.252183036" xlink:href="#m56cc5124a0" y="23.3661875"/>
      </g>
     </g>
     <g id="text_5">
      <!-- 4 -->
      <defs>
       <path d="
M32.3281 0
L32.3281 17.1406
L1.26562 17.1406
L1.26562 25.2031
L33.9375 71.5781
L41.1094 71.5781
L41.1094 25.2031
L50.7812 25.2031
L50.7812 17.1406
L41.1094 17.1406
L41.1094 0
z

M32.3281 25.2031
L32.3281 57.4688
L9.90625 25.2031
z
" id="ArialMT-34"/>
      </defs>
      <g style="fill:#262626;" transform="translate(522.033667411 376.57134375)scale(0.13 -0.13)">
       <use xlink:href="#ArialMT-34"/>
      </g>
     </g>
    </g>
    <g id="xtick_6">
     <g id="line2d_11">
      <g>
       <use style="fill:#262626;stroke:#262626;stroke-width:1.3;" x="644.823611607" xlink:href="#m56cc5124a0" y="358.1661875"/>
      </g>
     </g>
     <g id="line2d_12">
      <g>
       <use style="fill:#262626;stroke:#262626;stroke-width:1.3;" x="644.823611607" xlink:href="#m56cc5124a0" y="23.3661875"/>
      </g>
     </g>
     <g id="text_6">
      <!-- 5 -->
      <defs>
       <path d="
M4.15625 18.75
L13.375 19.5312
Q14.4062 12.7969 18.1406 9.39062
Q21.875 6 27.1562 6
Q33.5 6 37.8906 10.7812
Q42.2812 15.5781 42.2812 23.4844
Q42.2812 31 38.0625 35.3438
Q33.8438 39.7031 27 39.7031
Q22.75 39.7031 19.3281 37.7656
Q15.9219 35.8438 13.9688 32.7656
L5.71875 33.8438
L12.6406 70.6094
L48.25 70.6094
L48.25 62.2031
L19.6719 62.2031
L15.8281 42.9688
Q22.2656 47.4688 29.3438 47.4688
Q38.7188 47.4688 45.1562 40.9688
Q51.6094 34.4688 51.6094 24.2656
Q51.6094 14.5469 45.9531 7.46875
Q39.0625 -1.21875 27.1562 -1.21875
Q17.3906 -1.21875 11.2031 4.25
Q5.03125 9.71875 4.15625 18.75" id="ArialMT-35"/>
      </defs>
      <g style="fill:#262626;" transform="translate(641.739158482 376.57134375)scale(0.13 -0.13)">
       <use xlink:href="#ArialMT-35"/>
      </g>
     </g>
    </g>
    <g id="xtick_7">
     <g id="line2d_13">
      <g>
       <use style="fill:#262626;stroke:#262626;stroke-width:1.3;" x="764.395040179" xlink:href="#m56cc5124a0" y="358.1661875"/>
      </g>
     </g>
     <g id="line2d_14">
      <g>
       <use style="fill:#262626;stroke:#262626;stroke-width:1.3;" x="764.395040179" xlink:href="#m56cc5124a0" y="23.3661875"/>
      </g>
     </g>
     <g id="text_7">
      <!-- 6 -->
      <defs>
       <path d="
M49.75 54.0469
L41.0156 53.375
Q39.8438 58.5469 37.7031 60.8906
Q34.125 64.6562 28.9062 64.6562
Q24.7031 64.6562 21.5312 62.3125
Q17.3906 59.2812 14.9844 53.4688
Q12.5938 47.6562 12.5 36.9219
Q15.6719 41.75 20.2656 44.0938
Q24.8594 46.4375 29.8906 46.4375
Q38.6719 46.4375 44.8438 39.9688
Q51.0312 33.5 51.0312 23.25
Q51.0312 16.5 48.125 10.7188
Q45.2188 4.9375 40.1406 1.85938
Q35.0625 -1.21875 28.6094 -1.21875
Q17.625 -1.21875 10.6875 6.85938
Q3.76562 14.9375 3.76562 33.5
Q3.76562 54.25 11.4219 63.6719
Q18.1094 71.875 29.4375 71.875
Q37.8906 71.875 43.2812 67.1406
Q48.6875 62.4062 49.75 54.0469
M13.875 23.1875
Q13.875 18.6562 15.7969 14.5
Q17.7188 10.3594 21.1875 8.17188
Q24.6562 6 28.4688 6
Q34.0312 6 38.0312 10.4844
Q42.0469 14.9844 42.0469 22.7031
Q42.0469 30.125 38.0781 34.3906
Q34.125 38.6719 28.125 38.6719
Q22.1719 38.6719 18.0156 34.3906
Q13.875 30.125 13.875 23.1875" id="ArialMT-36"/>
      </defs>
      <g style="fill:#262626;" transform="translate(761.322774554 376.57134375)scale(0.13 -0.13)">
       <use xlink:href="#ArialMT-36"/>
      </g>
     </g>
    </g>
    <g id="xtick_8">
     <g id="line2d_15">
      <g>
       <use style="fill:#262626;stroke:#262626;stroke-width:1.3;" x="883.96646875" xlink:href="#m56cc5124a0" y="358.1661875"/>
      </g>
     </g>
     <g id="line2d_16">
      <g>
       <use style="fill:#262626;stroke:#262626;stroke-width:1.3;" x="883.96646875" xlink:href="#m56cc5124a0" y="23.3661875"/>
      </g>
     </g>
     <g id="text_8">
      <!-- 7 -->
      <defs>
       <path d="
M4.73438 62.2031
L4.73438 70.6562
L51.0781 70.6562
L51.0781 63.8125
Q44.2344 56.5469 37.5156 44.4844
Q30.8125 32.4219 27.1562 19.6719
Q24.5156 10.6875 23.7812 0
L14.75 0
Q14.8906 8.45312 18.0625 20.4062
Q21.2344 32.375 27.1719 43.4844
Q33.1094 54.5938 39.7969 62.2031
z
" id="ArialMT-37"/>
      </defs>
      <g style="fill:#262626;" transform="translate(880.954125 376.57134375)scale(0.13 -0.13)">
       <use xlink:href="#ArialMT-37"/>
      </g>
     </g>
    </g>
    <g id="text_9">
     <!-- Time (second) -->
     <defs>
      <path d="
M3.32812 25.9219
Q3.32812 40.3281 11.3281 47.2656
Q18.0156 53.0312 27.6406 53.0312
Q38.3281 53.0312 45.1094 46.0156
Q51.9062 39.0156 51.9062 26.6562
Q51.9062 16.6562 48.9062 10.9062
Q45.9062 5.17188 40.1562 2
Q34.4219 -1.17188 27.6406 -1.17188
Q16.75 -1.17188 10.0312 5.8125
Q3.32812 12.7969 3.32812 25.9219
M12.3594 25.9219
Q12.3594 15.9688 16.7031 11.0156
Q21.0469 6.0625 27.6406 6.0625
Q34.1875 6.0625 38.5312 11.0312
Q42.875 16.0156 42.875 26.2188
Q42.875 35.8438 38.5 40.7969
Q34.125 45.75 27.6406 45.75
Q21.0469 45.75 16.7031 40.8125
Q12.3594 35.8906 12.3594 25.9219" id="ArialMT-6f"/>
      <path d="
M25.9219 0
L25.9219 63.1406
L2.34375 63.1406
L2.34375 71.5781
L59.0781 71.5781
L59.0781 63.1406
L35.4062 63.1406
L35.4062 0
z
" id="ArialMT-54"/>
      <path d="
M6.64062 61.4688
L6.64062 71.5781
L15.4375 71.5781
L15.4375 61.4688
z

M6.64062 0
L6.64062 51.8594
L15.4375 51.8594
L15.4375 0
z
" id="ArialMT-69"/>
      <path d="
M42.0938 16.7031
L51.1719 15.5781
Q49.0312 7.625 43.2188 3.21875
Q37.4062 -1.17188 28.375 -1.17188
Q17 -1.17188 10.3281 5.82812
Q3.65625 12.8438 3.65625 25.4844
Q3.65625 38.5781 10.3906 45.7969
Q17.1406 53.0312 27.875 53.0312
Q38.2812 53.0312 44.875 45.9531
Q51.4688 38.875 51.4688 26.0312
Q51.4688 25.25 51.4219 23.6875
L12.75 23.6875
Q13.2344 15.1406 17.5781 10.5938
Q21.9219 6.0625 28.4219 6.0625
Q33.25 6.0625 36.6719 8.59375
Q40.0938 11.1406 42.0938 16.7031
M13.2344 30.9062
L42.1875 30.9062
Q41.6094 37.4531 38.875 40.7188
Q34.6719 45.7969 27.9844 45.7969
Q21.9219 45.7969 17.7969 41.75
Q13.6719 37.7031 13.2344 30.9062" id="ArialMT-65"/>
      <path d="
M6.59375 0
L6.59375 51.8594
L14.4531 51.8594
L14.4531 44.5781
Q16.8906 48.3906 20.9375 50.7031
Q25 53.0312 30.1719 53.0312
Q35.9375 53.0312 39.625 50.6406
Q43.3125 48.25 44.8281 43.9531
Q50.9844 53.0312 60.8438 53.0312
Q68.5625 53.0312 72.7031 48.75
Q76.8594 44.4844 76.8594 35.5938
L76.8594 0
L68.1094 0
L68.1094 32.6719
Q68.1094 37.9375 67.25 40.25
Q66.4062 42.5781 64.1562 43.9844
Q61.9219 45.4062 58.8906 45.4062
Q53.4219 45.4062 49.7969 41.7656
Q46.1875 38.1406 46.1875 30.125
L46.1875 0
L37.4062 0
L37.4062 33.6875
Q37.4062 39.5469 35.25 42.4688
Q33.1094 45.4062 28.2188 45.4062
Q24.5156 45.4062 21.3594 43.4531
Q18.2188 41.5 16.7969 37.7344
Q15.375 33.9844 15.375 26.9062
L15.375 0
z
" id="ArialMT-6d"/>
      <path d="
M12.3594 -21.0469
L6.0625 -21.0469
Q20.6562 2.39062 20.6562 25.875
Q20.6562 35.0625 18.5625 44.0938
Q16.8906 51.4219 13.9219 58.1562
Q12.0156 62.5469 6.0625 72.7969
L12.3594 72.7969
Q21.5312 60.5469 25.9219 48.1875
Q29.6875 37.5469 29.6875 25.9219
Q29.6875 12.75 24.625 0.4375
Q19.5781 -11.8594 12.3594 -21.0469" id="ArialMT-29"/>
      <path d="
M3.07812 15.4844
L11.7656 16.8438
Q12.5 11.625 15.8438 8.84375
Q19.1875 6.0625 25.2031 6.0625
Q31.25 6.0625 34.1719 8.51562
Q37.1094 10.9844 37.1094 14.3125
Q37.1094 17.2812 34.5156 19
Q32.7188 20.1719 25.5312 21.9688
Q15.875 24.4219 12.1406 26.2031
Q8.40625 27.9844 6.46875 31.125
Q4.54688 34.2812 4.54688 38.0938
Q4.54688 41.5469 6.125 44.5
Q7.71875 47.4688 10.4531 49.4219
Q12.5 50.9219 16.0312 51.9688
Q19.5781 53.0312 23.6406 53.0312
Q29.7344 53.0312 34.3438 51.2656
Q38.9688 49.5156 41.1562 46.5
Q43.3594 43.5 44.1875 38.4844
L35.5938 37.3125
Q35.0156 41.3125 32.2031 43.5469
Q29.3906 45.7969 24.2656 45.7969
Q18.2188 45.7969 15.625 43.7969
Q13.0312 41.7969 13.0312 39.1094
Q13.0312 37.4062 14.1094 36.0312
Q15.1875 34.625 17.4844 33.6875
Q18.7969 33.2031 25.25 31.4531
Q34.5781 28.9531 38.25 27.3594
Q41.9375 25.7812 44.0312 22.75
Q46.1406 19.7344 46.1406 15.2344
Q46.1406 10.8438 43.5781 6.95312
Q41.0156 3.07812 36.1719 0.953125
Q31.3438 -1.17188 25.25 -1.17188
Q15.1406 -1.17188 9.84375 3.03125
Q4.54688 7.23438 3.07812 15.4844" id="ArialMT-73"/>
      <path d="
M23.3906 -21.0469
Q16.1094 -11.8594 11.0781 0.4375
Q6.0625 12.75 6.0625 25.9219
Q6.0625 37.5469 9.8125 48.1875
Q14.2031 60.5469 23.3906 72.7969
L29.6875 72.7969
Q23.7812 62.6406 21.875 58.2969
Q18.8906 51.5625 17.1875 44.2344
Q15.0938 35.1094 15.0938 25.875
Q15.0938 2.39062 29.6875 -21.0469
z
" id="ArialMT-28"/>
      <path d="
M6.59375 0
L6.59375 51.8594
L14.5 51.8594
L14.5 44.4844
Q20.2188 53.0312 31 53.0312
Q35.6875 53.0312 39.625 51.3438
Q43.5625 49.6562 45.5156 46.9219
Q47.4688 44.1875 48.25 40.4375
Q48.7344 37.9844 48.7344 31.8906
L48.7344 0
L39.9375 0
L39.9375 31.5469
Q39.9375 36.9219 38.9062 39.5781
Q37.8906 42.2344 35.2812 43.8125
Q32.6719 45.4062 29.1562 45.4062
Q23.5312 45.4062 19.4531 41.8438
Q15.375 38.2812 15.375 28.3281
L15.375 0
z
" id="ArialMT-6e"/>
      <path id="ArialMT-20"/>
      <path d="
M40.2344 0
L40.2344 6.54688
Q35.2969 -1.17188 25.7344 -1.17188
Q19.5312 -1.17188 14.3281 2.25
Q9.125 5.67188 6.26562 11.7969
Q3.42188 17.9219 3.42188 25.875
Q3.42188 33.6406 6 39.9688
Q8.59375 46.2969 13.7656 49.6562
Q18.9531 53.0312 25.3438 53.0312
Q30.0312 53.0312 33.6875 51.0469
Q37.3594 49.0781 39.6562 45.9062
L39.6562 71.5781
L48.3906 71.5781
L48.3906 0
z

M12.4531 25.875
Q12.4531 15.9219 16.6406 10.9844
Q20.8438 6.0625 26.5625 6.0625
Q32.3281 6.0625 36.3438 10.7656
Q40.375 15.4844 40.375 25.1406
Q40.375 35.7969 36.2656 40.7656
Q32.1719 45.75 26.1719 45.75
Q20.3125 45.75 16.375 40.9688
Q12.4531 36.1875 12.4531 25.875" id="ArialMT-64"/>
      <path d="
M40.4375 19
L49.0781 17.875
Q47.6562 8.9375 41.8125 3.875
Q35.9844 -1.17188 27.4844 -1.17188
Q16.8438 -1.17188 10.375 5.78125
Q3.90625 12.75 3.90625 25.7344
Q3.90625 34.125 6.6875 40.4219
Q9.46875 46.7344 15.1562 49.875
Q20.8438 53.0312 27.5469 53.0312
Q35.9844 53.0312 41.3594 48.75
Q46.7344 44.4844 48.25 36.625
L39.7031 35.2969
Q38.4844 40.5312 35.375 43.1562
Q32.2812 45.7969 27.875 45.7969
Q21.2344 45.7969 17.0781 41.0312
Q12.9375 36.2812 12.9375 25.9844
Q12.9375 15.5312 16.9375 10.7969
Q20.9531 6.0625 27.3906 6.0625
Q32.5625 6.0625 36.0312 9.23438
Q39.5 12.4062 40.4375 19" id="ArialMT-63"/>
     </defs>
     <g style="fill:#262626;" transform="translate(420.303046875 394.565046875)scale(0.14300000000000002 -0.14300000000000002)">
      <use xlink:href="#ArialMT-54"/>
      <use x="57.333984375" xlink:href="#ArialMT-69"/>
      <use x="79.55078125" xlink:href="#ArialMT-6d"/>
      <use x="162.8515625" xlink:href="#ArialMT-65"/>
      <use x="218.466796875" xlink:href="#ArialMT-20"/>
      <use x="246.25" xlink:href="#ArialMT-28"/>
      <use x="279.55078125" xlink:href="#ArialMT-73"/>
      <use x="329.55078125" xlink:href="#ArialMT-65"/>
      <use x="385.166015625" xlink:href="#ArialMT-63"/>
      <use x="435.166015625" xlink:href="#ArialMT-6f"/>
      <use x="490.78125" xlink:href="#ArialMT-6e"/>
      <use x="546.396484375" xlink:href="#ArialMT-64"/>
      <use x="602.01171875" xlink:href="#ArialMT-29"/>
     </g>
    </g>
   </g>
   <g id="matplotlib.axis_2">
    <g id="ytick_1">
     <g id="line2d_17">
      <g>
       <use style="fill:#262626;stroke:#262626;stroke-width:1.3;" x="46.96646875" xlink:href="#m56cc5124a0" y="347.0061875"/>
      </g>
     </g>
     <g id="line2d_18">
      <g>
       <use style="fill:#262626;stroke:#262626;stroke-width:1.3;" x="883.96646875" xlink:href="#m56cc5124a0" y="347.0061875"/>
      </g>
     </g>
     <g id="text_10">
      <!--  0 -->
      <g style="fill:#262626;" transform="translate(27.64725 350.366890625)scale(0.13 -0.13)">
       <use xlink:href="#ArialMT-20"/>
       <use x="27.783203125" xlink:href="#ArialMT-30"/>
      </g>
     </g>
    </g>
    <g id="ytick_2">
     <g id="line2d_19">
      <g>
       <use style="fill:#262626;stroke:#262626;stroke-width:1.3;" x="46.96646875" xlink:href="#m56cc5124a0" y="319.1061875"/>
      </g>
     </g>
     <g id="line2d_20">
      <g>
       <use style="fill:#262626;stroke:#262626;stroke-width:1.3;" x="883.96646875" xlink:href="#m56cc5124a0" y="319.1061875"/>
      </g>
     </g>
     <g id="text_11">
      <!--  1 -->
      <g style="fill:#262626;" transform="translate(29.41240625 322.466890625)scale(0.13 -0.13)">
       <use xlink:href="#ArialMT-20"/>
       <use x="27.783203125" xlink:href="#ArialMT-31"/>
      </g>
     </g>
    </g>
    <g id="ytick_3">
     <g id="line2d_21">
      <g>
       <use style="fill:#262626;stroke:#262626;stroke-width:1.3;" x="46.96646875" xlink:href="#m56cc5124a0" y="291.2061875"/>
      </g>
     </g>
     <g id="line2d_22">
      <g>
       <use style="fill:#262626;stroke:#262626;stroke-width:1.3;" x="883.96646875" xlink:href="#m56cc5124a0" y="291.2061875"/>
      </g>
     </g>
     <g id="text_12">
      <!--  2 -->
      <g style="fill:#262626;" transform="translate(27.71021875 294.566890625)scale(0.13 -0.13)">
       <use xlink:href="#ArialMT-20"/>
       <use x="27.783203125" xlink:href="#ArialMT-32"/>
      </g>
     </g>
    </g>
    <g id="ytick_4">
     <g id="line2d_23">
      <g>
       <use style="fill:#262626;stroke:#262626;stroke-width:1.3;" x="46.96646875" xlink:href="#m56cc5124a0" y="263.3061875"/>
      </g>
     </g>
     <g id="line2d_24">
      <g>
       <use style="fill:#262626;stroke:#262626;stroke-width:1.3;" x="883.96646875" xlink:href="#m56cc5124a0" y="263.3061875"/>
      </g>
     </g>
     <g id="text_13">
      <!--  3 -->
      <g style="fill:#262626;" transform="translate(27.61475 266.666890625)scale(0.13 -0.13)">
       <use xlink:href="#ArialMT-20"/>
       <use x="27.783203125" xlink:href="#ArialMT-33"/>
      </g>
     </g>
    </g>
    <g id="ytick_5">
     <g id="line2d_25">
      <g>
       <use style="fill:#262626;stroke:#262626;stroke-width:1.3;" x="46.96646875" xlink:href="#m56cc5124a0" y="235.4061875"/>
      </g>
     </g>
     <g id="line2d_26">
      <g>
       <use style="fill:#262626;stroke:#262626;stroke-width:1.3;" x="883.96646875" xlink:href="#m56cc5124a0" y="235.4061875"/>
      </g>
     </g>
     <g id="text_14">
      <!--  4 -->
      <g style="fill:#262626;" transform="translate(27.65334375 238.766890625)scale(0.13 -0.13)">
       <use xlink:href="#ArialMT-20"/>
       <use x="27.783203125" xlink:href="#ArialMT-34"/>
      </g>
     </g>
    </g>
    <g id="ytick_6">
     <g id="line2d_27">
      <g>
       <use style="fill:#262626;stroke:#262626;stroke-width:1.3;" x="46.96646875" xlink:href="#m56cc5124a0" y="207.5061875"/>
      </g>
     </g>
     <g id="line2d_28">
      <g>
       <use style="fill:#262626;stroke:#262626;stroke-width:1.3;" x="883.96646875" xlink:href="#m56cc5124a0" y="207.5061875"/>
      </g>
     </g>
     <g id="text_15">
      <!--  5 -->
      <g style="fill:#262626;" transform="translate(27.5456875 210.866890625)scale(0.13 -0.13)">
       <use xlink:href="#ArialMT-20"/>
       <use x="27.783203125" xlink:href="#ArialMT-35"/>
      </g>
     </g>
    </g>
    <g id="ytick_7">
     <g id="line2d_29">
      <g>
       <use style="fill:#262626;stroke:#262626;stroke-width:1.3;" x="46.96646875" xlink:href="#m56cc5124a0" y="179.6061875"/>
      </g>
     </g>
     <g id="line2d_30">
      <g>
       <use style="fill:#262626;stroke:#262626;stroke-width:1.3;" x="883.96646875" xlink:href="#m56cc5124a0" y="179.6061875"/>
      </g>
     </g>
     <g id="text_16">
      <!--  6 -->
      <g style="fill:#262626;" transform="translate(27.62084375 182.966890625)scale(0.13 -0.13)">
       <use xlink:href="#ArialMT-20"/>
       <use x="27.783203125" xlink:href="#ArialMT-36"/>
      </g>
     </g>
    </g>
    <g id="ytick_8">
     <g id="line2d_31">
      <g>
       <use style="fill:#262626;stroke:#262626;stroke-width:1.3;" x="46.96646875" xlink:href="#m56cc5124a0" y="151.7061875"/>
      </g>
     </g>
     <g id="line2d_32">
      <g>
       <use style="fill:#262626;stroke:#262626;stroke-width:1.3;" x="883.96646875" xlink:href="#m56cc5124a0" y="151.7061875"/>
      </g>
     </g>
     <g id="text_17">
      <!--  7 -->
      <g style="fill:#262626;" transform="translate(27.61475 155.066890625)scale(0.13 -0.13)">
       <use xlink:href="#ArialMT-20"/>
       <use x="27.783203125" xlink:href="#ArialMT-37"/>
      </g>
     </g>
    </g>
    <g id="ytick_9">
     <g id="line2d_33">
      <g>
       <use style="fill:#262626;stroke:#262626;stroke-width:1.3;" x="46.96646875" xlink:href="#m56cc5124a0" y="123.8061875"/>
      </g>
     </g>
     <g id="line2d_34">
      <g>
       <use style="fill:#262626;stroke:#262626;stroke-width:1.3;" x="883.96646875" xlink:href="#m56cc5124a0" y="123.8061875"/>
      </g>
     </g>
     <g id="text_18">
      <!--  8 -->
      <defs>
       <path d="
M17.6719 38.8125
Q12.2031 40.8281 9.5625 44.5312
Q6.9375 48.25 6.9375 53.4219
Q6.9375 61.2344 12.5469 66.5469
Q18.1719 71.875 27.4844 71.875
Q36.8594 71.875 42.5781 66.4219
Q48.2969 60.9844 48.2969 53.1719
Q48.2969 48.1875 45.6719 44.5
Q43.0625 40.8281 37.75 38.8125
Q44.3438 36.6719 47.7812 31.875
Q51.2188 27.0938 51.2188 20.4531
Q51.2188 11.2812 44.7188 5.03125
Q38.2344 -1.21875 27.6406 -1.21875
Q17.0469 -1.21875 10.5469 5.04688
Q4.04688 11.3281 4.04688 20.7031
Q4.04688 27.6875 7.59375 32.3906
Q11.1406 37.1094 17.6719 38.8125
M15.9219 53.7188
Q15.9219 48.6406 19.1875 45.4062
Q22.4688 42.1875 27.6875 42.1875
Q32.7656 42.1875 36.0156 45.375
Q39.2656 48.5781 39.2656 53.2188
Q39.2656 58.0625 35.9062 61.3594
Q32.5625 64.6562 27.5938 64.6562
Q22.5625 64.6562 19.2344 61.4219
Q15.9219 58.2031 15.9219 53.7188
M13.0938 20.6562
Q13.0938 16.8906 14.875 13.375
Q16.6562 9.85938 20.1719 7.92188
Q23.6875 6 27.7344 6
Q34.0312 6 38.125 10.0469
Q42.2344 14.1094 42.2344 20.3594
Q42.2344 26.7031 38.0156 30.8594
Q33.7969 35.0156 27.4375 35.0156
Q21.2344 35.0156 17.1562 30.9062
Q13.0938 26.8125 13.0938 20.6562" id="ArialMT-38"/>
      </defs>
      <g style="fill:#262626;" transform="translate(27.59646875 127.166890625)scale(0.13 -0.13)">
       <use xlink:href="#ArialMT-20"/>
       <use x="27.783203125" xlink:href="#ArialMT-38"/>
      </g>
     </g>
    </g>
    <g id="ytick_10">
     <g id="line2d_35">
      <g>
       <use style="fill:#262626;stroke:#262626;stroke-width:1.3;" x="46.96646875" xlink:href="#m56cc5124a0" y="95.9061875"/>
      </g>
     </g>
     <g id="line2d_36">
      <g>
       <use style="fill:#262626;stroke:#262626;stroke-width:1.3;" x="883.96646875" xlink:href="#m56cc5124a0" y="95.9061875"/>
      </g>
     </g>
     <g id="text_19">
      <!--  9 -->
      <defs>
       <path d="
M5.46875 16.5469
L13.9219 17.3281
Q14.9844 11.375 18.0156 8.6875
Q21.0469 6 25.7812 6
Q29.8281 6 32.875 7.85938
Q35.9375 9.71875 37.8906 12.8125
Q39.8438 15.9219 41.1562 21.1875
Q42.4844 26.4688 42.4844 31.9375
Q42.4844 32.5156 42.4375 33.6875
Q39.7969 29.5 35.2344 26.875
Q30.6719 24.2656 25.3438 24.2656
Q16.4531 24.2656 10.2969 30.7031
Q4.15625 37.1562 4.15625 47.7031
Q4.15625 58.5938 10.5781 65.2344
Q17 71.875 26.6562 71.875
Q33.6406 71.875 39.4219 68.1094
Q45.2188 64.3594 48.2188 57.3906
Q51.2188 50.4375 51.2188 37.25
Q51.2188 23.5312 48.2344 15.4062
Q45.2656 7.28125 39.375 3.03125
Q33.5 -1.21875 25.5938 -1.21875
Q17.1875 -1.21875 11.8594 3.4375
Q6.54688 8.10938 5.46875 16.5469
M41.4531 48.1406
Q41.4531 55.7188 37.4219 60.1562
Q33.4062 64.5938 27.7344 64.5938
Q21.875 64.5938 17.5312 59.8125
Q13.1875 55.0312 13.1875 47.4062
Q13.1875 40.5781 17.3125 36.2969
Q21.4375 32.0312 27.4844 32.0312
Q33.5938 32.0312 37.5156 36.2969
Q41.4531 40.5781 41.4531 48.1406" id="ArialMT-39"/>
      </defs>
      <g style="fill:#262626;" transform="translate(27.59646875 99.266890625)scale(0.13 -0.13)">
       <use xlink:href="#ArialMT-20"/>
       <use x="27.783203125" xlink:href="#ArialMT-39"/>
      </g>
     </g>
    </g>
    <g id="ytick_11">
     <g id="line2d_37">
      <g>
       <use style="fill:#262626;stroke:#262626;stroke-width:1.3;" x="46.96646875" xlink:href="#m56cc5124a0" y="68.0061875"/>
      </g>
     </g>
     <g id="line2d_38">
      <g>
       <use style="fill:#262626;stroke:#262626;stroke-width:1.3;" x="883.96646875" xlink:href="#m56cc5124a0" y="68.0061875"/>
      </g>
     </g>
     <g id="text_20">
      <!-- 10 -->
      <g style="fill:#262626;" transform="translate(25.445375 71.366890625)scale(0.13 -0.13)">
       <use xlink:href="#ArialMT-31"/>
       <use x="55.615234375" xlink:href="#ArialMT-30"/>
      </g>
     </g>
    </g>
    <g id="ytick_12">
     <g id="line2d_39">
      <g>
       <use style="fill:#262626;stroke:#262626;stroke-width:1.3;" x="46.96646875" xlink:href="#m56cc5124a0" y="40.1061875"/>
      </g>
     </g>
     <g id="line2d_40">
      <g>
       <use style="fill:#262626;stroke:#262626;stroke-width:1.3;" x="883.96646875" xlink:href="#m56cc5124a0" y="40.1061875"/>
      </g>
     </g>
     <g id="text_21">
      <!-- 11 -->
      <g style="fill:#262626;" transform="translate(28.16928125 43.466890625)scale(0.13 -0.13)">
       <use xlink:href="#ArialMT-31"/>
       <use x="48.240234375" xlink:href="#ArialMT-31"/>
      </g>
     </g>
    </g>
    <g id="text_22">
     <!-- Engine -->
     <defs>
      <path d="
M7.90625 0
L7.90625 71.5781
L59.6719 71.5781
L59.6719 63.1406
L17.3906 63.1406
L17.3906 41.2188
L56.9844 41.2188
L56.9844 32.8125
L17.3906 32.8125
L17.3906 8.45312
L61.3281 8.45312
L61.3281 0
z
" id="ArialMT-45"/>
      <path d="
M4.98438 -4.29688
L13.5312 -5.5625
Q14.0625 -9.51562 16.5 -11.3281
Q19.7812 -13.7656 25.4375 -13.7656
Q31.5469 -13.7656 34.8594 -11.3281
Q38.1875 -8.89062 39.3594 -4.5
Q40.0469 -1.8125 39.9844 6.78125
Q34.2344 0 25.6406 0
Q14.9375 0 9.07812 7.71875
Q3.21875 15.4375 3.21875 26.2188
Q3.21875 33.6406 5.90625 39.9062
Q8.59375 46.1875 13.6875 49.6094
Q18.7969 53.0312 25.6875 53.0312
Q34.8594 53.0312 40.8281 45.6094
L40.8281 51.8594
L48.9219 51.8594
L48.9219 7.03125
Q48.9219 -5.07812 46.4531 -10.125
Q44 -15.1875 38.6406 -18.1094
Q33.2969 -21.0469 25.4844 -21.0469
Q16.2188 -21.0469 10.5 -16.875
Q4.78125 -12.7031 4.98438 -4.29688
M12.25 26.8594
Q12.25 16.6562 16.2969 11.9688
Q20.3594 7.28125 26.4688 7.28125
Q32.5156 7.28125 36.6094 11.9375
Q40.7188 16.6094 40.7188 26.5625
Q40.7188 36.0781 36.5 40.9062
Q32.2812 45.75 26.3125 45.75
Q20.4531 45.75 16.3438 40.9844
Q12.25 36.2344 12.25 26.8594" id="ArialMT-67"/>
     </defs>
     <g style="fill:#262626;" transform="translate(17.435671875 212.16703125)rotate(-90.0)scale(0.14300000000000002 -0.14300000000000002)">
      <use xlink:href="#ArialMT-45"/>
      <use x="66.69921875" xlink:href="#ArialMT-6e"/>
      <use x="122.314453125" xlink:href="#ArialMT-67"/>
      <use x="177.9296875" xlink:href="#ArialMT-69"/>
      <use x="200.146484375" xlink:href="#ArialMT-6e"/>
      <use x="255.76171875" xlink:href="#ArialMT-65"/>
     </g>
    </g>
   </g>
   <g id="patch_3">
    <path clip-path="url(#pd9012d17bb)" d="
M46.9665 358.166
L81.4704 358.166
L81.4704 335.846
L46.9665 335.846
z
" style="fill:#7973ae;stroke:#000000;stroke-linejoin:miter;stroke-width:0.39;"/>
   </g>
   <g id="patch_4">
    <path clip-path="url(#pd9012d17bb)" d="
M81.4722 358.166
L100.28 358.166
L100.28 335.846
L81.4722 335.846
z
" style="fill:#8d79b6;stroke:#000000;stroke-linejoin:miter;stroke-width:0.39;"/>
   </g>
   <g id="patch_5">
    <path clip-path="url(#pd9012d17bb)" d="
M100.281 358.166
L120.766 358.166
L120.766 335.846
L100.281 335.846
z
" style="fill:#a07fbc;stroke:#000000;stroke-linejoin:miter;stroke-width:0.39;"/>
   </g>
   <g id="patch_6">
    <path clip-path="url(#pd9012d17bb)" d="
M120.768 358.166
L186.245 358.166
L186.245 335.846
L120.768 335.846
z
" style="fill:#b286bf;stroke:#000000;stroke-linejoin:miter;stroke-width:0.39;"/>
   </g>
   <g id="patch_7">
    <path clip-path="url(#pd9012d17bb)" d="
M186.247 358.166
L241.767 358.166
L241.767 335.846
L186.247 335.846
z
" style="fill:#c18dbf;stroke:#000000;stroke-linejoin:miter;stroke-width:0.39;"/>
   </g>
   <g id="patch_8">
    <path clip-path="url(#pd9012d17bb)" d="
M241.769 358.166
L318.527 358.166
L318.527 335.846
L241.769 335.846
z
" style="fill:#ce96bf;stroke:#000000;stroke-linejoin:miter;stroke-width:0.39;"/>
   </g>
   <g id="patch_9">
    <path clip-path="url(#pd9012d17bb)" d="
M318.529 358.166
L364.083 358.166
L364.083 335.846
L318.529 335.846
z
" style="fill:#d89fbd;stroke:#000000;stroke-linejoin:miter;stroke-width:0.39;"/>
   </g>
   <g id="patch_10">
    <path clip-path="url(#pd9012d17bb)" d="
M364.086 358.166
L422.406 358.166
L422.406 335.846
L364.086 335.846
z
" style="fill:#dfaabd;stroke:#000000;stroke-linejoin:miter;stroke-width:0.39;"/>
   </g>
   <g id="patch_11">
    <path clip-path="url(#pd9012d17bb)" d="
M422.411 358.166
L446.665 358.166
L446.665 335.846
L422.411 335.846
z
" style="fill:#e4b5bd;stroke:#000000;stroke-linejoin:miter;stroke-width:0.39;"/>
   </g>
   <g id="patch_12">
    <path clip-path="url(#pd9012d17bb)" d="
M446.667 358.166
L496.854 358.166
L496.854 335.846
L446.667 335.846
z
" style="fill:#e7c0be;stroke:#000000;stroke-linejoin:miter;stroke-width:0.39;"/>
   </g>
   <g id="patch_13">
    <path clip-path="url(#pd9012d17bb)" d="
M496.857 358.166
L535.381 358.166
L535.381 335.846
L496.857 335.846
z
" style="fill:#e9cbc2;stroke:#000000;stroke-linejoin:miter;stroke-width:0.39;"/>
   </g>
   <g id="patch_14">
    <path clip-path="url(#pd9012d17bb)" d="
M535.384 358.166
L568.975 358.166
L568.975 335.846
L535.384 335.846
z
" style="fill:#ebd6c8;stroke:#000000;stroke-linejoin:miter;stroke-width:0.39;"/>
   </g>
   <g id="patch_15">
    <path clip-path="url(#pd9012d17bb)" d="
M568.977 358.166
L620.615 358.166
L620.615 335.846
L568.977 335.846
z
" style="fill:#ece0d0;stroke:#000000;stroke-linejoin:miter;stroke-width:0.39;"/>
   </g>
   <g id="patch_16">
    <path clip-path="url(#pd9012d17bb)" d="
M620.617 358.166
L638.251 358.166
L638.251 335.846
L620.617 335.846
z
" style="fill:#eee9d9;stroke:#000000;stroke-linejoin:miter;stroke-width:0.39;"/>
   </g>
   <g id="patch_17">
    <path clip-path="url(#pd9012d17bb)" d="
M638.253 358.166
L690.968 358.166
L690.968 335.846
L638.253 335.846
z
" style="fill:#f1f1e4;stroke:#000000;stroke-linejoin:miter;stroke-width:0.39;"/>
   </g>
   <g id="patch_18">
    <path clip-path="url(#pd9012d17bb)" d="
M47.0467 330.266
L78.6843 330.266
L78.6843 307.946
L47.0467 307.946
z
" style="fill:#7973ae;stroke:#000000;stroke-linejoin:miter;stroke-width:0.39;"/>
   </g>
   <g id="patch_19">
    <path clip-path="url(#pd9012d17bb)" d="
M78.6875 330.266
L123.378 330.266
L123.378 307.946
L78.6875 307.946
z
" style="fill:#8d79b6;stroke:#000000;stroke-linejoin:miter;stroke-width:0.39;"/>
   </g>
   <g id="patch_20">
    <path clip-path="url(#pd9012d17bb)" d="
M123.38 330.266
L168.923 330.266
L168.923 307.946
L123.38 307.946
z
" style="fill:#a07fbc;stroke:#000000;stroke-linejoin:miter;stroke-width:0.39;"/>
   </g>
   <g id="patch_21">
    <path clip-path="url(#pd9012d17bb)" d="
M168.924 330.266
L198.964 330.266
L198.964 307.946
L168.924 307.946
z
" style="fill:#b286bf;stroke:#000000;stroke-linejoin:miter;stroke-width:0.39;"/>
   </g>
   <g id="patch_22">
    <path clip-path="url(#pd9012d17bb)" d="
M198.966 330.266
L229.029 330.266
L229.029 307.946
L198.966 307.946
z
" style="fill:#c18dbf;stroke:#000000;stroke-linejoin:miter;stroke-width:0.39;"/>
   </g>
   <g id="patch_23">
    <path clip-path="url(#pd9012d17bb)" d="
M229.031 330.266
L264.702 330.266
L264.702 307.946
L229.031 307.946
z
" style="fill:#ce96bf;stroke:#000000;stroke-linejoin:miter;stroke-width:0.39;"/>
   </g>
   <g id="patch_24">
    <path clip-path="url(#pd9012d17bb)" d="
M264.703 330.266
L300.278 330.266
L300.278 307.946
L264.703 307.946
z
" style="fill:#d89fbd;stroke:#000000;stroke-linejoin:miter;stroke-width:0.39;"/>
   </g>
   <g id="patch_25">
    <path clip-path="url(#pd9012d17bb)" d="
M300.28 330.266
L322.208 330.266
L322.208 307.946
L300.28 307.946
z
" style="fill:#dfaabd;stroke:#000000;stroke-linejoin:miter;stroke-width:0.39;"/>
   </g>
   <g id="patch_26">
    <path clip-path="url(#pd9012d17bb)" d="
M322.209 330.266
L359.814 330.266
L359.814 307.946
L322.209 307.946
z
" style="fill:#e4b5bd;stroke:#000000;stroke-linejoin:miter;stroke-width:0.39;"/>
   </g>
   <g id="patch_27">
    <path clip-path="url(#pd9012d17bb)" d="
M359.815 330.266
L429.262 330.266
L429.262 307.946
L359.815 307.946
z
" style="fill:#e7c0be;stroke:#000000;stroke-linejoin:miter;stroke-width:0.39;"/>
   </g>
   <g id="patch_28">
    <path clip-path="url(#pd9012d17bb)" d="
M429.264 330.266
L484.159 330.266
L484.159 307.946
L429.264 307.946
z
" style="fill:#e9cbc2;stroke:#000000;stroke-linejoin:miter;stroke-width:0.39;"/>
   </g>
   <g id="patch_29">
    <path clip-path="url(#pd9012d17bb)" d="
M484.162 330.266
L541.048 330.266
L541.048 307.946
L484.162 307.946
z
" style="fill:#ebd6c8;stroke:#000000;stroke-linejoin:miter;stroke-width:0.39;"/>
   </g>
   <g id="patch_30">
    <path clip-path="url(#pd9012d17bb)" d="
M541.05 330.266
L607.568 330.266
L607.568 307.946
L541.05 307.946
z
" style="fill:#ece0d0;stroke:#000000;stroke-linejoin:miter;stroke-width:0.39;"/>
   </g>
   <g id="patch_31">
    <path clip-path="url(#pd9012d17bb)" d="
M607.57 330.266
L638.252 330.266
L638.252 307.946
L607.57 307.946
z
" style="fill:#eee9d9;stroke:#000000;stroke-linejoin:miter;stroke-width:0.39;"/>
   </g>
   <g id="patch_32">
    <path clip-path="url(#pd9012d17bb)" d="
M638.254 330.266
L658.928 330.266
L658.928 307.946
L638.254 307.946
z
" style="fill:#f1f1e4;stroke:#000000;stroke-linejoin:miter;stroke-width:0.39;"/>
   </g>
   <g id="patch_33">
    <path clip-path="url(#pd9012d17bb)" d="
M47.1371 302.366
L74.5294 302.366
L74.5294 280.046
L47.1371 280.046
z
" style="fill:#7973ae;stroke:#000000;stroke-linejoin:miter;stroke-width:0.39;"/>
   </g>
   <g id="patch_34">
    <path clip-path="url(#pd9012d17bb)" d="
M74.5312 302.366
L93.5568 302.366
L93.5568 280.046
L74.5312 280.046
z
" style="fill:#8d79b6;stroke:#000000;stroke-linejoin:miter;stroke-width:0.39;"/>
   </g>
   <g id="patch_35">
    <path clip-path="url(#pd9012d17bb)" d="
M93.5607 302.366
L155.736 302.366
L155.736 280.046
L93.5607 280.046
z
" style="fill:#a07fbc;stroke:#000000;stroke-linejoin:miter;stroke-width:0.39;"/>
   </g>
   <g id="patch_36">
    <path clip-path="url(#pd9012d17bb)" d="
M155.74 302.366
L192.068 302.366
L192.068 280.046
L155.74 280.046
z
" style="fill:#b286bf;stroke:#000000;stroke-linejoin:miter;stroke-width:0.39;"/>
   </g>
   <g id="patch_37">
    <path clip-path="url(#pd9012d17bb)" d="
M192.072 302.366
L245.269 302.366
L245.269 280.046
L192.072 280.046
z
" style="fill:#c18dbf;stroke:#000000;stroke-linejoin:miter;stroke-width:0.39;"/>
   </g>
   <g id="patch_38">
    <path clip-path="url(#pd9012d17bb)" d="
M245.271 302.366
L326.734 302.366
L326.734 280.046
L245.271 280.046
z
" style="fill:#ce96bf;stroke:#000000;stroke-linejoin:miter;stroke-width:0.39;"/>
   </g>
   <g id="patch_39">
    <path clip-path="url(#pd9012d17bb)" d="
M326.735 302.366
L402.556 302.366
L402.556 280.046
L326.735 280.046
z
" style="fill:#d89fbd;stroke:#000000;stroke-linejoin:miter;stroke-width:0.39;"/>
   </g>
   <g id="patch_40">
    <path clip-path="url(#pd9012d17bb)" d="
M402.557 302.366
L422.952 302.366
L422.952 280.046
L402.557 280.046
z
" style="fill:#dfaabd;stroke:#000000;stroke-linejoin:miter;stroke-width:0.39;"/>
   </g>
   <g id="patch_41">
    <path clip-path="url(#pd9012d17bb)" d="
M422.955 302.366
L449.451 302.366
L449.451 280.046
L422.955 280.046
z
" style="fill:#e4b5bd;stroke:#000000;stroke-linejoin:miter;stroke-width:0.39;"/>
   </g>
   <g id="patch_42">
    <path clip-path="url(#pd9012d17bb)" d="
M449.452 302.366
L501.163 302.366
L501.163 280.046
L449.452 280.046
z
" style="fill:#e7c0be;stroke:#000000;stroke-linejoin:miter;stroke-width:0.39;"/>
   </g>
   <g id="patch_43">
    <path clip-path="url(#pd9012d17bb)" d="
M501.165 302.366
L545.735 302.366
L545.735 280.046
L501.165 280.046
z
" style="fill:#e9cbc2;stroke:#000000;stroke-linejoin:miter;stroke-width:0.39;"/>
   </g>
   <g id="patch_44">
    <path clip-path="url(#pd9012d17bb)" d="
M545.738 302.366
L608.718 302.366
L608.718 280.046
L545.738 280.046
z
" style="fill:#ebd6c8;stroke:#000000;stroke-linejoin:miter;stroke-width:0.39;"/>
   </g>
   <g id="patch_45">
    <path clip-path="url(#pd9012d17bb)" d="
M608.719 302.366
L660.542 302.366
L660.542 280.046
L608.719 280.046
z
" style="fill:#ece0d0;stroke:#000000;stroke-linejoin:miter;stroke-width:0.39;"/>
   </g>
   <g id="patch_46">
    <path clip-path="url(#pd9012d17bb)" d="
M660.543 302.366
L695.814 302.366
L695.814 280.046
L660.543 280.046
z
" style="fill:#eee9d9;stroke:#000000;stroke-linejoin:miter;stroke-width:0.39;"/>
   </g>
   <g id="patch_47">
    <path clip-path="url(#pd9012d17bb)" d="
M695.816 302.366
L754.403 302.366
L754.403 280.046
L695.816 280.046
z
" style="fill:#f1f1e4;stroke:#000000;stroke-linejoin:miter;stroke-width:0.39;"/>
   </g>
   <g id="patch_48">
    <path clip-path="url(#pd9012d17bb)" d="
M47.2422 274.466
L106.067 274.466
L106.067 252.146
L47.2422 252.146
z
" style="fill:#7973ae;stroke:#000000;stroke-linejoin:miter;stroke-width:0.39;"/>
   </g>
   <g id="patch_49">
    <path clip-path="url(#pd9012d17bb)" d="
M106.07 274.466
L155.298 274.466
L155.298 252.146
L106.07 252.146
z
" style="fill:#8d79b6;stroke:#000000;stroke-linejoin:miter;stroke-width:0.39;"/>
   </g>
   <g id="patch_50">
    <path clip-path="url(#pd9012d17bb)" d="
M155.302 274.466
L192.519 274.466
L192.519 252.146
L155.302 252.146
z
" style="fill:#a07fbc;stroke:#000000;stroke-linejoin:miter;stroke-width:0.39;"/>
   </g>
   <g id="patch_51">
    <path clip-path="url(#pd9012d17bb)" d="
M192.52 274.466
L241.768 274.466
L241.768 252.146
L192.52 252.146
z
" style="fill:#b286bf;stroke:#000000;stroke-linejoin:miter;stroke-width:0.39;"/>
   </g>
   <g id="patch_52">
    <path clip-path="url(#pd9012d17bb)" d="
M241.769 274.466
L259.66 274.466
L259.66 252.146
L241.769 252.146
z
" style="fill:#c18dbf;stroke:#000000;stroke-linejoin:miter;stroke-width:0.39;"/>
   </g>
   <g id="patch_53">
    <path clip-path="url(#pd9012d17bb)" d="
M259.661 274.466
L324.996 274.466
L324.996 252.146
L259.661 252.146
z
" style="fill:#ce96bf;stroke:#000000;stroke-linejoin:miter;stroke-width:0.39;"/>
   </g>
   <g id="patch_54">
    <path clip-path="url(#pd9012d17bb)" d="
M324.997 274.466
L397.198 274.466
L397.198 252.146
L324.997 252.146
z
" style="fill:#d89fbd;stroke:#000000;stroke-linejoin:miter;stroke-width:0.39;"/>
   </g>
   <g id="patch_55">
    <path clip-path="url(#pd9012d17bb)" d="
M397.2 274.466
L484.02 274.466
L484.02 252.146
L397.2 252.146
z
" style="fill:#dfaabd;stroke:#000000;stroke-linejoin:miter;stroke-width:0.39;"/>
   </g>
   <g id="patch_56">
    <path clip-path="url(#pd9012d17bb)" d="
M484.024 274.466
L536.578 274.466
L536.578 252.146
L484.024 252.146
z
" style="fill:#e4b5bd;stroke:#000000;stroke-linejoin:miter;stroke-width:0.39;"/>
   </g>
   <g id="patch_57">
    <path clip-path="url(#pd9012d17bb)" d="
M536.58 274.466
L587.065 274.466
L587.065 252.146
L536.58 252.146
z
" style="fill:#e7c0be;stroke:#000000;stroke-linejoin:miter;stroke-width:0.39;"/>
   </g>
   <g id="patch_58">
    <path clip-path="url(#pd9012d17bb)" d="
M587.067 274.466
L612.888 274.466
L612.888 252.146
L587.067 252.146
z
" style="fill:#e9cbc2;stroke:#000000;stroke-linejoin:miter;stroke-width:0.39;"/>
   </g>
   <g id="patch_59">
    <path clip-path="url(#pd9012d17bb)" d="
M612.89 274.466
L649.771 274.466
L649.771 252.146
L612.89 252.146
z
" style="fill:#ebd6c8;stroke:#000000;stroke-linejoin:miter;stroke-width:0.39;"/>
   </g>
   <g id="patch_60">
    <path clip-path="url(#pd9012d17bb)" d="
M649.773 274.466
L702.231 274.466
L702.231 252.146
L649.773 252.146
z
" style="fill:#ece0d0;stroke:#000000;stroke-linejoin:miter;stroke-width:0.39;"/>
   </g>
   <g id="patch_61">
    <path clip-path="url(#pd9012d17bb)" d="
M702.232 274.466
L768.801 274.466
L768.801 252.146
L702.232 252.146
z
" style="fill:#eee9d9;stroke:#000000;stroke-linejoin:miter;stroke-width:0.39;"/>
   </g>
   <g id="patch_62">
    <path clip-path="url(#pd9012d17bb)" d="
M768.804 274.466
L809.434 274.466
L809.434 252.146
L768.804 252.146
z
" style="fill:#f1f1e4;stroke:#000000;stroke-linejoin:miter;stroke-width:0.39;"/>
   </g>
   <g id="patch_63">
    <path clip-path="url(#pd9012d17bb)" d="
M47.3332 246.566
L93.5612 246.566
L93.5612 224.246
L47.3332 224.246
z
" style="fill:#7973ae;stroke:#000000;stroke-linejoin:miter;stroke-width:0.39;"/>
   </g>
   <g id="patch_64">
    <path clip-path="url(#pd9012d17bb)" d="
M93.5627 246.566
L116.542 246.566
L116.542 224.246
L93.5627 224.246
z
" style="fill:#8d79b6;stroke:#000000;stroke-linejoin:miter;stroke-width:0.39;"/>
   </g>
   <g id="patch_65">
    <path clip-path="url(#pd9012d17bb)" d="
M116.543 246.566
L148.222 246.566
L148.222 224.246
L116.543 224.246
z
" style="fill:#a07fbc;stroke:#000000;stroke-linejoin:miter;stroke-width:0.39;"/>
   </g>
   <g id="patch_66">
    <path clip-path="url(#pd9012d17bb)" d="
M148.225 246.566
L196.82 246.566
L196.82 224.246
L148.225 224.246
z
" style="fill:#b286bf;stroke:#000000;stroke-linejoin:miter;stroke-width:0.39;"/>
   </g>
   <g id="patch_67">
    <path clip-path="url(#pd9012d17bb)" d="
M196.821 246.566
L255.792 246.566
L255.792 224.246
L196.821 224.246
z
" style="fill:#c18dbf;stroke:#000000;stroke-linejoin:miter;stroke-width:0.39;"/>
   </g>
   <g id="patch_68">
    <path clip-path="url(#pd9012d17bb)" d="
M255.794 246.566
L327.376 246.566
L327.376 224.246
L255.794 224.246
z
" style="fill:#ce96bf;stroke:#000000;stroke-linejoin:miter;stroke-width:0.39;"/>
   </g>
   <g id="patch_69">
    <path clip-path="url(#pd9012d17bb)" d="
M327.38 246.566
L359.094 246.566
L359.094 224.246
L327.38 224.246
z
" style="fill:#d89fbd;stroke:#000000;stroke-linejoin:miter;stroke-width:0.39;"/>
   </g>
   <g id="patch_70">
    <path clip-path="url(#pd9012d17bb)" d="
M359.096 246.566
L403.857 246.566
L403.857 224.246
L359.096 224.246
z
" style="fill:#dfaabd;stroke:#000000;stroke-linejoin:miter;stroke-width:0.39;"/>
   </g>
   <g id="patch_71">
    <path clip-path="url(#pd9012d17bb)" d="
M403.858 246.566
L514.416 246.566
L514.416 224.246
L403.858 224.246
z
" style="fill:#e4b5bd;stroke:#000000;stroke-linejoin:miter;stroke-width:0.39;"/>
   </g>
   <g id="patch_72">
    <path clip-path="url(#pd9012d17bb)" d="
M514.418 246.566
L608.951 246.566
L608.951 224.246
L514.418 224.246
z
" style="fill:#e7c0be;stroke:#000000;stroke-linejoin:miter;stroke-width:0.39;"/>
   </g>
   <g id="patch_73">
    <path clip-path="url(#pd9012d17bb)" d="
M608.952 246.566
L651.266 246.566
L651.266 224.246
L608.952 224.246
z
" style="fill:#e9cbc2;stroke:#000000;stroke-linejoin:miter;stroke-width:0.39;"/>
   </g>
   <g id="patch_74">
    <path clip-path="url(#pd9012d17bb)" d="
M651.267 246.566
L700.565 246.566
L700.565 224.246
L651.267 224.246
z
" style="fill:#ebd6c8;stroke:#000000;stroke-linejoin:miter;stroke-width:0.39;"/>
   </g>
   <g id="patch_75">
    <path clip-path="url(#pd9012d17bb)" d="
M700.567 246.566
L752.886 246.566
L752.886 224.246
L700.567 224.246
z
" style="fill:#ece0d0;stroke:#000000;stroke-linejoin:miter;stroke-width:0.39;"/>
   </g>
   <g id="patch_76">
    <path clip-path="url(#pd9012d17bb)" d="
M752.888 246.566
L797.045 246.566
L797.045 224.246
L752.888 224.246
z
" style="fill:#eee9d9;stroke:#000000;stroke-linejoin:miter;stroke-width:0.39;"/>
   </g>
   <g id="patch_77">
    <path clip-path="url(#pd9012d17bb)" d="
M797.049 246.566
L825.5 246.566
L825.5 224.246
L797.049 224.246
z
" style="fill:#f1f1e4;stroke:#000000;stroke-linejoin:miter;stroke-width:0.39;"/>
   </g>
   <g id="patch_78">
    <path clip-path="url(#pd9012d17bb)" d="
M47.4387 218.666
L85.7632 218.666
L85.7632 196.346
L47.4387 196.346
z
" style="fill:#7973ae;stroke:#000000;stroke-linejoin:miter;stroke-width:0.39;"/>
   </g>
   <g id="patch_79">
    <path clip-path="url(#pd9012d17bb)" d="
M85.7648 218.666
L124.848 218.666
L124.848 196.346
L85.7648 196.346
z
" style="fill:#8d79b6;stroke:#000000;stroke-linejoin:miter;stroke-width:0.39;"/>
   </g>
   <g id="patch_80">
    <path clip-path="url(#pd9012d17bb)" d="
M124.85 218.666
L180.374 218.666
L180.374 196.346
L124.85 196.346
z
" style="fill:#a07fbc;stroke:#000000;stroke-linejoin:miter;stroke-width:0.39;"/>
   </g>
   <g id="patch_81">
    <path clip-path="url(#pd9012d17bb)" d="
M180.375 218.666
L235.55 218.666
L235.55 196.346
L180.375 196.346
z
" style="fill:#b286bf;stroke:#000000;stroke-linejoin:miter;stroke-width:0.39;"/>
   </g>
   <g id="patch_82">
    <path clip-path="url(#pd9012d17bb)" d="
M235.552 218.666
L269.602 218.666
L269.602 196.346
L235.552 196.346
z
" style="fill:#c18dbf;stroke:#000000;stroke-linejoin:miter;stroke-width:0.39;"/>
   </g>
   <g id="patch_83">
    <path clip-path="url(#pd9012d17bb)" d="
M269.604 218.666
L293.856 218.666
L293.856 196.346
L269.604 196.346
z
" style="fill:#ce96bf;stroke:#000000;stroke-linejoin:miter;stroke-width:0.39;"/>
   </g>
   <g id="patch_84">
    <path clip-path="url(#pd9012d17bb)" d="
M293.858 218.666
L318.835 218.666
L318.835 196.346
L293.858 196.346
z
" style="fill:#d89fbd;stroke:#000000;stroke-linejoin:miter;stroke-width:0.39;"/>
   </g>
   <g id="patch_85">
    <path clip-path="url(#pd9012d17bb)" d="
M318.836 218.666
L369.001 218.666
L369.001 196.346
L318.836 196.346
z
" style="fill:#dfaabd;stroke:#000000;stroke-linejoin:miter;stroke-width:0.39;"/>
   </g>
   <g id="patch_86">
    <path clip-path="url(#pd9012d17bb)" d="
M369.003 218.666
L408.236 218.666
L408.236 196.346
L369.003 196.346
z
" style="fill:#e4b5bd;stroke:#000000;stroke-linejoin:miter;stroke-width:0.39;"/>
   </g>
   <g id="patch_87">
    <path clip-path="url(#pd9012d17bb)" d="
M408.238 218.666
L449.488 218.666
L449.488 196.346
L408.238 196.346
z
" style="fill:#e7c0be;stroke:#000000;stroke-linejoin:miter;stroke-width:0.39;"/>
   </g>
   <g id="patch_88">
    <path clip-path="url(#pd9012d17bb)" d="
M449.49 218.666
L492.593 218.666
L492.593 196.346
L449.49 196.346
z
" style="fill:#e9cbc2;stroke:#000000;stroke-linejoin:miter;stroke-width:0.39;"/>
   </g>
   <g id="patch_89">
    <path clip-path="url(#pd9012d17bb)" d="
M492.594 218.666
L550.251 218.666
L550.251 196.346
L492.594 196.346
z
" style="fill:#ebd6c8;stroke:#000000;stroke-linejoin:miter;stroke-width:0.39;"/>
   </g>
   <g id="patch_90">
    <path clip-path="url(#pd9012d17bb)" d="
M550.252 218.666
L577.518 218.666
L577.518 196.346
L550.252 196.346
z
" style="fill:#ece0d0;stroke:#000000;stroke-linejoin:miter;stroke-width:0.39;"/>
   </g>
   <g id="patch_91">
    <path clip-path="url(#pd9012d17bb)" d="
M577.523 218.666
L606.545 218.666
L606.545 196.346
L577.523 196.346
z
" style="fill:#eee9d9;stroke:#000000;stroke-linejoin:miter;stroke-width:0.39;"/>
   </g>
   <g id="patch_92">
    <path clip-path="url(#pd9012d17bb)" d="
M606.546 218.666
L689.59 218.666
L689.59 196.346
L606.546 196.346
z
" style="fill:#f1f1e4;stroke:#000000;stroke-linejoin:miter;stroke-width:0.39;"/>
   </g>
   <g id="patch_93">
    <path clip-path="url(#pd9012d17bb)" d="
M47.5354 190.766
L87.0476 190.766
L87.0476 168.446
L47.5354 168.446
z
" style="fill:#7973ae;stroke:#000000;stroke-linejoin:miter;stroke-width:0.39;"/>
   </g>
   <g id="patch_94">
    <path clip-path="url(#pd9012d17bb)" d="
M87.0522 190.766
L123.116 190.766
L123.116 168.446
L87.0522 168.446
z
" style="fill:#8d79b6;stroke:#000000;stroke-linejoin:miter;stroke-width:0.39;"/>
   </g>
   <g id="patch_95">
    <path clip-path="url(#pd9012d17bb)" d="
M123.117 190.766
L149.494 190.766
L149.494 168.446
L123.117 168.446
z
" style="fill:#a07fbc;stroke:#000000;stroke-linejoin:miter;stroke-width:0.39;"/>
   </g>
   <g id="patch_96">
    <path clip-path="url(#pd9012d17bb)" d="
M149.496 190.766
L205.007 190.766
L205.007 168.446
L149.496 168.446
z
" style="fill:#b286bf;stroke:#000000;stroke-linejoin:miter;stroke-width:0.39;"/>
   </g>
   <g id="patch_97">
    <path clip-path="url(#pd9012d17bb)" d="
M205.008 190.766
L245.706 190.766
L245.706 168.446
L205.008 168.446
z
" style="fill:#c18dbf;stroke:#000000;stroke-linejoin:miter;stroke-width:0.39;"/>
   </g>
   <g id="patch_98">
    <path clip-path="url(#pd9012d17bb)" d="
M245.71 190.766
L295.824 190.766
L295.824 168.446
L245.71 168.446
z
" style="fill:#ce96bf;stroke:#000000;stroke-linejoin:miter;stroke-width:0.39;"/>
   </g>
   <g id="patch_99">
    <path clip-path="url(#pd9012d17bb)" d="
M295.826 190.766
L331.666 190.766
L331.666 168.446
L295.826 168.446
z
" style="fill:#d89fbd;stroke:#000000;stroke-linejoin:miter;stroke-width:0.39;"/>
   </g>
   <g id="patch_100">
    <path clip-path="url(#pd9012d17bb)" d="
M331.667 190.766
L417.455 190.766
L417.455 168.446
L331.667 168.446
z
" style="fill:#dfaabd;stroke:#000000;stroke-linejoin:miter;stroke-width:0.39;"/>
   </g>
   <g id="patch_101">
    <path clip-path="url(#pd9012d17bb)" d="
M417.456 190.766
L444.309 190.766
L444.309 168.446
L417.456 168.446
z
" style="fill:#e4b5bd;stroke:#000000;stroke-linejoin:miter;stroke-width:0.39;"/>
   </g>
   <g id="patch_102">
    <path clip-path="url(#pd9012d17bb)" d="
M444.314 190.766
L472.181 190.766
L472.181 168.446
L444.314 168.446
z
" style="fill:#e7c0be;stroke:#000000;stroke-linejoin:miter;stroke-width:0.39;"/>
   </g>
   <g id="patch_103">
    <path clip-path="url(#pd9012d17bb)" d="
M472.182 190.766
L498.998 190.766
L498.998 168.446
L472.182 168.446
z
" style="fill:#e9cbc2;stroke:#000000;stroke-linejoin:miter;stroke-width:0.39;"/>
   </g>
   <g id="patch_104">
    <path clip-path="url(#pd9012d17bb)" d="
M498.999 190.766
L527.51 190.766
L527.51 168.446
L498.999 168.446
z
" style="fill:#ebd6c8;stroke:#000000;stroke-linejoin:miter;stroke-width:0.39;"/>
   </g>
   <g id="patch_105">
    <path clip-path="url(#pd9012d17bb)" d="
M527.512 190.766
L569.193 190.766
L569.193 168.446
L527.512 168.446
z
" style="fill:#ece0d0;stroke:#000000;stroke-linejoin:miter;stroke-width:0.39;"/>
   </g>
   <g id="patch_106">
    <path clip-path="url(#pd9012d17bb)" d="
M569.197 190.766
L602.241 190.766
L602.241 168.446
L569.197 168.446
z
" style="fill:#eee9d9;stroke:#000000;stroke-linejoin:miter;stroke-width:0.39;"/>
   </g>
   <g id="patch_107">
    <path clip-path="url(#pd9012d17bb)" d="
M602.242 190.766
L633.263 190.766
L633.263 168.446
L602.242 168.446
z
" style="fill:#f1f1e4;stroke:#000000;stroke-linejoin:miter;stroke-width:0.39;"/>
   </g>
   <g id="patch_108">
    <path clip-path="url(#pd9012d17bb)" d="
M47.644 162.866
L109.289 162.866
L109.289 140.546
L47.644 140.546
z
" style="fill:#7973ae;stroke:#000000;stroke-linejoin:miter;stroke-width:0.39;"/>
   </g>
   <g id="patch_109">
    <path clip-path="url(#pd9012d17bb)" d="
M109.29 162.866
L122.702 162.866
L122.702 140.546
L109.29 140.546
z
" style="fill:#8d79b6;stroke:#000000;stroke-linejoin:miter;stroke-width:0.39;"/>
   </g>
   <g id="patch_110">
    <path clip-path="url(#pd9012d17bb)" d="
M122.703 162.866
L170.911 162.866
L170.911 140.546
L122.703 140.546
z
" style="fill:#a07fbc;stroke:#000000;stroke-linejoin:miter;stroke-width:0.39;"/>
   </g>
   <g id="patch_111">
    <path clip-path="url(#pd9012d17bb)" d="
M170.913 162.866
L219.649 162.866
L219.649 140.546
L170.913 140.546
z
" style="fill:#b286bf;stroke:#000000;stroke-linejoin:miter;stroke-width:0.39;"/>
   </g>
   <g id="patch_112">
    <path clip-path="url(#pd9012d17bb)" d="
M219.651 162.866
L297.025 162.866
L297.025 140.546
L219.651 140.546
z
" style="fill:#c18dbf;stroke:#000000;stroke-linejoin:miter;stroke-width:0.39;"/>
   </g>
   <g id="patch_113">
    <path clip-path="url(#pd9012d17bb)" d="
M297.027 162.866
L316.618 162.866
L316.618 140.546
L297.027 140.546
z
" style="fill:#ce96bf;stroke:#000000;stroke-linejoin:miter;stroke-width:0.39;"/>
   </g>
   <g id="patch_114">
    <path clip-path="url(#pd9012d17bb)" d="
M316.62 162.866
L377.644 162.866
L377.644 140.546
L316.62 140.546
z
" style="fill:#d89fbd;stroke:#000000;stroke-linejoin:miter;stroke-width:0.39;"/>
   </g>
   <g id="patch_115">
    <path clip-path="url(#pd9012d17bb)" d="
M377.645 162.866
L438.179 162.866
L438.179 140.546
L377.645 140.546
z
" style="fill:#dfaabd;stroke:#000000;stroke-linejoin:miter;stroke-width:0.39;"/>
   </g>
   <g id="patch_116">
    <path clip-path="url(#pd9012d17bb)" d="
M438.183 162.866
L482.638 162.866
L482.638 140.546
L438.183 140.546
z
" style="fill:#e4b5bd;stroke:#000000;stroke-linejoin:miter;stroke-width:0.39;"/>
   </g>
   <g id="patch_117">
    <path clip-path="url(#pd9012d17bb)" d="
M482.64 162.866
L541.047 162.866
L541.047 140.546
L482.64 140.546
z
" style="fill:#e7c0be;stroke:#000000;stroke-linejoin:miter;stroke-width:0.39;"/>
   </g>
   <g id="patch_118">
    <path clip-path="url(#pd9012d17bb)" d="
M541.049 162.866
L565.99 162.866
L565.99 140.546
L541.049 140.546
z
" style="fill:#e9cbc2;stroke:#000000;stroke-linejoin:miter;stroke-width:0.39;"/>
   </g>
   <g id="patch_119">
    <path clip-path="url(#pd9012d17bb)" d="
M565.991 162.866
L597.857 162.866
L597.857 140.546
L565.991 140.546
z
" style="fill:#ebd6c8;stroke:#000000;stroke-linejoin:miter;stroke-width:0.39;"/>
   </g>
   <g id="patch_120">
    <path clip-path="url(#pd9012d17bb)" d="
M597.859 162.866
L630.039 162.866
L630.039 140.546
L597.859 140.546
z
" style="fill:#ece0d0;stroke:#000000;stroke-linejoin:miter;stroke-width:0.39;"/>
   </g>
   <g id="patch_121">
    <path clip-path="url(#pd9012d17bb)" d="
M630.044 162.866
L688.077 162.866
L688.077 140.546
L630.044 140.546
z
" style="fill:#eee9d9;stroke:#000000;stroke-linejoin:miter;stroke-width:0.39;"/>
   </g>
   <g id="patch_122">
    <path clip-path="url(#pd9012d17bb)" d="
M688.079 162.866
L727.654 162.866
L727.654 140.546
L688.079 140.546
z
" style="fill:#f1f1e4;stroke:#000000;stroke-linejoin:miter;stroke-width:0.39;"/>
   </g>
   <g id="patch_123">
    <path clip-path="url(#pd9012d17bb)" d="
M47.7104 134.966
L95.9291 134.966
L95.9291 112.646
L47.7104 112.646
z
" style="fill:#7973ae;stroke:#000000;stroke-linejoin:miter;stroke-width:0.39;"/>
   </g>
   <g id="patch_124">
    <path clip-path="url(#pd9012d17bb)" d="
M95.9306 134.966
L130.056 134.966
L130.056 112.646
L95.9306 112.646
z
" style="fill:#8d79b6;stroke:#000000;stroke-linejoin:miter;stroke-width:0.39;"/>
   </g>
   <g id="patch_125">
    <path clip-path="url(#pd9012d17bb)" d="
M130.058 134.966
L180.152 134.966
L180.152 112.646
L130.058 112.646
z
" style="fill:#a07fbc;stroke:#000000;stroke-linejoin:miter;stroke-width:0.39;"/>
   </g>
   <g id="patch_126">
    <path clip-path="url(#pd9012d17bb)" d="
M180.154 134.966
L229.466 134.966
L229.466 112.646
L180.154 112.646
z
" style="fill:#b286bf;stroke:#000000;stroke-linejoin:miter;stroke-width:0.39;"/>
   </g>
   <g id="patch_127">
    <path clip-path="url(#pd9012d17bb)" d="
M229.467 134.966
L250.627 134.966
L250.627 112.646
L229.467 112.646
z
" style="fill:#c18dbf;stroke:#000000;stroke-linejoin:miter;stroke-width:0.39;"/>
   </g>
   <g id="patch_128">
    <path clip-path="url(#pd9012d17bb)" d="
M250.631 134.966
L290.481 134.966
L290.481 112.646
L250.631 112.646
z
" style="fill:#ce96bf;stroke:#000000;stroke-linejoin:miter;stroke-width:0.39;"/>
   </g>
   <g id="patch_129">
    <path clip-path="url(#pd9012d17bb)" d="
M290.483 134.966
L345.214 134.966
L345.214 112.646
L290.483 112.646
z
" style="fill:#d89fbd;stroke:#000000;stroke-linejoin:miter;stroke-width:0.39;"/>
   </g>
   <g id="patch_130">
    <path clip-path="url(#pd9012d17bb)" d="
M345.218 134.966
L382.162 134.966
L382.162 112.646
L345.218 112.646
z
" style="fill:#dfaabd;stroke:#000000;stroke-linejoin:miter;stroke-width:0.39;"/>
   </g>
   <g id="patch_131">
    <path clip-path="url(#pd9012d17bb)" d="
M382.165 134.966
L410.126 134.966
L410.126 112.646
L382.165 112.646
z
" style="fill:#e4b5bd;stroke:#000000;stroke-linejoin:miter;stroke-width:0.39;"/>
   </g>
   <g id="patch_132">
    <path clip-path="url(#pd9012d17bb)" d="
M410.128 134.966
L472.178 134.966
L472.178 112.646
L410.128 112.646
z
" style="fill:#e7c0be;stroke:#000000;stroke-linejoin:miter;stroke-width:0.39;"/>
   </g>
   <g id="patch_133">
    <path clip-path="url(#pd9012d17bb)" d="
M472.18 134.966
L501.163 134.966
L501.163 112.646
L472.18 112.646
z
" style="fill:#e9cbc2;stroke:#000000;stroke-linejoin:miter;stroke-width:0.39;"/>
   </g>
   <g id="patch_134">
    <path clip-path="url(#pd9012d17bb)" d="
M501.164 134.966
L553.489 134.966
L553.489 112.646
L501.164 112.646
z
" style="fill:#ebd6c8;stroke:#000000;stroke-linejoin:miter;stroke-width:0.39;"/>
   </g>
   <g id="patch_135">
    <path clip-path="url(#pd9012d17bb)" d="
M553.491 134.966
L575.243 134.966
L575.243 112.646
L553.491 112.646
z
" style="fill:#ece0d0;stroke:#000000;stroke-linejoin:miter;stroke-width:0.39;"/>
   </g>
   <g id="patch_136">
    <path clip-path="url(#pd9012d17bb)" d="
M575.245 134.966
L602.24 134.966
L602.24 112.646
L575.245 112.646
z
" style="fill:#eee9d9;stroke:#000000;stroke-linejoin:miter;stroke-width:0.39;"/>
   </g>
   <g id="patch_137">
    <path clip-path="url(#pd9012d17bb)" d="
M602.242 134.966
L676.088 134.966
L676.088 112.646
L602.242 112.646
z
" style="fill:#f1f1e4;stroke:#000000;stroke-linejoin:miter;stroke-width:0.39;"/>
   </g>
   <g id="patch_138">
    <path clip-path="url(#pd9012d17bb)" d="
M47.7909 107.066
L106.069 107.066
L106.069 84.7462
L47.7909 84.7462
z
" style="fill:#7973ae;stroke:#000000;stroke-linejoin:miter;stroke-width:0.39;"/>
   </g>
   <g id="patch_139">
    <path clip-path="url(#pd9012d17bb)" d="
M106.071 107.066
L159.825 107.066
L159.825 84.7462
L106.071 84.7462
z
" style="fill:#8d79b6;stroke:#000000;stroke-linejoin:miter;stroke-width:0.39;"/>
   </g>
   <g id="patch_140">
    <path clip-path="url(#pd9012d17bb)" d="
M159.826 107.066
L199.011 107.066
L199.011 84.7462
L159.826 84.7462
z
" style="fill:#a07fbc;stroke:#000000;stroke-linejoin:miter;stroke-width:0.39;"/>
   </g>
   <g id="patch_141">
    <path clip-path="url(#pd9012d17bb)" d="
M199.012 107.066
L256.37 107.066
L256.37 84.7462
L199.012 84.7462
z
" style="fill:#b286bf;stroke:#000000;stroke-linejoin:miter;stroke-width:0.39;"/>
   </g>
   <g id="patch_142">
    <path clip-path="url(#pd9012d17bb)" d="
M256.373 107.066
L272.387 107.066
L272.387 84.7462
L256.373 84.7462
z
" style="fill:#c18dbf;stroke:#000000;stroke-linejoin:miter;stroke-width:0.39;"/>
   </g>
   <g id="patch_143">
    <path clip-path="url(#pd9012d17bb)" d="
M272.389 107.066
L290.48 107.066
L290.48 84.7462
L272.389 84.7462
z
" style="fill:#ce96bf;stroke:#000000;stroke-linejoin:miter;stroke-width:0.39;"/>
   </g>
   <g id="patch_144">
    <path clip-path="url(#pd9012d17bb)" d="
M290.483 107.066
L358.281 107.066
L358.281 84.7462
L290.483 84.7462
z
" style="fill:#d89fbd;stroke:#000000;stroke-linejoin:miter;stroke-width:0.39;"/>
   </g>
   <g id="patch_145">
    <path clip-path="url(#pd9012d17bb)" d="
M358.283 107.066
L425.41 107.066
L425.41 84.7462
L358.283 84.7462
z
" style="fill:#dfaabd;stroke:#000000;stroke-linejoin:miter;stroke-width:0.39;"/>
   </g>
   <g id="patch_146">
    <path clip-path="url(#pd9012d17bb)" d="
M425.411 107.066
L479.261 107.066
L479.261 84.7462
L425.411 84.7462
z
" style="fill:#e4b5bd;stroke:#000000;stroke-linejoin:miter;stroke-width:0.39;"/>
   </g>
   <g id="patch_147">
    <path clip-path="url(#pd9012d17bb)" d="
M479.262 107.066
L503.555 107.066
L503.555 84.7462
L479.262 84.7462
z
" style="fill:#e7c0be;stroke:#000000;stroke-linejoin:miter;stroke-width:0.39;"/>
   </g>
   <g id="patch_148">
    <path clip-path="url(#pd9012d17bb)" d="
M503.559 107.066
L562.478 107.066
L562.478 84.7462
L503.559 84.7462
z
" style="fill:#e9cbc2;stroke:#000000;stroke-linejoin:miter;stroke-width:0.39;"/>
   </g>
   <g id="patch_149">
    <path clip-path="url(#pd9012d17bb)" d="
M562.48 107.066
L619.083 107.066
L619.083 84.7462
L562.48 84.7462
z
" style="fill:#ebd6c8;stroke:#000000;stroke-linejoin:miter;stroke-width:0.39;"/>
   </g>
   <g id="patch_150">
    <path clip-path="url(#pd9012d17bb)" d="
M619.085 107.066
L652.075 107.066
L652.075 84.7462
L619.085 84.7462
z
" style="fill:#ece0d0;stroke:#000000;stroke-linejoin:miter;stroke-width:0.39;"/>
   </g>
   <g id="patch_151">
    <path clip-path="url(#pd9012d17bb)" d="
M652.077 107.066
L713.658 107.066
L713.658 84.7462
L652.077 84.7462
z
" style="fill:#eee9d9;stroke:#000000;stroke-linejoin:miter;stroke-width:0.39;"/>
   </g>
   <g id="patch_152">
    <path clip-path="url(#pd9012d17bb)" d="
M713.66 107.066
L765.454 107.066
L765.454 84.7462
L713.66 84.7462
z
" style="fill:#f1f1e4;stroke:#000000;stroke-linejoin:miter;stroke-width:0.39;"/>
   </g>
   <g id="patch_153">
    <path clip-path="url(#pd9012d17bb)" d="
M47.8897 79.1662
L85.2486 79.1662
L85.2486 56.8462
L47.8897 56.8462
z
" style="fill:#7973ae;stroke:#000000;stroke-linejoin:miter;stroke-width:0.39;"/>
   </g>
   <g id="patch_154">
    <path clip-path="url(#pd9012d17bb)" d="
M85.2523 79.1662
L153.651 79.1662
L153.651 56.8462
L85.2523 56.8462
z
" style="fill:#8d79b6;stroke:#000000;stroke-linejoin:miter;stroke-width:0.39;"/>
   </g>
   <g id="patch_155">
    <path clip-path="url(#pd9012d17bb)" d="
M153.655 79.1662
L202.802 79.1662
L202.802 56.8462
L153.655 56.8462
z
" style="fill:#a07fbc;stroke:#000000;stroke-linejoin:miter;stroke-width:0.39;"/>
   </g>
   <g id="patch_156">
    <path clip-path="url(#pd9012d17bb)" d="
M202.804 79.1662
L266.787 79.1662
L266.787 56.8462
L202.804 56.8462
z
" style="fill:#b286bf;stroke:#000000;stroke-linejoin:miter;stroke-width:0.39;"/>
   </g>
   <g id="patch_157">
    <path clip-path="url(#pd9012d17bb)" d="
M266.79 79.1662
L298.113 79.1662
L298.113 56.8462
L266.79 56.8462
z
" style="fill:#c18dbf;stroke:#000000;stroke-linejoin:miter;stroke-width:0.39;"/>
   </g>
   <g id="patch_158">
    <path clip-path="url(#pd9012d17bb)" d="
M298.114 79.1662
L343.932 79.1662
L343.932 56.8462
L298.114 56.8462
z
" style="fill:#ce96bf;stroke:#000000;stroke-linejoin:miter;stroke-width:0.39;"/>
   </g>
   <g id="patch_159">
    <path clip-path="url(#pd9012d17bb)" d="
M343.933 79.1662
L378.797 79.1662
L378.797 56.8462
L343.933 56.8462
z
" style="fill:#d89fbd;stroke:#000000;stroke-linejoin:miter;stroke-width:0.39;"/>
   </g>
   <g id="patch_160">
    <path clip-path="url(#pd9012d17bb)" d="
M378.799 79.1662
L404.296 79.1662
L404.296 56.8462
L378.799 56.8462
z
" style="fill:#dfaabd;stroke:#000000;stroke-linejoin:miter;stroke-width:0.39;"/>
   </g>
   <g id="patch_161">
    <path clip-path="url(#pd9012d17bb)" d="
M404.298 79.1662
L427.344 79.1662
L427.344 56.8462
L404.298 56.8462
z
" style="fill:#e4b5bd;stroke:#000000;stroke-linejoin:miter;stroke-width:0.39;"/>
   </g>
   <g id="patch_162">
    <path clip-path="url(#pd9012d17bb)" d="
M427.346 79.1662
L470.404 79.1662
L470.404 56.8462
L427.346 56.8462
z
" style="fill:#e7c0be;stroke:#000000;stroke-linejoin:miter;stroke-width:0.39;"/>
   </g>
   <g id="patch_163">
    <path clip-path="url(#pd9012d17bb)" d="
M470.406 79.1662
L516.038 79.1662
L516.038 56.8462
L470.406 56.8462
z
" style="fill:#e9cbc2;stroke:#000000;stroke-linejoin:miter;stroke-width:0.39;"/>
   </g>
   <g id="patch_164">
    <path clip-path="url(#pd9012d17bb)" d="
M516.042 79.1662
L539.56 79.1662
L539.56 56.8462
L516.042 56.8462
z
" style="fill:#ebd6c8;stroke:#000000;stroke-linejoin:miter;stroke-width:0.39;"/>
   </g>
   <g id="patch_165">
    <path clip-path="url(#pd9012d17bb)" d="
M539.562 79.1662
L572.859 79.1662
L572.859 56.8462
L539.562 56.8462
z
" style="fill:#ece0d0;stroke:#000000;stroke-linejoin:miter;stroke-width:0.39;"/>
   </g>
   <g id="patch_166">
    <path clip-path="url(#pd9012d17bb)" d="
M572.861 79.1662
L618.668 79.1662
L618.668 56.8462
L572.861 56.8462
z
" style="fill:#eee9d9;stroke:#000000;stroke-linejoin:miter;stroke-width:0.39;"/>
   </g>
   <g id="patch_167">
    <path clip-path="url(#pd9012d17bb)" d="
M618.67 79.1662
L668.697 79.1662
L668.697 56.8462
L618.67 56.8462
z
" style="fill:#f1f1e4;stroke:#000000;stroke-linejoin:miter;stroke-width:0.39;"/>
   </g>
   <g id="patch_168">
    <path clip-path="url(#pd9012d17bb)" d="
M47.9723 51.2662
L112.02 51.2662
L112.02 28.9462
L47.9723 28.9462
z
" style="fill:#7973ae;stroke:#000000;stroke-linejoin:miter;stroke-width:0.39;"/>
   </g>
   <g id="patch_169">
    <path clip-path="url(#pd9012d17bb)" d="
M112.022 51.2662
L143.941 51.2662
L143.941 28.9462
L112.022 28.9462
z
" style="fill:#8d79b6;stroke:#000000;stroke-linejoin:miter;stroke-width:0.39;"/>
   </g>
   <g id="patch_170">
    <path clip-path="url(#pd9012d17bb)" d="
M143.943 51.2662
L170.421 51.2662
L170.421 28.9462
L143.943 28.9462
z
" style="fill:#a07fbc;stroke:#000000;stroke-linejoin:miter;stroke-width:0.39;"/>
   </g>
   <g id="patch_171">
    <path clip-path="url(#pd9012d17bb)" d="
M170.422 51.2662
L202.365 51.2662
L202.365 28.9462
L170.422 28.9462
z
" style="fill:#b286bf;stroke:#000000;stroke-linejoin:miter;stroke-width:0.39;"/>
   </g>
   <g id="patch_172">
    <path clip-path="url(#pd9012d17bb)" d="
M202.367 51.2662
L242.488 51.2662
L242.488 28.9462
L202.367 28.9462
z
" style="fill:#c18dbf;stroke:#000000;stroke-linejoin:miter;stroke-width:0.39;"/>
   </g>
   <g id="patch_173">
    <path clip-path="url(#pd9012d17bb)" d="
M242.49 51.2662
L281.503 51.2662
L281.503 28.9462
L242.49 28.9462
z
" style="fill:#ce96bf;stroke:#000000;stroke-linejoin:miter;stroke-width:0.39;"/>
   </g>
   <g id="patch_174">
    <path clip-path="url(#pd9012d17bb)" d="
M281.505 51.2662
L352.153 51.2662
L352.153 28.9462
L281.505 28.9462
z
" style="fill:#d89fbd;stroke:#000000;stroke-linejoin:miter;stroke-width:0.39;"/>
   </g>
   <g id="patch_175">
    <path clip-path="url(#pd9012d17bb)" d="
M352.154 51.2662
L398.066 51.2662
L398.066 28.9462
L352.154 28.9462
z
" style="fill:#dfaabd;stroke:#000000;stroke-linejoin:miter;stroke-width:0.39;"/>
   </g>
   <g id="patch_176">
    <path clip-path="url(#pd9012d17bb)" d="
M398.068 51.2662
L435.7 51.2662
L435.7 28.9462
L398.068 28.9462
z
" style="fill:#e4b5bd;stroke:#000000;stroke-linejoin:miter;stroke-width:0.39;"/>
   </g>
   <g id="patch_177">
    <path clip-path="url(#pd9012d17bb)" d="
M435.702 51.2662
L479.87 51.2662
L479.87 28.9462
L435.702 28.9462
z
" style="fill:#e7c0be;stroke:#000000;stroke-linejoin:miter;stroke-width:0.39;"/>
   </g>
   <g id="patch_178">
    <path clip-path="url(#pd9012d17bb)" d="
M479.872 51.2662
L530.216 51.2662
L530.216 28.9462
L479.872 28.9462
z
" style="fill:#e9cbc2;stroke:#000000;stroke-linejoin:miter;stroke-width:0.39;"/>
   </g>
   <g id="patch_179">
    <path clip-path="url(#pd9012d17bb)" d="
M530.218 51.2662
L577.407 51.2662
L577.407 28.9462
L530.218 28.9462
z
" style="fill:#ebd6c8;stroke:#000000;stroke-linejoin:miter;stroke-width:0.39;"/>
   </g>
   <g id="patch_180">
    <path clip-path="url(#pd9012d17bb)" d="
M577.409 51.2662
L638.108 51.2662
L638.108 28.9462
L577.409 28.9462
z
" style="fill:#ece0d0;stroke:#000000;stroke-linejoin:miter;stroke-width:0.39;"/>
   </g>
   <g id="patch_181">
    <path clip-path="url(#pd9012d17bb)" d="
M638.11 51.2662
L690.309 51.2662
L690.309 28.9462
L638.11 28.9462
z
" style="fill:#eee9d9;stroke:#000000;stroke-linejoin:miter;stroke-width:0.39;"/>
   </g>
   <g id="patch_182">
    <path clip-path="url(#pd9012d17bb)" d="
M690.311 51.2662
L712.508 51.2662
L712.508 28.9462
L690.311 28.9462
z
" style="fill:#f1f1e4;stroke:#000000;stroke-linejoin:miter;stroke-width:0.39;"/>
   </g>
   <g id="patch_183">
    <path d="
M46.9665 23.3662
L883.966 23.3662" style="fill:none;stroke:#262626;stroke-linecap:square;stroke-linejoin:miter;stroke-width:1.25;"/>
   </g>
   <g id="patch_184">
    <path d="
M883.966 358.166
L883.966 23.3662" style="fill:none;stroke:#262626;stroke-linecap:square;stroke-linejoin:miter;stroke-width:1.25;"/>
   </g>
   <g id="patch_185">
    <path d="
M46.9665 358.166
L46.9665 23.3662" style="fill:none;stroke:#262626;stroke-linecap:square;stroke-linejoin:miter;stroke-width:1.25;"/>
   </g>
   <g id="patch_186">
    <path d="
M46.9665 358.166
L883.966 358.166" style="fill:none;stroke:#262626;stroke-linecap:square;stroke-linejoin:miter;stroke-width:1.25;"/>
   </g>
   <g id="text_23">
    <!-- Direct view IPython parallel job timetable -->
    <defs>
     <path d="
M9.32812 0
L9.32812 71.5781
L18.7969 71.5781
L18.7969 0
z
" id="ArialMT-49"/>
     <path d="
M16.1562 0
L0.296875 51.8594
L9.375 51.8594
L17.625 21.9219
L20.7031 10.7969
Q20.9062 11.625 23.3906 21.4844
L31.6406 51.8594
L40.6719 51.8594
L48.4375 21.7812
L51.0312 11.8594
L54 21.875
L62.8906 51.8594
L71.4375 51.8594
L55.2188 0
L46.0938 0
L37.8438 31.0625
L35.8438 39.8906
L25.3438 0
z
" id="ArialMT-77"/>
     <path d="
M7.71875 0
L7.71875 71.5781
L34.7188 71.5781
Q41.8438 71.5781 45.6094 70.9062
Q50.875 70.0156 54.4375 67.5469
Q58.0156 65.0938 60.1875 60.6406
Q62.3594 56.2031 62.3594 50.875
Q62.3594 41.75 56.5469 35.4219
Q50.7344 29.1094 35.5469 29.1094
L17.1875 29.1094
L17.1875 0
z

M17.1875 37.5469
L35.6875 37.5469
Q44.875 37.5469 48.7344 40.9688
Q52.5938 44.3906 52.5938 50.5938
Q52.5938 55.0781 50.3125 58.2656
Q48.0469 61.4688 44.3438 62.5
Q41.9375 63.1406 35.5 63.1406
L17.1875 63.1406
z
" id="ArialMT-50"/>
     <path d="
M14.7031 0
L6.54688 0
L6.54688 71.5781
L15.3281 71.5781
L15.3281 46.0469
Q20.9062 53.0312 29.5469 53.0312
Q34.3281 53.0312 38.5938 51.0938
Q42.875 49.1719 45.625 45.6719
Q48.3906 42.1875 49.9531 37.25
Q51.5156 32.3281 51.5156 26.7031
Q51.5156 13.375 44.9219 6.09375
Q38.3281 -1.17188 29.1094 -1.17188
Q19.9219 -1.17188 14.7031 6.5
z

M14.5938 26.3125
Q14.5938 17 17.1406 12.8438
Q21.2969 6.0625 28.375 6.0625
Q34.125 6.0625 38.3281 11.0625
Q42.5312 16.0625 42.5312 25.9844
Q42.5312 36.1406 38.5 40.9688
Q34.4688 45.7969 28.7656 45.7969
Q23 45.7969 18.7969 40.7969
Q14.5938 35.7969 14.5938 26.3125" id="ArialMT-62"/>
     <path d="
M6.54688 61.375
L6.54688 71.5781
L15.3281 71.5781
L15.3281 61.375
z

M-4.59375 -20.125
L-2.9375 -12.6406
Q-0.296875 -13.3281 1.21875 -13.3281
Q3.90625 -13.3281 5.21875 -11.5469
Q6.54688 -9.76562 6.54688 -2.64062
L6.54688 51.8594
L15.3281 51.8594
L15.3281 -2.82812
Q15.3281 -12.4062 12.8438 -16.1562
Q9.67188 -21.0469 2.29688 -21.0469
Q-1.26562 -21.0469 -4.59375 -20.125" id="ArialMT-6a"/>
     <path d="
M6.59375 -19.875
L6.59375 51.8594
L14.5938 51.8594
L14.5938 45.125
Q17.4375 49.0781 21 51.0469
Q24.5625 53.0312 29.6406 53.0312
Q36.2812 53.0312 41.3594 49.6094
Q46.4375 46.1875 49.0156 39.9531
Q51.6094 33.7344 51.6094 26.3125
Q51.6094 18.3594 48.75 11.9844
Q45.9062 5.60938 40.4531 2.21875
Q35.0156 -1.17188 29 -1.17188
Q24.6094 -1.17188 21.1094 0.6875
Q17.625 2.54688 15.375 5.375
L15.375 -19.875
z

M14.5469 25.6406
Q14.5469 15.625 18.5938 10.8438
Q22.6562 6.0625 28.4219 6.0625
Q34.2812 6.0625 38.4531 11.0156
Q42.625 15.9688 42.625 26.375
Q42.625 36.2812 38.5469 41.2031
Q34.4688 46.1406 28.8125 46.1406
Q23.1875 46.1406 18.8594 40.8906
Q14.5469 35.6406 14.5469 25.6406" id="ArialMT-70"/>
     <path d="
M6.59375 0
L6.59375 71.5781
L15.375 71.5781
L15.375 45.9062
Q21.5312 53.0312 30.9062 53.0312
Q36.6719 53.0312 40.9219 50.75
Q45.1719 48.4844 47 44.4844
Q48.8281 40.4844 48.8281 32.8594
L48.8281 0
L40.0469 0
L40.0469 32.8594
Q40.0469 39.4531 37.1875 42.4531
Q34.3281 45.4531 29.1094 45.4531
Q25.2031 45.4531 21.75 43.4219
Q18.3125 41.4062 16.8438 37.9375
Q15.375 34.4688 15.375 28.375
L15.375 0
z
" id="ArialMT-68"/>
     <path d="
M6.5 0
L6.5 51.8594
L14.4062 51.8594
L14.4062 44
Q17.4375 49.5156 20 51.2656
Q22.5625 53.0312 25.6406 53.0312
Q30.0781 53.0312 34.6719 50.2031
L31.6406 42.0469
Q28.4219 43.9531 25.2031 43.9531
Q22.3125 43.9531 20.0156 42.2188
Q17.7188 40.4844 16.75 37.4062
Q15.2812 32.7188 15.2812 27.1562
L15.2812 0
z
" id="ArialMT-72"/>
     <path d="
M7.71875 0
L7.71875 71.5781
L32.375 71.5781
Q40.7188 71.5781 45.125 70.5625
Q51.2656 69.1406 55.6094 65.4375
Q61.2812 60.6406 64.0781 53.1875
Q66.8906 45.75 66.8906 36.1875
Q66.8906 28.0312 64.9844 21.7344
Q63.0938 15.4375 60.1094 11.2969
Q57.125 7.17188 53.5781 4.79688
Q50.0469 2.4375 45.0469 1.21875
Q40.0469 0 33.5469 0
z

M17.1875 8.45312
L32.4688 8.45312
Q39.5469 8.45312 43.5781 9.76562
Q47.6094 11.0781 50 13.4844
Q53.375 16.8438 55.25 22.5312
Q57.125 28.2188 57.125 36.3281
Q57.125 47.5625 53.4375 53.5938
Q49.75 59.625 44.4844 61.6719
Q40.6719 63.1406 32.2344 63.1406
L17.1875 63.1406
z
" id="ArialMT-44"/>
     <path d="
M21 0
L1.26562 51.8594
L10.5469 51.8594
L21.6875 20.7969
Q23.4844 15.7656 25 10.3594
Q26.1719 14.4531 28.2656 20.2188
L39.7969 51.8594
L48.8281 51.8594
L29.2031 0
z
" id="ArialMT-76"/>
     <path d="
M6.20312 -19.9688
L5.21875 -11.7188
Q8.10938 -12.5 10.25 -12.5
Q13.1875 -12.5 14.9375 -11.5156
Q16.7031 -10.5469 17.8281 -8.79688
Q18.6562 -7.46875 20.5156 -2.25
Q20.75 -1.51562 21.2969 -0.09375
L1.60938 51.8594
L11.0781 51.8594
L21.875 21.8281
Q23.9688 16.1094 25.6406 9.8125
Q27.1562 15.875 29.25 21.625
L40.3281 51.8594
L49.125 51.8594
L29.3906 -0.875
Q26.2188 -9.42188 24.4688 -12.6406
Q22.125 -17 19.0938 -19.0156
Q16.0625 -21.0469 11.8594 -21.0469
Q9.32812 -21.0469 6.20312 -19.9688" id="ArialMT-79"/>
     <path d="
M40.4375 6.39062
Q35.5469 2.25 31.0312 0.53125
Q26.5156 -1.17188 21.3438 -1.17188
Q12.7969 -1.17188 8.20312 3
Q3.60938 7.17188 3.60938 13.6719
Q3.60938 17.4844 5.34375 20.625
Q7.07812 23.7812 9.89062 25.6875
Q12.7031 27.5938 16.2188 28.5625
Q18.7969 29.25 24.0312 29.8906
Q34.6719 31.1562 39.7031 32.9062
Q39.75 34.7188 39.75 35.2031
Q39.75 40.5781 37.25 42.7812
Q33.8906 45.75 27.25 45.75
Q21.0469 45.75 18.0938 43.5781
Q15.1406 41.4062 13.7188 35.8906
L5.125 37.0625
Q6.29688 42.5781 8.98438 45.9688
Q11.6719 49.3594 16.75 51.1875
Q21.8281 53.0312 28.5156 53.0312
Q35.1562 53.0312 39.2969 51.4688
Q43.4531 49.9062 45.4062 47.5312
Q47.3594 45.1719 48.1406 41.5469
Q48.5781 39.3125 48.5781 33.4531
L48.5781 21.7344
Q48.5781 9.46875 49.1406 6.21875
Q49.7031 2.98438 51.375 0
L42.1875 0
Q40.8281 2.73438 40.4375 6.39062
M39.7031 26.0312
Q34.9062 24.0781 25.3438 22.7031
Q19.9219 21.9219 17.6719 20.9375
Q15.4375 19.9688 14.2031 18.0938
Q12.9844 16.2188 12.9844 13.9219
Q12.9844 10.4062 15.6406 8.0625
Q18.3125 5.71875 23.4375 5.71875
Q28.5156 5.71875 32.4688 7.9375
Q36.4219 10.1562 38.2812 14.0156
Q39.7031 17 39.7031 22.7969
z
" id="ArialMT-61"/>
     <path d="
M6.39062 0
L6.39062 71.5781
L15.1875 71.5781
L15.1875 0
z
" id="ArialMT-6c"/>
     <path d="
M25.7812 7.85938
L27.0469 0.09375
Q23.3438 -0.6875 20.4062 -0.6875
Q15.625 -0.6875 12.9844 0.828125
Q10.3594 2.34375 9.28125 4.8125
Q8.20312 7.28125 8.20312 15.1875
L8.20312 45.0156
L1.76562 45.0156
L1.76562 51.8594
L8.20312 51.8594
L8.20312 64.7031
L16.9375 69.9688
L16.9375 51.8594
L25.7812 51.8594
L25.7812 45.0156
L16.9375 45.0156
L16.9375 14.7031
Q16.9375 10.9375 17.4062 9.85938
Q17.875 8.79688 18.9219 8.15625
Q19.9688 7.51562 21.9219 7.51562
Q23.3906 7.51562 25.7812 7.85938" id="ArialMT-74"/>
    </defs>
    <g style="fill:#262626;" transform="translate(325.33215625 18.3661875)scale(0.15600000000000003 -0.15600000000000003)">
     <use xlink:href="#ArialMT-44"/>
     <use x="72.216796875" xlink:href="#ArialMT-69"/>
     <use x="94.43359375" xlink:href="#ArialMT-72"/>
     <use x="127.734375" xlink:href="#ArialMT-65"/>
     <use x="183.349609375" xlink:href="#ArialMT-63"/>
     <use x="233.349609375" xlink:href="#ArialMT-74"/>
     <use x="261.1328125" xlink:href="#ArialMT-20"/>
     <use x="288.916015625" xlink:href="#ArialMT-76"/>
     <use x="338.916015625" xlink:href="#ArialMT-69"/>
     <use x="361.1328125" xlink:href="#ArialMT-65"/>
     <use x="416.748046875" xlink:href="#ArialMT-77"/>
     <use x="488.96484375" xlink:href="#ArialMT-20"/>
     <use x="516.748046875" xlink:href="#ArialMT-49"/>
     <use x="544.53125" xlink:href="#ArialMT-50"/>
     <use x="611.23046875" xlink:href="#ArialMT-79"/>
     <use x="661.23046875" xlink:href="#ArialMT-74"/>
     <use x="689.013671875" xlink:href="#ArialMT-68"/>
     <use x="744.62890625" xlink:href="#ArialMT-6f"/>
     <use x="800.244140625" xlink:href="#ArialMT-6e"/>
     <use x="855.859375" xlink:href="#ArialMT-20"/>
     <use x="883.642578125" xlink:href="#ArialMT-70"/>
     <use x="939.2578125" xlink:href="#ArialMT-61"/>
     <use x="994.873046875" xlink:href="#ArialMT-72"/>
     <use x="1028.173828125" xlink:href="#ArialMT-61"/>
     <use x="1083.7890625" xlink:href="#ArialMT-6c"/>
     <use x="1106.005859375" xlink:href="#ArialMT-6c"/>
     <use x="1128.22265625" xlink:href="#ArialMT-65"/>
     <use x="1183.837890625" xlink:href="#ArialMT-6c"/>
     <use x="1206.0546875" xlink:href="#ArialMT-20"/>
     <use x="1233.837890625" xlink:href="#ArialMT-6a"/>
     <use x="1256.0546875" xlink:href="#ArialMT-6f"/>
     <use x="1311.669921875" xlink:href="#ArialMT-62"/>
     <use x="1367.28515625" xlink:href="#ArialMT-20"/>
     <use x="1395.068359375" xlink:href="#ArialMT-74"/>
     <use x="1422.8515625" xlink:href="#ArialMT-69"/>
     <use x="1445.068359375" xlink:href="#ArialMT-6d"/>
     <use x="1528.369140625" xlink:href="#ArialMT-65"/>
     <use x="1583.984375" xlink:href="#ArialMT-74"/>
     <use x="1611.767578125" xlink:href="#ArialMT-61"/>
     <use x="1667.3828125" xlink:href="#ArialMT-62"/>
     <use x="1722.998046875" xlink:href="#ArialMT-6c"/>
     <use x="1745.21484375" xlink:href="#ArialMT-65"/>
    </g>
   </g>
  </g>
 </g>
 <defs>
  <clipPath id="pd9012d17bb">
   <rect height="334.8" width="837.0" x="46.96646875" y="23.3661875"/>
  </clipPath>
 </defs>
</svg>
