<?xml version="1.0" encoding="utf-8" standalone="no"?>
<!DOCTYPE svg PUBLIC "-//W3C//DTD SVG 1.1//EN"
  "http://www.w3.org/Graphics/SVG/1.1/DTD/svg11.dtd">
<!-- Created with matplotlib (http://matplotlib.org/) -->
<svg height="404pt" version="1.1" viewBox="0 0 785 404" width="785pt" xmlns="http://www.w3.org/2000/svg" xmlns:xlink="http://www.w3.org/1999/xlink">
 <defs>
  <style type="text/css">
*{stroke-linecap:butt;stroke-linejoin:round;}
  </style>
 </defs>
 <g id="figure_1">
  <g id="patch_1">
   <path d="
M0 404.775
L785.774 404.775
L785.774 0
L0 0
z
" style="fill:#ffffff;"/>
  </g>
  <g id="axes_1">
   <g id="patch_2">
    <path d="
M46.9665 358.166
L772.366 358.166
L772.366 23.3662
L46.9665 23.3662
z
" style="fill:#ffffff;"/>
   </g>
   <g id="matplotlib.axis_1">
    <g id="xtick_1">
     <g id="line2d_1">
      <defs>
       <path d="
M0 0
L0 0" id="m56cc5124a0" style="stroke:#262626;stroke-width:1.3;"/>
      </defs>
      <g>
       <use style="fill:#262626;stroke:#262626;stroke-width:1.3;" x="46.96646875" xlink:href="#m56cc5124a0" y="358.1661875"/>
      </g>
     </g>
     <g id="line2d_2">
      <g>
       <use style="fill:#262626;stroke:#262626;stroke-width:1.3;" x="46.96646875" xlink:href="#m56cc5124a0" y="23.3661875"/>
      </g>
     </g>
     <g id="text_1">
      <!-- 0 -->
      <defs>
       <path d="
M4.15625 35.2969
Q4.15625 48 6.76562 55.7344
Q9.375 63.4844 14.5156 67.6719
Q19.6719 71.875 27.4844 71.875
Q33.25 71.875 37.5938 69.5469
Q41.9375 67.2344 44.7656 62.8594
Q47.6094 58.5 49.2188 52.2188
Q50.8281 45.9531 50.8281 35.2969
Q50.8281 22.7031 48.2344 14.9688
Q45.6562 7.23438 40.5 3
Q35.3594 -1.21875 27.4844 -1.21875
Q17.1406 -1.21875 11.2344 6.20312
Q4.15625 15.1406 4.15625 35.2969
M13.1875 35.2969
Q13.1875 17.6719 17.3125 11.8281
Q21.4375 6 27.4844 6
Q33.5469 6 37.6719 11.8594
Q41.7969 17.7188 41.7969 35.2969
Q41.7969 52.9844 37.6719 58.7812
Q33.5469 64.5938 27.3906 64.5938
Q21.3438 64.5938 17.7188 59.4688
Q13.1875 52.9375 13.1875 35.2969" id="ArialMT-30"/>
      </defs>
      <g style="fill:#262626;" transform="translate(43.932796875 376.57134375)scale(0.13 -0.13)">
       <use xlink:href="#ArialMT-30"/>
      </g>
     </g>
    </g>
    <g id="xtick_2">
     <g id="line2d_3">
      <g>
       <use style="fill:#262626;stroke:#262626;stroke-width:1.3;" x="150.595040179" xlink:href="#m56cc5124a0" y="358.1661875"/>
      </g>
     </g>
     <g id="line2d_4">
      <g>
       <use style="fill:#262626;stroke:#262626;stroke-width:1.3;" x="150.595040179" xlink:href="#m56cc5124a0" y="23.3661875"/>
      </g>
     </g>
     <g id="text_2">
      <!-- 2 -->
      <defs>
       <path d="
M50.3438 8.45312
L50.3438 0
L3.03125 0
Q2.9375 3.17188 4.04688 6.10938
Q5.85938 10.9375 9.82812 15.625
Q13.8125 20.3125 21.3438 26.4688
Q33.0156 36.0312 37.1094 41.625
Q41.2188 47.2188 41.2188 52.2031
Q41.2188 57.4219 37.4688 61
Q33.7344 64.5938 27.7344 64.5938
Q21.3906 64.5938 17.5781 60.7812
Q13.7656 56.9844 13.7188 50.25
L4.6875 51.1719
Q5.60938 61.2812 11.6562 66.5781
Q17.7188 71.875 27.9375 71.875
Q38.2344 71.875 44.2344 66.1562
Q50.25 60.4531 50.25 52
Q50.25 47.7031 48.4844 43.5469
Q46.7344 39.4062 42.6562 34.8125
Q38.5781 30.2188 29.1094 22.2188
Q21.1875 15.5781 18.9375 13.2031
Q16.7031 10.8438 15.2344 8.45312
z
" id="ArialMT-32"/>
      </defs>
      <g style="fill:#262626;" transform="translate(147.513633929 376.57134375)scale(0.13 -0.13)">
       <use xlink:href="#ArialMT-32"/>
      </g>
     </g>
    </g>
    <g id="xtick_3">
     <g id="line2d_5">
      <g>
       <use style="fill:#262626;stroke:#262626;stroke-width:1.3;" x="254.223611607" xlink:href="#m56cc5124a0" y="358.1661875"/>
      </g>
     </g>
     <g id="line2d_6">
      <g>
       <use style="fill:#262626;stroke:#262626;stroke-width:1.3;" x="254.223611607" xlink:href="#m56cc5124a0" y="23.3661875"/>
      </g>
     </g>
     <g id="text_3">
      <!-- 4 -->
      <defs>
       <path d="
M32.3281 0
L32.3281 17.1406
L1.26562 17.1406
L1.26562 25.2031
L33.9375 71.5781
L41.1094 71.5781
L41.1094 25.2031
L50.7812 25.2031
L50.7812 17.1406
L41.1094 17.1406
L41.1094 0
z

M32.3281 25.2031
L32.3281 57.4688
L9.90625 25.2031
z
" id="ArialMT-34"/>
      </defs>
      <g style="fill:#262626;" transform="translate(251.005095982 376.57134375)scale(0.13 -0.13)">
       <use xlink:href="#ArialMT-34"/>
      </g>
     </g>
    </g>
    <g id="xtick_4">
     <g id="line2d_7">
      <g>
       <use style="fill:#262626;stroke:#262626;stroke-width:1.3;" x="357.852183036" xlink:href="#m56cc5124a0" y="358.1661875"/>
      </g>
     </g>
     <g id="line2d_8">
      <g>
       <use style="fill:#262626;stroke:#262626;stroke-width:1.3;" x="357.852183036" xlink:href="#m56cc5124a0" y="23.3661875"/>
      </g>
     </g>
     <g id="text_4">
      <!-- 6 -->
      <defs>
       <path d="
M49.75 54.0469
L41.0156 53.375
Q39.8438 58.5469 37.7031 60.8906
Q34.125 64.6562 28.9062 64.6562
Q24.7031 64.6562 21.5312 62.3125
Q17.3906 59.2812 14.9844 53.4688
Q12.5938 47.6562 12.5 36.9219
Q15.6719 41.75 20.2656 44.0938
Q24.8594 46.4375 29.8906 46.4375
Q38.6719 46.4375 44.8438 39.9688
Q51.0312 33.5 51.0312 23.25
Q51.0312 16.5 48.125 10.7188
Q45.2188 4.9375 40.1406 1.85938
Q35.0625 -1.21875 28.6094 -1.21875
Q17.625 -1.21875 10.6875 6.85938
Q3.76562 14.9375 3.76562 33.5
Q3.76562 54.25 11.4219 63.6719
Q18.1094 71.875 29.4375 71.875
Q37.8906 71.875 43.2812 67.1406
Q48.6875 62.4062 49.75 54.0469
M13.875 23.1875
Q13.875 18.6562 15.7969 14.5
Q17.7188 10.3594 21.1875 8.17188
Q24.6562 6 28.4688 6
Q34.0312 6 38.0312 10.4844
Q42.0469 14.9844 42.0469 22.7031
Q42.0469 30.125 38.0781 34.3906
Q34.125 38.6719 28.125 38.6719
Q22.1719 38.6719 18.0156 34.3906
Q13.875 30.125 13.875 23.1875" id="ArialMT-36"/>
      </defs>
      <g style="fill:#262626;" transform="translate(354.779917411 376.57134375)scale(0.13 -0.13)">
       <use xlink:href="#ArialMT-36"/>
      </g>
     </g>
    </g>
    <g id="xtick_5">
     <g id="line2d_9">
      <g>
       <use style="fill:#262626;stroke:#262626;stroke-width:1.3;" x="461.480754464" xlink:href="#m56cc5124a0" y="358.1661875"/>
      </g>
     </g>
     <g id="line2d_10">
      <g>
       <use style="fill:#262626;stroke:#262626;stroke-width:1.3;" x="461.480754464" xlink:href="#m56cc5124a0" y="23.3661875"/>
      </g>
     </g>
     <g id="text_5">
      <!-- 8 -->
      <defs>
       <path d="
M17.6719 38.8125
Q12.2031 40.8281 9.5625 44.5312
Q6.9375 48.25 6.9375 53.4219
Q6.9375 61.2344 12.5469 66.5469
Q18.1719 71.875 27.4844 71.875
Q36.8594 71.875 42.5781 66.4219
Q48.2969 60.9844 48.2969 53.1719
Q48.2969 48.1875 45.6719 44.5
Q43.0625 40.8281 37.75 38.8125
Q44.3438 36.6719 47.7812 31.875
Q51.2188 27.0938 51.2188 20.4531
Q51.2188 11.2812 44.7188 5.03125
Q38.2344 -1.21875 27.6406 -1.21875
Q17.0469 -1.21875 10.5469 5.04688
Q4.04688 11.3281 4.04688 20.7031
Q4.04688 27.6875 7.59375 32.3906
Q11.1406 37.1094 17.6719 38.8125
M15.9219 53.7188
Q15.9219 48.6406 19.1875 45.4062
Q22.4688 42.1875 27.6875 42.1875
Q32.7656 42.1875 36.0156 45.375
Q39.2656 48.5781 39.2656 53.2188
Q39.2656 58.0625 35.9062 61.3594
Q32.5625 64.6562 27.5938 64.6562
Q22.5625 64.6562 19.2344 61.4219
Q15.9219 58.2031 15.9219 53.7188
M13.0938 20.6562
Q13.0938 16.8906 14.875 13.375
Q16.6562 9.85938 20.1719 7.92188
Q23.6875 6 27.7344 6
Q34.0312 6 38.125 10.0469
Q42.2344 14.1094 42.2344 20.3594
Q42.2344 26.7031 38.0156 30.8594
Q33.7969 35.0156 27.4375 35.0156
Q21.2344 35.0156 17.1562 30.9062
Q13.0938 26.8125 13.0938 20.6562" id="ArialMT-38"/>
      </defs>
      <g style="fill:#262626;" transform="translate(458.414582589 376.57134375)scale(0.13 -0.13)">
       <use xlink:href="#ArialMT-38"/>
      </g>
     </g>
    </g>
    <g id="xtick_6">
     <g id="line2d_11">
      <g>
       <use style="fill:#262626;stroke:#262626;stroke-width:1.3;" x="565.109325893" xlink:href="#m56cc5124a0" y="358.1661875"/>
      </g>
     </g>
     <g id="line2d_12">
      <g>
       <use style="fill:#262626;stroke:#262626;stroke-width:1.3;" x="565.109325893" xlink:href="#m56cc5124a0" y="23.3661875"/>
      </g>
     </g>
     <g id="text_6">
      <!-- 10 -->
      <defs>
       <path d="
M37.25 0
L28.4688 0
L28.4688 56
Q25.2969 52.9844 20.1406 49.9531
Q14.9844 46.9219 10.8906 45.4062
L10.8906 53.9062
Q18.2656 57.375 23.7812 62.2969
Q29.2969 67.2344 31.5938 71.875
L37.25 71.875
z
" id="ArialMT-31"/>
      </defs>
      <g style="fill:#262626;" transform="translate(558.898779018 376.57134375)scale(0.13 -0.13)">
       <use xlink:href="#ArialMT-31"/>
       <use x="55.615234375" xlink:href="#ArialMT-30"/>
      </g>
     </g>
    </g>
    <g id="xtick_7">
     <g id="line2d_13">
      <g>
       <use style="fill:#262626;stroke:#262626;stroke-width:1.3;" x="668.737897321" xlink:href="#m56cc5124a0" y="358.1661875"/>
      </g>
     </g>
     <g id="line2d_14">
      <g>
       <use style="fill:#262626;stroke:#262626;stroke-width:1.3;" x="668.737897321" xlink:href="#m56cc5124a0" y="23.3661875"/>
      </g>
     </g>
     <g id="text_7">
      <!-- 12 -->
      <g style="fill:#262626;" transform="translate(662.558834821 376.57134375)scale(0.13 -0.13)">
       <use xlink:href="#ArialMT-31"/>
       <use x="55.615234375" xlink:href="#ArialMT-32"/>
      </g>
     </g>
    </g>
    <g id="xtick_8">
     <g id="line2d_15">
      <g>
       <use style="fill:#262626;stroke:#262626;stroke-width:1.3;" x="772.36646875" xlink:href="#m56cc5124a0" y="358.1661875"/>
      </g>
     </g>
     <g id="line2d_16">
      <g>
       <use style="fill:#262626;stroke:#262626;stroke-width:1.3;" x="772.36646875" xlink:href="#m56cc5124a0" y="23.3661875"/>
      </g>
     </g>
     <g id="text_8">
      <!-- 14 -->
      <g style="fill:#262626;" transform="translate(766.15896875 376.57134375)scale(0.13 -0.13)">
       <use xlink:href="#ArialMT-31"/>
       <use x="55.615234375" xlink:href="#ArialMT-34"/>
      </g>
     </g>
    </g>
    <g id="text_9">
     <!-- Time (second) -->
     <defs>
      <path d="
M3.32812 25.9219
Q3.32812 40.3281 11.3281 47.2656
Q18.0156 53.0312 27.6406 53.0312
Q38.3281 53.0312 45.1094 46.0156
Q51.9062 39.0156 51.9062 26.6562
Q51.9062 16.6562 48.9062 10.9062
Q45.9062 5.17188 40.1562 2
Q34.4219 -1.17188 27.6406 -1.17188
Q16.75 -1.17188 10.0312 5.8125
Q3.32812 12.7969 3.32812 25.9219
M12.3594 25.9219
Q12.3594 15.9688 16.7031 11.0156
Q21.0469 6.0625 27.6406 6.0625
Q34.1875 6.0625 38.5312 11.0312
Q42.875 16.0156 42.875 26.2188
Q42.875 35.8438 38.5 40.7969
Q34.125 45.75 27.6406 45.75
Q21.0469 45.75 16.7031 40.8125
Q12.3594 35.8906 12.3594 25.9219" id="ArialMT-6f"/>
      <path d="
M25.9219 0
L25.9219 63.1406
L2.34375 63.1406
L2.34375 71.5781
L59.0781 71.5781
L59.0781 63.1406
L35.4062 63.1406
L35.4062 0
z
" id="ArialMT-54"/>
      <path d="
M6.64062 61.4688
L6.64062 71.5781
L15.4375 71.5781
L15.4375 61.4688
z

M6.64062 0
L6.64062 51.8594
L15.4375 51.8594
L15.4375 0
z
" id="ArialMT-69"/>
      <path d="
M42.0938 16.7031
L51.1719 15.5781
Q49.0312 7.625 43.2188 3.21875
Q37.4062 -1.17188 28.375 -1.17188
Q17 -1.17188 10.3281 5.82812
Q3.65625 12.8438 3.65625 25.4844
Q3.65625 38.5781 10.3906 45.7969
Q17.1406 53.0312 27.875 53.0312
Q38.2812 53.0312 44.875 45.9531
Q51.4688 38.875 51.4688 26.0312
Q51.4688 25.25 51.4219 23.6875
L12.75 23.6875
Q13.2344 15.1406 17.5781 10.5938
Q21.9219 6.0625 28.4219 6.0625
Q33.25 6.0625 36.6719 8.59375
Q40.0938 11.1406 42.0938 16.7031
M13.2344 30.9062
L42.1875 30.9062
Q41.6094 37.4531 38.875 40.7188
Q34.6719 45.7969 27.9844 45.7969
Q21.9219 45.7969 17.7969 41.75
Q13.6719 37.7031 13.2344 30.9062" id="ArialMT-65"/>
      <path d="
M6.59375 0
L6.59375 51.8594
L14.4531 51.8594
L14.4531 44.5781
Q16.8906 48.3906 20.9375 50.7031
Q25 53.0312 30.1719 53.0312
Q35.9375 53.0312 39.625 50.6406
Q43.3125 48.25 44.8281 43.9531
Q50.9844 53.0312 60.8438 53.0312
Q68.5625 53.0312 72.7031 48.75
Q76.8594 44.4844 76.8594 35.5938
L76.8594 0
L68.1094 0
L68.1094 32.6719
Q68.1094 37.9375 67.25 40.25
Q66.4062 42.5781 64.1562 43.9844
Q61.9219 45.4062 58.8906 45.4062
Q53.4219 45.4062 49.7969 41.7656
Q46.1875 38.1406 46.1875 30.125
L46.1875 0
L37.4062 0
L37.4062 33.6875
Q37.4062 39.5469 35.25 42.4688
Q33.1094 45.4062 28.2188 45.4062
Q24.5156 45.4062 21.3594 43.4531
Q18.2188 41.5 16.7969 37.7344
Q15.375 33.9844 15.375 26.9062
L15.375 0
z
" id="ArialMT-6d"/>
      <path d="
M12.3594 -21.0469
L6.0625 -21.0469
Q20.6562 2.39062 20.6562 25.875
Q20.6562 35.0625 18.5625 44.0938
Q16.8906 51.4219 13.9219 58.1562
Q12.0156 62.5469 6.0625 72.7969
L12.3594 72.7969
Q21.5312 60.5469 25.9219 48.1875
Q29.6875 37.5469 29.6875 25.9219
Q29.6875 12.75 24.625 0.4375
Q19.5781 -11.8594 12.3594 -21.0469" id="ArialMT-29"/>
      <path d="
M3.07812 15.4844
L11.7656 16.8438
Q12.5 11.625 15.8438 8.84375
Q19.1875 6.0625 25.2031 6.0625
Q31.25 6.0625 34.1719 8.51562
Q37.1094 10.9844 37.1094 14.3125
Q37.1094 17.2812 34.5156 19
Q32.7188 20.1719 25.5312 21.9688
Q15.875 24.4219 12.1406 26.2031
Q8.40625 27.9844 6.46875 31.125
Q4.54688 34.2812 4.54688 38.0938
Q4.54688 41.5469 6.125 44.5
Q7.71875 47.4688 10.4531 49.4219
Q12.5 50.9219 16.0312 51.9688
Q19.5781 53.0312 23.6406 53.0312
Q29.7344 53.0312 34.3438 51.2656
Q38.9688 49.5156 41.1562 46.5
Q43.3594 43.5 44.1875 38.4844
L35.5938 37.3125
Q35.0156 41.3125 32.2031 43.5469
Q29.3906 45.7969 24.2656 45.7969
Q18.2188 45.7969 15.625 43.7969
Q13.0312 41.7969 13.0312 39.1094
Q13.0312 37.4062 14.1094 36.0312
Q15.1875 34.625 17.4844 33.6875
Q18.7969 33.2031 25.25 31.4531
Q34.5781 28.9531 38.25 27.3594
Q41.9375 25.7812 44.0312 22.75
Q46.1406 19.7344 46.1406 15.2344
Q46.1406 10.8438 43.5781 6.95312
Q41.0156 3.07812 36.1719 0.953125
Q31.3438 -1.17188 25.25 -1.17188
Q15.1406 -1.17188 9.84375 3.03125
Q4.54688 7.23438 3.07812 15.4844" id="ArialMT-73"/>
      <path d="
M23.3906 -21.0469
Q16.1094 -11.8594 11.0781 0.4375
Q6.0625 12.75 6.0625 25.9219
Q6.0625 37.5469 9.8125 48.1875
Q14.2031 60.5469 23.3906 72.7969
L29.6875 72.7969
Q23.7812 62.6406 21.875 58.2969
Q18.8906 51.5625 17.1875 44.2344
Q15.0938 35.1094 15.0938 25.875
Q15.0938 2.39062 29.6875 -21.0469
z
" id="ArialMT-28"/>
      <path d="
M6.59375 0
L6.59375 51.8594
L14.5 51.8594
L14.5 44.4844
Q20.2188 53.0312 31 53.0312
Q35.6875 53.0312 39.625 51.3438
Q43.5625 49.6562 45.5156 46.9219
Q47.4688 44.1875 48.25 40.4375
Q48.7344 37.9844 48.7344 31.8906
L48.7344 0
L39.9375 0
L39.9375 31.5469
Q39.9375 36.9219 38.9062 39.5781
Q37.8906 42.2344 35.2812 43.8125
Q32.6719 45.4062 29.1562 45.4062
Q23.5312 45.4062 19.4531 41.8438
Q15.375 38.2812 15.375 28.3281
L15.375 0
z
" id="ArialMT-6e"/>
      <path id="ArialMT-20"/>
      <path d="
M40.2344 0
L40.2344 6.54688
Q35.2969 -1.17188 25.7344 -1.17188
Q19.5312 -1.17188 14.3281 2.25
Q9.125 5.67188 6.26562 11.7969
Q3.42188 17.9219 3.42188 25.875
Q3.42188 33.6406 6 39.9688
Q8.59375 46.2969 13.7656 49.6562
Q18.9531 53.0312 25.3438 53.0312
Q30.0312 53.0312 33.6875 51.0469
Q37.3594 49.0781 39.6562 45.9062
L39.6562 71.5781
L48.3906 71.5781
L48.3906 0
z

M12.4531 25.875
Q12.4531 15.9219 16.6406 10.9844
Q20.8438 6.0625 26.5625 6.0625
Q32.3281 6.0625 36.3438 10.7656
Q40.375 15.4844 40.375 25.1406
Q40.375 35.7969 36.2656 40.7656
Q32.1719 45.75 26.1719 45.75
Q20.3125 45.75 16.375 40.9688
Q12.4531 36.1875 12.4531 25.875" id="ArialMT-64"/>
      <path d="
M40.4375 19
L49.0781 17.875
Q47.6562 8.9375 41.8125 3.875
Q35.9844 -1.17188 27.4844 -1.17188
Q16.8438 -1.17188 10.375 5.78125
Q3.90625 12.75 3.90625 25.7344
Q3.90625 34.125 6.6875 40.4219
Q9.46875 46.7344 15.1562 49.875
Q20.8438 53.0312 27.5469 53.0312
Q35.9844 53.0312 41.3594 48.75
Q46.7344 44.4844 48.25 36.625
L39.7031 35.2969
Q38.4844 40.5312 35.375 43.1562
Q32.2812 45.7969 27.875 45.7969
Q21.2344 45.7969 17.0781 41.0312
Q12.9375 36.2812 12.9375 25.9844
Q12.9375 15.5312 16.9375 10.7969
Q20.9531 6.0625 27.3906 6.0625
Q32.5625 6.0625 36.0312 9.23438
Q39.5 12.4062 40.4375 19" id="ArialMT-63"/>
     </defs>
     <g style="fill:#262626;" transform="translate(364.503046875 394.565046875)scale(0.14300000000000002 -0.14300000000000002)">
      <use xlink:href="#ArialMT-54"/>
      <use x="57.333984375" xlink:href="#ArialMT-69"/>
      <use x="79.55078125" xlink:href="#ArialMT-6d"/>
      <use x="162.8515625" xlink:href="#ArialMT-65"/>
      <use x="218.466796875" xlink:href="#ArialMT-20"/>
      <use x="246.25" xlink:href="#ArialMT-28"/>
      <use x="279.55078125" xlink:href="#ArialMT-73"/>
      <use x="329.55078125" xlink:href="#ArialMT-65"/>
      <use x="385.166015625" xlink:href="#ArialMT-63"/>
      <use x="435.166015625" xlink:href="#ArialMT-6f"/>
      <use x="490.78125" xlink:href="#ArialMT-6e"/>
      <use x="546.396484375" xlink:href="#ArialMT-64"/>
      <use x="602.01171875" xlink:href="#ArialMT-29"/>
     </g>
    </g>
   </g>
   <g id="matplotlib.axis_2">
    <g id="ytick_1">
     <g id="line2d_17">
      <g>
       <use style="fill:#262626;stroke:#262626;stroke-width:1.3;" x="46.96646875" xlink:href="#m56cc5124a0" y="347.0061875"/>
      </g>
     </g>
     <g id="line2d_18">
      <g>
       <use style="fill:#262626;stroke:#262626;stroke-width:1.3;" x="772.36646875" xlink:href="#m56cc5124a0" y="347.0061875"/>
      </g>
     </g>
     <g id="text_10">
      <!--  0 -->
      <g style="fill:#262626;" transform="translate(27.64725 350.366890625)scale(0.13 -0.13)">
       <use xlink:href="#ArialMT-20"/>
       <use x="27.783203125" xlink:href="#ArialMT-30"/>
      </g>
     </g>
    </g>
    <g id="ytick_2">
     <g id="line2d_19">
      <g>
       <use style="fill:#262626;stroke:#262626;stroke-width:1.3;" x="46.96646875" xlink:href="#m56cc5124a0" y="319.1061875"/>
      </g>
     </g>
     <g id="line2d_20">
      <g>
       <use style="fill:#262626;stroke:#262626;stroke-width:1.3;" x="772.36646875" xlink:href="#m56cc5124a0" y="319.1061875"/>
      </g>
     </g>
     <g id="text_11">
      <!--  1 -->
      <g style="fill:#262626;" transform="translate(29.41240625 322.466890625)scale(0.13 -0.13)">
       <use xlink:href="#ArialMT-20"/>
       <use x="27.783203125" xlink:href="#ArialMT-31"/>
      </g>
     </g>
    </g>
    <g id="ytick_3">
     <g id="line2d_21">
      <g>
       <use style="fill:#262626;stroke:#262626;stroke-width:1.3;" x="46.96646875" xlink:href="#m56cc5124a0" y="291.2061875"/>
      </g>
     </g>
     <g id="line2d_22">
      <g>
       <use style="fill:#262626;stroke:#262626;stroke-width:1.3;" x="772.36646875" xlink:href="#m56cc5124a0" y="291.2061875"/>
      </g>
     </g>
     <g id="text_12">
      <!--  2 -->
      <g style="fill:#262626;" transform="translate(27.71021875 294.566890625)scale(0.13 -0.13)">
       <use xlink:href="#ArialMT-20"/>
       <use x="27.783203125" xlink:href="#ArialMT-32"/>
      </g>
     </g>
    </g>
    <g id="ytick_4">
     <g id="line2d_23">
      <g>
       <use style="fill:#262626;stroke:#262626;stroke-width:1.3;" x="46.96646875" xlink:href="#m56cc5124a0" y="263.3061875"/>
      </g>
     </g>
     <g id="line2d_24">
      <g>
       <use style="fill:#262626;stroke:#262626;stroke-width:1.3;" x="772.36646875" xlink:href="#m56cc5124a0" y="263.3061875"/>
      </g>
     </g>
     <g id="text_13">
      <!--  3 -->
      <defs>
       <path d="
M4.20312 18.8906
L12.9844 20.0625
Q14.5 12.5938 18.1406 9.29688
Q21.7812 6 27 6
Q33.2031 6 37.4688 10.2969
Q41.75 14.5938 41.75 20.9531
Q41.75 27 37.7969 30.9219
Q33.8438 34.8594 27.7344 34.8594
Q25.25 34.8594 21.5312 33.8906
L22.5156 41.6094
Q23.3906 41.5 23.9219 41.5
Q29.5469 41.5 34.0312 44.4219
Q38.5312 47.3594 38.5312 53.4688
Q38.5312 58.2969 35.25 61.4688
Q31.9844 64.6562 26.8125 64.6562
Q21.6875 64.6562 18.2656 61.4219
Q14.8438 58.2031 13.875 51.7656
L5.07812 53.3281
Q6.6875 62.1562 12.3906 67.0156
Q18.1094 71.875 26.6094 71.875
Q32.4688 71.875 37.3906 69.3594
Q42.3281 66.8438 44.9375 62.5
Q47.5625 58.1562 47.5625 53.2656
Q47.5625 48.6406 45.0625 44.8281
Q42.5781 41.0156 37.7031 38.7656
Q44.0469 37.3125 47.5625 32.6875
Q51.0781 28.0781 51.0781 21.1406
Q51.0781 11.7656 44.2344 5.25
Q37.4062 -1.26562 26.9531 -1.26562
Q17.5312 -1.26562 11.2969 4.34375
Q5.07812 9.96875 4.20312 18.8906" id="ArialMT-33"/>
      </defs>
      <g style="fill:#262626;" transform="translate(27.61475 266.666890625)scale(0.13 -0.13)">
       <use xlink:href="#ArialMT-20"/>
       <use x="27.783203125" xlink:href="#ArialMT-33"/>
      </g>
     </g>
    </g>
    <g id="ytick_5">
     <g id="line2d_25">
      <g>
       <use style="fill:#262626;stroke:#262626;stroke-width:1.3;" x="46.96646875" xlink:href="#m56cc5124a0" y="235.4061875"/>
      </g>
     </g>
     <g id="line2d_26">
      <g>
       <use style="fill:#262626;stroke:#262626;stroke-width:1.3;" x="772.36646875" xlink:href="#m56cc5124a0" y="235.4061875"/>
      </g>
     </g>
     <g id="text_14">
      <!--  4 -->
      <g style="fill:#262626;" transform="translate(27.65334375 238.766890625)scale(0.13 -0.13)">
       <use xlink:href="#ArialMT-20"/>
       <use x="27.783203125" xlink:href="#ArialMT-34"/>
      </g>
     </g>
    </g>
    <g id="ytick_6">
     <g id="line2d_27">
      <g>
       <use style="fill:#262626;stroke:#262626;stroke-width:1.3;" x="46.96646875" xlink:href="#m56cc5124a0" y="207.5061875"/>
      </g>
     </g>
     <g id="line2d_28">
      <g>
       <use style="fill:#262626;stroke:#262626;stroke-width:1.3;" x="772.36646875" xlink:href="#m56cc5124a0" y="207.5061875"/>
      </g>
     </g>
     <g id="text_15">
      <!--  5 -->
      <defs>
       <path d="
M4.15625 18.75
L13.375 19.5312
Q14.4062 12.7969 18.1406 9.39062
Q21.875 6 27.1562 6
Q33.5 6 37.8906 10.7812
Q42.2812 15.5781 42.2812 23.4844
Q42.2812 31 38.0625 35.3438
Q33.8438 39.7031 27 39.7031
Q22.75 39.7031 19.3281 37.7656
Q15.9219 35.8438 13.9688 32.7656
L5.71875 33.8438
L12.6406 70.6094
L48.25 70.6094
L48.25 62.2031
L19.6719 62.2031
L15.8281 42.9688
Q22.2656 47.4688 29.3438 47.4688
Q38.7188 47.4688 45.1562 40.9688
Q51.6094 34.4688 51.6094 24.2656
Q51.6094 14.5469 45.9531 7.46875
Q39.0625 -1.21875 27.1562 -1.21875
Q17.3906 -1.21875 11.2031 4.25
Q5.03125 9.71875 4.15625 18.75" id="ArialMT-35"/>
      </defs>
      <g style="fill:#262626;" transform="translate(27.5456875 210.866890625)scale(0.13 -0.13)">
       <use xlink:href="#ArialMT-20"/>
       <use x="27.783203125" xlink:href="#ArialMT-35"/>
      </g>
     </g>
    </g>
    <g id="ytick_7">
     <g id="line2d_29">
      <g>
       <use style="fill:#262626;stroke:#262626;stroke-width:1.3;" x="46.96646875" xlink:href="#m56cc5124a0" y="179.6061875"/>
      </g>
     </g>
     <g id="line2d_30">
      <g>
       <use style="fill:#262626;stroke:#262626;stroke-width:1.3;" x="772.36646875" xlink:href="#m56cc5124a0" y="179.6061875"/>
      </g>
     </g>
     <g id="text_16">
      <!--  6 -->
      <g style="fill:#262626;" transform="translate(27.62084375 182.966890625)scale(0.13 -0.13)">
       <use xlink:href="#ArialMT-20"/>
       <use x="27.783203125" xlink:href="#ArialMT-36"/>
      </g>
     </g>
    </g>
    <g id="ytick_8">
     <g id="line2d_31">
      <g>
       <use style="fill:#262626;stroke:#262626;stroke-width:1.3;" x="46.96646875" xlink:href="#m56cc5124a0" y="151.7061875"/>
      </g>
     </g>
     <g id="line2d_32">
      <g>
       <use style="fill:#262626;stroke:#262626;stroke-width:1.3;" x="772.36646875" xlink:href="#m56cc5124a0" y="151.7061875"/>
      </g>
     </g>
     <g id="text_17">
      <!--  7 -->
      <defs>
       <path d="
M4.73438 62.2031
L4.73438 70.6562
L51.0781 70.6562
L51.0781 63.8125
Q44.2344 56.5469 37.5156 44.4844
Q30.8125 32.4219 27.1562 19.6719
Q24.5156 10.6875 23.7812 0
L14.75 0
Q14.8906 8.45312 18.0625 20.4062
Q21.2344 32.375 27.1719 43.4844
Q33.1094 54.5938 39.7969 62.2031
z
" id="ArialMT-37"/>
      </defs>
      <g style="fill:#262626;" transform="translate(27.61475 155.066890625)scale(0.13 -0.13)">
       <use xlink:href="#ArialMT-20"/>
       <use x="27.783203125" xlink:href="#ArialMT-37"/>
      </g>
     </g>
    </g>
    <g id="ytick_9">
     <g id="line2d_33">
      <g>
       <use style="fill:#262626;stroke:#262626;stroke-width:1.3;" x="46.96646875" xlink:href="#m56cc5124a0" y="123.8061875"/>
      </g>
     </g>
     <g id="line2d_34">
      <g>
       <use style="fill:#262626;stroke:#262626;stroke-width:1.3;" x="772.36646875" xlink:href="#m56cc5124a0" y="123.8061875"/>
      </g>
     </g>
     <g id="text_18">
      <!--  8 -->
      <g style="fill:#262626;" transform="translate(27.59646875 127.166890625)scale(0.13 -0.13)">
       <use xlink:href="#ArialMT-20"/>
       <use x="27.783203125" xlink:href="#ArialMT-38"/>
      </g>
     </g>
    </g>
    <g id="ytick_10">
     <g id="line2d_35">
      <g>
       <use style="fill:#262626;stroke:#262626;stroke-width:1.3;" x="46.96646875" xlink:href="#m56cc5124a0" y="95.9061875"/>
      </g>
     </g>
     <g id="line2d_36">
      <g>
       <use style="fill:#262626;stroke:#262626;stroke-width:1.3;" x="772.36646875" xlink:href="#m56cc5124a0" y="95.9061875"/>
      </g>
     </g>
     <g id="text_19">
      <!--  9 -->
      <defs>
       <path d="
M5.46875 16.5469
L13.9219 17.3281
Q14.9844 11.375 18.0156 8.6875
Q21.0469 6 25.7812 6
Q29.8281 6 32.875 7.85938
Q35.9375 9.71875 37.8906 12.8125
Q39.8438 15.9219 41.1562 21.1875
Q42.4844 26.4688 42.4844 31.9375
Q42.4844 32.5156 42.4375 33.6875
Q39.7969 29.5 35.2344 26.875
Q30.6719 24.2656 25.3438 24.2656
Q16.4531 24.2656 10.2969 30.7031
Q4.15625 37.1562 4.15625 47.7031
Q4.15625 58.5938 10.5781 65.2344
Q17 71.875 26.6562 71.875
Q33.6406 71.875 39.4219 68.1094
Q45.2188 64.3594 48.2188 57.3906
Q51.2188 50.4375 51.2188 37.25
Q51.2188 23.5312 48.2344 15.4062
Q45.2656 7.28125 39.375 3.03125
Q33.5 -1.21875 25.5938 -1.21875
Q17.1875 -1.21875 11.8594 3.4375
Q6.54688 8.10938 5.46875 16.5469
M41.4531 48.1406
Q41.4531 55.7188 37.4219 60.1562
Q33.4062 64.5938 27.7344 64.5938
Q21.875 64.5938 17.5312 59.8125
Q13.1875 55.0312 13.1875 47.4062
Q13.1875 40.5781 17.3125 36.2969
Q21.4375 32.0312 27.4844 32.0312
Q33.5938 32.0312 37.5156 36.2969
Q41.4531 40.5781 41.4531 48.1406" id="ArialMT-39"/>
      </defs>
      <g style="fill:#262626;" transform="translate(27.59646875 99.266890625)scale(0.13 -0.13)">
       <use xlink:href="#ArialMT-20"/>
       <use x="27.783203125" xlink:href="#ArialMT-39"/>
      </g>
     </g>
    </g>
    <g id="ytick_11">
     <g id="line2d_37">
      <g>
       <use style="fill:#262626;stroke:#262626;stroke-width:1.3;" x="46.96646875" xlink:href="#m56cc5124a0" y="68.0061875"/>
      </g>
     </g>
     <g id="line2d_38">
      <g>
       <use style="fill:#262626;stroke:#262626;stroke-width:1.3;" x="772.36646875" xlink:href="#m56cc5124a0" y="68.0061875"/>
      </g>
     </g>
     <g id="text_20">
      <!-- 10 -->
      <g style="fill:#262626;" transform="translate(25.445375 71.366890625)scale(0.13 -0.13)">
       <use xlink:href="#ArialMT-31"/>
       <use x="55.615234375" xlink:href="#ArialMT-30"/>
      </g>
     </g>
    </g>
    <g id="ytick_12">
     <g id="line2d_39">
      <g>
       <use style="fill:#262626;stroke:#262626;stroke-width:1.3;" x="46.96646875" xlink:href="#m56cc5124a0" y="40.1061875"/>
      </g>
     </g>
     <g id="line2d_40">
      <g>
       <use style="fill:#262626;stroke:#262626;stroke-width:1.3;" x="772.36646875" xlink:href="#m56cc5124a0" y="40.1061875"/>
      </g>
     </g>
     <g id="text_21">
      <!-- 11 -->
      <g style="fill:#262626;" transform="translate(28.16928125 43.466890625)scale(0.13 -0.13)">
       <use xlink:href="#ArialMT-31"/>
       <use x="48.240234375" xlink:href="#ArialMT-31"/>
      </g>
     </g>
    </g>
    <g id="text_22">
     <!-- Engine -->
     <defs>
      <path d="
M7.90625 0
L7.90625 71.5781
L59.6719 71.5781
L59.6719 63.1406
L17.3906 63.1406
L17.3906 41.2188
L56.9844 41.2188
L56.9844 32.8125
L17.3906 32.8125
L17.3906 8.45312
L61.3281 8.45312
L61.3281 0
z
" id="ArialMT-45"/>
      <path d="
M4.98438 -4.29688
L13.5312 -5.5625
Q14.0625 -9.51562 16.5 -11.3281
Q19.7812 -13.7656 25.4375 -13.7656
Q31.5469 -13.7656 34.8594 -11.3281
Q38.1875 -8.89062 39.3594 -4.5
Q40.0469 -1.8125 39.9844 6.78125
Q34.2344 0 25.6406 0
Q14.9375 0 9.07812 7.71875
Q3.21875 15.4375 3.21875 26.2188
Q3.21875 33.6406 5.90625 39.9062
Q8.59375 46.1875 13.6875 49.6094
Q18.7969 53.0312 25.6875 53.0312
Q34.8594 53.0312 40.8281 45.6094
L40.8281 51.8594
L48.9219 51.8594
L48.9219 7.03125
Q48.9219 -5.07812 46.4531 -10.125
Q44 -15.1875 38.6406 -18.1094
Q33.2969 -21.0469 25.4844 -21.0469
Q16.2188 -21.0469 10.5 -16.875
Q4.78125 -12.7031 4.98438 -4.29688
M12.25 26.8594
Q12.25 16.6562 16.2969 11.9688
Q20.3594 7.28125 26.4688 7.28125
Q32.5156 7.28125 36.6094 11.9375
Q40.7188 16.6094 40.7188 26.5625
Q40.7188 36.0781 36.5 40.9062
Q32.2812 45.75 26.3125 45.75
Q20.4531 45.75 16.3438 40.9844
Q12.25 36.2344 12.25 26.8594" id="ArialMT-67"/>
     </defs>
     <g style="fill:#262626;" transform="translate(17.435671875 212.16703125)rotate(-90.0)scale(0.14300000000000002 -0.14300000000000002)">
      <use xlink:href="#ArialMT-45"/>
      <use x="66.69921875" xlink:href="#ArialMT-6e"/>
      <use x="122.314453125" xlink:href="#ArialMT-67"/>
      <use x="177.9296875" xlink:href="#ArialMT-69"/>
      <use x="200.146484375" xlink:href="#ArialMT-6e"/>
      <use x="255.76171875" xlink:href="#ArialMT-65"/>
     </g>
    </g>
   </g>
   <g id="patch_3">
    <path clip-path="url(#pf437ad0e36)" d="
M46.9665 358.166
L98.8983 358.166
L98.8983 335.846
L46.9665 335.846
z
" style="fill:#7973ae;stroke:#000000;stroke-linejoin:miter;stroke-width:0.39;"/>
   </g>
   <g id="patch_4">
    <path clip-path="url(#pf437ad0e36)" d="
M98.899 358.166
L150.928 358.166
L150.928 335.846
L98.899 335.846
z
" style="fill:#917ab8;stroke:#000000;stroke-linejoin:miter;stroke-width:0.39;"/>
   </g>
   <g id="patch_5">
    <path clip-path="url(#pf437ad0e36)" d="
M150.929 358.166
L202.957 358.166
L202.957 335.846
L150.929 335.846
z
" style="fill:#a781bd;stroke:#000000;stroke-linejoin:miter;stroke-width:0.39;"/>
   </g>
   <g id="patch_6">
    <path clip-path="url(#pf437ad0e36)" d="
M202.958 358.166
L254.958 358.166
L254.958 335.846
L202.958 335.846
z
" style="fill:#ba8abf;stroke:#000000;stroke-linejoin:miter;stroke-width:0.39;"/>
   </g>
   <g id="patch_7">
    <path clip-path="url(#pf437ad0e36)" d="
M254.959 358.166
L306.859 358.166
L306.859 335.846
L254.959 335.846
z
" style="fill:#c993bf;stroke:#000000;stroke-linejoin:miter;stroke-width:0.39;"/>
   </g>
   <g id="patch_8">
    <path clip-path="url(#pf437ad0e36)" d="
M306.86 358.166
L358.925 358.166
L358.925 335.846
L306.86 335.846
z
" style="fill:#d69dbe;stroke:#000000;stroke-linejoin:miter;stroke-width:0.39;"/>
   </g>
   <g id="patch_9">
    <path clip-path="url(#pf437ad0e36)" d="
M358.926 358.166
L410.949 358.166
L410.949 335.846
L358.926 335.846
z
" style="fill:#dfaabd;stroke:#000000;stroke-linejoin:miter;stroke-width:0.39;"/>
   </g>
   <g id="patch_10">
    <path clip-path="url(#pf437ad0e36)" d="
M410.949 358.166
L463.012 358.166
L463.012 335.846
L410.949 335.846
z
" style="fill:#e5b7bd;stroke:#000000;stroke-linejoin:miter;stroke-width:0.39;"/>
   </g>
   <g id="patch_11">
    <path clip-path="url(#pf437ad0e36)" d="
M463.013 358.166
L514.991 358.166
L514.991 335.846
L463.013 335.846
z
" style="fill:#e8c4c0;stroke:#000000;stroke-linejoin:miter;stroke-width:0.39;"/>
   </g>
   <g id="patch_12">
    <path clip-path="url(#pf437ad0e36)" d="
M514.993 358.166
L567.053 358.166
L567.053 335.846
L514.993 335.846
z
" style="fill:#ead1c5;stroke:#000000;stroke-linejoin:miter;stroke-width:0.39;"/>
   </g>
   <g id="patch_13">
    <path clip-path="url(#pf437ad0e36)" d="
M567.055 358.166
L618.926 358.166
L618.926 335.846
L567.055 335.846
z
" style="fill:#ebdccd;stroke:#000000;stroke-linejoin:miter;stroke-width:0.39;"/>
   </g>
   <g id="patch_14">
    <path clip-path="url(#pf437ad0e36)" d="
M618.927 358.166
L670.754 358.166
L670.754 335.846
L618.927 335.846
z
" style="fill:#eee7d8;stroke:#000000;stroke-linejoin:miter;stroke-width:0.39;"/>
   </g>
   <g id="patch_15">
    <path clip-path="url(#pf437ad0e36)" d="
M670.756 358.166
L681.339 358.166
L681.339 335.846
L670.756 335.846
z
" style="fill:#f1f1e4;stroke:#000000;stroke-linejoin:miter;stroke-width:0.39;"/>
   </g>
   <g id="patch_16">
    <path clip-path="url(#pf437ad0e36)" d="
M46.9981 330.266
L57.5695 330.266
L57.5695 307.946
L46.9981 307.946
z
" style="fill:#7973ae;stroke:#000000;stroke-linejoin:miter;stroke-width:0.39;"/>
   </g>
   <g id="patch_17">
    <path clip-path="url(#pf437ad0e36)" d="
M57.5703 330.266
L68.144 330.266
L68.144 307.946
L57.5703 307.946
z
" style="fill:#917ab8;stroke:#000000;stroke-linejoin:miter;stroke-width:0.39;"/>
   </g>
   <g id="patch_18">
    <path clip-path="url(#pf437ad0e36)" d="
M68.1448 330.266
L78.6673 330.266
L78.6673 307.946
L68.1448 307.946
z
" style="fill:#a781bd;stroke:#000000;stroke-linejoin:miter;stroke-width:0.39;"/>
   </g>
   <g id="patch_19">
    <path clip-path="url(#pf437ad0e36)" d="
M78.668 330.266
L89.1469 330.266
L89.1469 307.946
L78.668 307.946
z
" style="fill:#ba8abf;stroke:#000000;stroke-linejoin:miter;stroke-width:0.39;"/>
   </g>
   <g id="patch_20">
    <path clip-path="url(#pf437ad0e36)" d="
M89.1475 330.266
L99.6737 330.266
L99.6737 307.946
L89.1475 307.946
z
" style="fill:#c993bf;stroke:#000000;stroke-linejoin:miter;stroke-width:0.39;"/>
   </g>
   <g id="patch_21">
    <path clip-path="url(#pf437ad0e36)" d="
M99.6744 330.266
L110.205 330.266
L110.205 307.946
L99.6744 307.946
z
" style="fill:#d69dbe;stroke:#000000;stroke-linejoin:miter;stroke-width:0.39;"/>
   </g>
   <g id="patch_22">
    <path clip-path="url(#pf437ad0e36)" d="
M110.205 330.266
L120.789 330.266
L120.789 307.946
L110.205 307.946
z
" style="fill:#dfaabd;stroke:#000000;stroke-linejoin:miter;stroke-width:0.39;"/>
   </g>
   <g id="patch_23">
    <path clip-path="url(#pf437ad0e36)" d="
M120.79 330.266
L131.193 330.266
L131.193 307.946
L120.79 307.946
z
" style="fill:#e5b7bd;stroke:#000000;stroke-linejoin:miter;stroke-width:0.39;"/>
   </g>
   <g id="patch_24">
    <path clip-path="url(#pf437ad0e36)" d="
M131.194 330.266
L141.788 330.266
L141.788 307.946
L131.194 307.946
z
" style="fill:#e8c4c0;stroke:#000000;stroke-linejoin:miter;stroke-width:0.39;"/>
   </g>
   <g id="patch_25">
    <path clip-path="url(#pf437ad0e36)" d="
M141.789 330.266
L152.327 330.266
L152.327 307.946
L141.789 307.946
z
" style="fill:#ead1c5;stroke:#000000;stroke-linejoin:miter;stroke-width:0.39;"/>
   </g>
   <g id="patch_26">
    <path clip-path="url(#pf437ad0e36)" d="
M152.327 330.266
L162.836 330.266
L162.836 307.946
L152.327 307.946
z
" style="fill:#ebdccd;stroke:#000000;stroke-linejoin:miter;stroke-width:0.39;"/>
   </g>
   <g id="patch_27">
    <path clip-path="url(#pf437ad0e36)" d="
M162.837 330.266
L173.283 330.266
L173.283 307.946
L162.837 307.946
z
" style="fill:#eee7d8;stroke:#000000;stroke-linejoin:miter;stroke-width:0.39;"/>
   </g>
   <g id="patch_28">
    <path clip-path="url(#pf437ad0e36)" d="
M173.284 330.266
L183.885 330.266
L183.885 307.946
L173.284 307.946
z
" style="fill:#f1f1e4;stroke:#000000;stroke-linejoin:miter;stroke-width:0.39;"/>
   </g>
   <g id="patch_29">
    <path clip-path="url(#pf437ad0e36)" d="
M47.0491 302.366
L57.5689 302.366
L57.5689 280.046
L47.0491 280.046
z
" style="fill:#7973ae;stroke:#000000;stroke-linejoin:miter;stroke-width:0.39;"/>
   </g>
   <g id="patch_30">
    <path clip-path="url(#pf437ad0e36)" d="
M57.5697 302.366
L68.1438 302.366
L68.1438 280.046
L57.5697 280.046
z
" style="fill:#917ab8;stroke:#000000;stroke-linejoin:miter;stroke-width:0.39;"/>
   </g>
   <g id="patch_31">
    <path clip-path="url(#pf437ad0e36)" d="
M68.1447 302.366
L78.6669 302.366
L78.6669 280.046
L68.1447 280.046
z
" style="fill:#a781bd;stroke:#000000;stroke-linejoin:miter;stroke-width:0.39;"/>
   </g>
   <g id="patch_32">
    <path clip-path="url(#pf437ad0e36)" d="
M78.6676 302.366
L89.1468 302.366
L89.1468 280.046
L78.6676 280.046
z
" style="fill:#ba8abf;stroke:#000000;stroke-linejoin:miter;stroke-width:0.39;"/>
   </g>
   <g id="patch_33">
    <path clip-path="url(#pf437ad0e36)" d="
M89.1474 302.366
L99.6728 302.366
L99.6728 280.046
L89.1474 280.046
z
" style="fill:#c993bf;stroke:#000000;stroke-linejoin:miter;stroke-width:0.39;"/>
   </g>
   <g id="patch_34">
    <path clip-path="url(#pf437ad0e36)" d="
M99.6735 302.366
L110.202 302.366
L110.202 280.046
L99.6735 280.046
z
" style="fill:#d69dbe;stroke:#000000;stroke-linejoin:miter;stroke-width:0.39;"/>
   </g>
   <g id="patch_35">
    <path clip-path="url(#pf437ad0e36)" d="
M110.204 302.366
L120.788 302.366
L120.788 280.046
L110.204 280.046
z
" style="fill:#dfaabd;stroke:#000000;stroke-linejoin:miter;stroke-width:0.39;"/>
   </g>
   <g id="patch_36">
    <path clip-path="url(#pf437ad0e36)" d="
M120.789 302.366
L131.193 302.366
L131.193 280.046
L120.789 280.046
z
" style="fill:#e5b7bd;stroke:#000000;stroke-linejoin:miter;stroke-width:0.39;"/>
   </g>
   <g id="patch_37">
    <path clip-path="url(#pf437ad0e36)" d="
M131.193 302.366
L141.787 302.366
L141.787 280.046
L131.193 280.046
z
" style="fill:#e8c4c0;stroke:#000000;stroke-linejoin:miter;stroke-width:0.39;"/>
   </g>
   <g id="patch_38">
    <path clip-path="url(#pf437ad0e36)" d="
M141.788 302.366
L152.326 302.366
L152.326 280.046
L141.788 280.046
z
" style="fill:#ead1c5;stroke:#000000;stroke-linejoin:miter;stroke-width:0.39;"/>
   </g>
   <g id="patch_39">
    <path clip-path="url(#pf437ad0e36)" d="
M152.327 302.366
L162.837 302.366
L162.837 280.046
L152.327 280.046
z
" style="fill:#ebdccd;stroke:#000000;stroke-linejoin:miter;stroke-width:0.39;"/>
   </g>
   <g id="patch_40">
    <path clip-path="url(#pf437ad0e36)" d="
M162.837 302.366
L173.284 302.366
L173.284 280.046
L162.837 280.046
z
" style="fill:#eee7d8;stroke:#000000;stroke-linejoin:miter;stroke-width:0.39;"/>
   </g>
   <g id="patch_41">
    <path clip-path="url(#pf437ad0e36)" d="
M47.0928 274.466
L57.5689 274.466
L57.5689 252.146
L47.0928 252.146
z
" style="fill:#7973ae;stroke:#000000;stroke-linejoin:miter;stroke-width:0.39;"/>
   </g>
   <g id="patch_42">
    <path clip-path="url(#pf437ad0e36)" d="
M57.5697 274.466
L68.1435 274.466
L68.1435 252.146
L57.5697 252.146
z
" style="fill:#917ab8;stroke:#000000;stroke-linejoin:miter;stroke-width:0.39;"/>
   </g>
   <g id="patch_43">
    <path clip-path="url(#pf437ad0e36)" d="
M68.145 274.466
L78.6671 274.466
L78.6671 252.146
L68.145 252.146
z
" style="fill:#a781bd;stroke:#000000;stroke-linejoin:miter;stroke-width:0.39;"/>
   </g>
   <g id="patch_44">
    <path clip-path="url(#pf437ad0e36)" d="
M78.6678 274.466
L89.1466 274.466
L89.1466 252.146
L78.6678 252.146
z
" style="fill:#ba8abf;stroke:#000000;stroke-linejoin:miter;stroke-width:0.39;"/>
   </g>
   <g id="patch_45">
    <path clip-path="url(#pf437ad0e36)" d="
M89.1472 274.466
L99.6727 274.466
L99.6727 252.146
L89.1472 252.146
z
" style="fill:#c993bf;stroke:#000000;stroke-linejoin:miter;stroke-width:0.39;"/>
   </g>
   <g id="patch_46">
    <path clip-path="url(#pf437ad0e36)" d="
M99.674 274.466
L110.204 274.466
L110.204 252.146
L99.674 252.146
z
" style="fill:#d69dbe;stroke:#000000;stroke-linejoin:miter;stroke-width:0.39;"/>
   </g>
   <g id="patch_47">
    <path clip-path="url(#pf437ad0e36)" d="
M110.205 274.466
L120.789 274.466
L120.789 252.146
L110.205 252.146
z
" style="fill:#dfaabd;stroke:#000000;stroke-linejoin:miter;stroke-width:0.39;"/>
   </g>
   <g id="patch_48">
    <path clip-path="url(#pf437ad0e36)" d="
M120.789 274.466
L131.193 274.466
L131.193 252.146
L120.789 252.146
z
" style="fill:#e5b7bd;stroke:#000000;stroke-linejoin:miter;stroke-width:0.39;"/>
   </g>
   <g id="patch_49">
    <path clip-path="url(#pf437ad0e36)" d="
M131.193 274.466
L141.787 274.466
L141.787 252.146
L131.193 252.146
z
" style="fill:#e8c4c0;stroke:#000000;stroke-linejoin:miter;stroke-width:0.39;"/>
   </g>
   <g id="patch_50">
    <path clip-path="url(#pf437ad0e36)" d="
M141.788 274.466
L152.326 274.466
L152.326 252.146
L141.788 252.146
z
" style="fill:#ead1c5;stroke:#000000;stroke-linejoin:miter;stroke-width:0.39;"/>
   </g>
   <g id="patch_51">
    <path clip-path="url(#pf437ad0e36)" d="
M152.326 274.466
L162.836 274.466
L162.836 252.146
L152.326 252.146
z
" style="fill:#ebdccd;stroke:#000000;stroke-linejoin:miter;stroke-width:0.39;"/>
   </g>
   <g id="patch_52">
    <path clip-path="url(#pf437ad0e36)" d="
M162.837 274.466
L173.283 274.466
L173.283 252.146
L162.837 252.146
z
" style="fill:#eee7d8;stroke:#000000;stroke-linejoin:miter;stroke-width:0.39;"/>
   </g>
   <g id="patch_53">
    <path clip-path="url(#pf437ad0e36)" d="
M47.155 246.566
L57.5692 246.566
L57.5692 224.246
L47.155 224.246
z
" style="fill:#7973ae;stroke:#000000;stroke-linejoin:miter;stroke-width:0.39;"/>
   </g>
   <g id="patch_54">
    <path clip-path="url(#pf437ad0e36)" d="
M57.57 246.566
L68.144 246.566
L68.144 224.246
L57.57 224.246
z
" style="fill:#917ab8;stroke:#000000;stroke-linejoin:miter;stroke-width:0.39;"/>
   </g>
   <g id="patch_55">
    <path clip-path="url(#pf437ad0e36)" d="
M68.1448 246.566
L78.667 246.566
L78.667 224.246
L68.1448 224.246
z
" style="fill:#a781bd;stroke:#000000;stroke-linejoin:miter;stroke-width:0.39;"/>
   </g>
   <g id="patch_56">
    <path clip-path="url(#pf437ad0e36)" d="
M78.6676 246.566
L89.1465 246.566
L89.1465 224.246
L78.6676 224.246
z
" style="fill:#ba8abf;stroke:#000000;stroke-linejoin:miter;stroke-width:0.39;"/>
   </g>
   <g id="patch_57">
    <path clip-path="url(#pf437ad0e36)" d="
M89.1472 246.566
L99.6733 246.566
L99.6733 224.246
L89.1472 224.246
z
" style="fill:#c993bf;stroke:#000000;stroke-linejoin:miter;stroke-width:0.39;"/>
   </g>
   <g id="patch_58">
    <path clip-path="url(#pf437ad0e36)" d="
M99.6742 246.566
L110.204 246.566
L110.204 224.246
L99.6742 224.246
z
" style="fill:#d69dbe;stroke:#000000;stroke-linejoin:miter;stroke-width:0.39;"/>
   </g>
   <g id="patch_59">
    <path clip-path="url(#pf437ad0e36)" d="
M110.205 246.566
L120.789 246.566
L120.789 224.246
L110.205 224.246
z
" style="fill:#dfaabd;stroke:#000000;stroke-linejoin:miter;stroke-width:0.39;"/>
   </g>
   <g id="patch_60">
    <path clip-path="url(#pf437ad0e36)" d="
M120.79 246.566
L131.193 246.566
L131.193 224.246
L120.79 224.246
z
" style="fill:#e5b7bd;stroke:#000000;stroke-linejoin:miter;stroke-width:0.39;"/>
   </g>
   <g id="patch_61">
    <path clip-path="url(#pf437ad0e36)" d="
M131.193 246.566
L141.787 246.566
L141.787 224.246
L131.193 224.246
z
" style="fill:#e8c4c0;stroke:#000000;stroke-linejoin:miter;stroke-width:0.39;"/>
   </g>
   <g id="patch_62">
    <path clip-path="url(#pf437ad0e36)" d="
M141.788 246.566
L152.325 246.566
L152.325 224.246
L141.788 224.246
z
" style="fill:#ead1c5;stroke:#000000;stroke-linejoin:miter;stroke-width:0.39;"/>
   </g>
   <g id="patch_63">
    <path clip-path="url(#pf437ad0e36)" d="
M152.326 246.566
L162.837 246.566
L162.837 224.246
L152.326 224.246
z
" style="fill:#ebdccd;stroke:#000000;stroke-linejoin:miter;stroke-width:0.39;"/>
   </g>
   <g id="patch_64">
    <path clip-path="url(#pf437ad0e36)" d="
M162.837 246.566
L173.285 246.566
L173.285 224.246
L162.837 224.246
z
" style="fill:#eee7d8;stroke:#000000;stroke-linejoin:miter;stroke-width:0.39;"/>
   </g>
   <g id="patch_65">
    <path clip-path="url(#pf437ad0e36)" d="
M47.2178 218.666
L57.7322 218.666
L57.7322 196.346
L47.2178 196.346
z
" style="fill:#7973ae;stroke:#000000;stroke-linejoin:miter;stroke-width:0.39;"/>
   </g>
   <g id="patch_66">
    <path clip-path="url(#pf437ad0e36)" d="
M57.7328 218.666
L68.2334 218.666
L68.2334 196.346
L57.7328 196.346
z
" style="fill:#917ab8;stroke:#000000;stroke-linejoin:miter;stroke-width:0.39;"/>
   </g>
   <g id="patch_67">
    <path clip-path="url(#pf437ad0e36)" d="
M68.234 218.666
L78.8556 218.666
L78.8556 196.346
L68.234 196.346
z
" style="fill:#a781bd;stroke:#000000;stroke-linejoin:miter;stroke-width:0.39;"/>
   </g>
   <g id="patch_68">
    <path clip-path="url(#pf437ad0e36)" d="
M78.8562 218.666
L89.4464 218.666
L89.4464 196.346
L78.8562 196.346
z
" style="fill:#ba8abf;stroke:#000000;stroke-linejoin:miter;stroke-width:0.39;"/>
   </g>
   <g id="patch_69">
    <path clip-path="url(#pf437ad0e36)" d="
M89.447 218.666
L100.048 218.666
L100.048 196.346
L89.447 196.346
z
" style="fill:#c993bf;stroke:#000000;stroke-linejoin:miter;stroke-width:0.39;"/>
   </g>
   <g id="patch_70">
    <path clip-path="url(#pf437ad0e36)" d="
M100.049 218.666
L110.656 218.666
L110.656 196.346
L100.049 196.346
z
" style="fill:#d69dbe;stroke:#000000;stroke-linejoin:miter;stroke-width:0.39;"/>
   </g>
   <g id="patch_71">
    <path clip-path="url(#pf437ad0e36)" d="
M110.657 218.666
L121.262 218.666
L121.262 196.346
L110.657 196.346
z
" style="fill:#dfaabd;stroke:#000000;stroke-linejoin:miter;stroke-width:0.39;"/>
   </g>
   <g id="patch_72">
    <path clip-path="url(#pf437ad0e36)" d="
M121.264 218.666
L131.888 218.666
L131.888 196.346
L121.264 196.346
z
" style="fill:#e5b7bd;stroke:#000000;stroke-linejoin:miter;stroke-width:0.39;"/>
   </g>
   <g id="patch_73">
    <path clip-path="url(#pf437ad0e36)" d="
M131.889 218.666
L142.427 218.666
L142.427 196.346
L131.889 196.346
z
" style="fill:#e8c4c0;stroke:#000000;stroke-linejoin:miter;stroke-width:0.39;"/>
   </g>
   <g id="patch_74">
    <path clip-path="url(#pf437ad0e36)" d="
M142.428 218.666
L152.8 218.666
L152.8 196.346
L142.428 196.346
z
" style="fill:#ead1c5;stroke:#000000;stroke-linejoin:miter;stroke-width:0.39;"/>
   </g>
   <g id="patch_75">
    <path clip-path="url(#pf437ad0e36)" d="
M152.801 218.666
L163.173 218.666
L163.173 196.346
L152.801 196.346
z
" style="fill:#ebdccd;stroke:#000000;stroke-linejoin:miter;stroke-width:0.39;"/>
   </g>
   <g id="patch_76">
    <path clip-path="url(#pf437ad0e36)" d="
M163.174 218.666
L173.77 218.666
L173.77 196.346
L163.174 196.346
z
" style="fill:#eee7d8;stroke:#000000;stroke-linejoin:miter;stroke-width:0.39;"/>
   </g>
   <g id="patch_77">
    <path clip-path="url(#pf437ad0e36)" d="
M47.2676 190.766
L57.8558 190.766
L57.8558 168.446
L47.2676 168.446
z
" style="fill:#7973ae;stroke:#000000;stroke-linejoin:miter;stroke-width:0.39;"/>
   </g>
   <g id="patch_78">
    <path clip-path="url(#pf437ad0e36)" d="
M57.8565 190.766
L68.4243 190.766
L68.4243 168.446
L57.8565 168.446
z
" style="fill:#917ab8;stroke:#000000;stroke-linejoin:miter;stroke-width:0.39;"/>
   </g>
   <g id="patch_79">
    <path clip-path="url(#pf437ad0e36)" d="
M68.4256 190.766
L78.9624 190.766
L78.9624 168.446
L68.4256 168.446
z
" style="fill:#a781bd;stroke:#000000;stroke-linejoin:miter;stroke-width:0.39;"/>
   </g>
   <g id="patch_80">
    <path clip-path="url(#pf437ad0e36)" d="
M78.9632 190.766
L89.4474 190.766
L89.4474 168.446
L78.9632 168.446
z
" style="fill:#ba8abf;stroke:#000000;stroke-linejoin:miter;stroke-width:0.39;"/>
   </g>
   <g id="patch_81">
    <path clip-path="url(#pf437ad0e36)" d="
M89.4481 190.766
L100.05 190.766
L100.05 168.446
L89.4481 168.446
z
" style="fill:#c993bf;stroke:#000000;stroke-linejoin:miter;stroke-width:0.39;"/>
   </g>
   <g id="patch_82">
    <path clip-path="url(#pf437ad0e36)" d="
M100.05 190.766
L110.657 190.766
L110.657 168.446
L100.05 168.446
z
" style="fill:#d69dbe;stroke:#000000;stroke-linejoin:miter;stroke-width:0.39;"/>
   </g>
   <g id="patch_83">
    <path clip-path="url(#pf437ad0e36)" d="
M110.658 190.766
L121.264 190.766
L121.264 168.446
L110.658 168.446
z
" style="fill:#dfaabd;stroke:#000000;stroke-linejoin:miter;stroke-width:0.39;"/>
   </g>
   <g id="patch_84">
    <path clip-path="url(#pf437ad0e36)" d="
M121.265 190.766
L131.889 190.766
L131.889 168.446
L121.265 168.446
z
" style="fill:#e5b7bd;stroke:#000000;stroke-linejoin:miter;stroke-width:0.39;"/>
   </g>
   <g id="patch_85">
    <path clip-path="url(#pf437ad0e36)" d="
M131.89 190.766
L142.427 190.766
L142.427 168.446
L131.89 168.446
z
" style="fill:#e8c4c0;stroke:#000000;stroke-linejoin:miter;stroke-width:0.39;"/>
   </g>
   <g id="patch_86">
    <path clip-path="url(#pf437ad0e36)" d="
M142.428 190.766
L152.8 190.766
L152.8 168.446
L142.428 168.446
z
" style="fill:#ead1c5;stroke:#000000;stroke-linejoin:miter;stroke-width:0.39;"/>
   </g>
   <g id="patch_87">
    <path clip-path="url(#pf437ad0e36)" d="
M152.801 190.766
L163.171 190.766
L163.171 168.446
L152.801 168.446
z
" style="fill:#ebdccd;stroke:#000000;stroke-linejoin:miter;stroke-width:0.39;"/>
   </g>
   <g id="patch_88">
    <path clip-path="url(#pf437ad0e36)" d="
M163.173 190.766
L173.769 190.766
L173.769 168.446
L163.173 168.446
z
" style="fill:#eee7d8;stroke:#000000;stroke-linejoin:miter;stroke-width:0.39;"/>
   </g>
   <g id="patch_89">
    <path clip-path="url(#pf437ad0e36)" d="
M47.296 162.866
L57.8564 162.866
L57.8564 140.546
L47.296 140.546
z
" style="fill:#7973ae;stroke:#000000;stroke-linejoin:miter;stroke-width:0.39;"/>
   </g>
   <g id="patch_90">
    <path clip-path="url(#pf437ad0e36)" d="
M57.8578 162.866
L68.4244 162.866
L68.4244 140.546
L57.8578 140.546
z
" style="fill:#917ab8;stroke:#000000;stroke-linejoin:miter;stroke-width:0.39;"/>
   </g>
   <g id="patch_91">
    <path clip-path="url(#pf437ad0e36)" d="
M68.425 162.866
L78.9618 162.866
L78.9618 140.546
L68.425 140.546
z
" style="fill:#a781bd;stroke:#000000;stroke-linejoin:miter;stroke-width:0.39;"/>
   </g>
   <g id="patch_92">
    <path clip-path="url(#pf437ad0e36)" d="
M78.9632 162.866
L89.4483 162.866
L89.4483 140.546
L78.9632 140.546
z
" style="fill:#ba8abf;stroke:#000000;stroke-linejoin:miter;stroke-width:0.39;"/>
   </g>
   <g id="patch_93">
    <path clip-path="url(#pf437ad0e36)" d="
M89.45 162.866
L100.051 162.866
L100.051 140.546
L89.45 140.546
z
" style="fill:#c993bf;stroke:#000000;stroke-linejoin:miter;stroke-width:0.39;"/>
   </g>
   <g id="patch_94">
    <path clip-path="url(#pf437ad0e36)" d="
M100.052 162.866
L110.657 162.866
L110.657 140.546
L100.052 140.546
z
" style="fill:#d69dbe;stroke:#000000;stroke-linejoin:miter;stroke-width:0.39;"/>
   </g>
   <g id="patch_95">
    <path clip-path="url(#pf437ad0e36)" d="
M110.658 162.866
L121.264 162.866
L121.264 140.546
L110.658 140.546
z
" style="fill:#dfaabd;stroke:#000000;stroke-linejoin:miter;stroke-width:0.39;"/>
   </g>
   <g id="patch_96">
    <path clip-path="url(#pf437ad0e36)" d="
M121.265 162.866
L131.891 162.866
L131.891 140.546
L121.265 140.546
z
" style="fill:#e5b7bd;stroke:#000000;stroke-linejoin:miter;stroke-width:0.39;"/>
   </g>
   <g id="patch_97">
    <path clip-path="url(#pf437ad0e36)" d="
M131.892 162.866
L142.427 162.866
L142.427 140.546
L131.892 140.546
z
" style="fill:#e8c4c0;stroke:#000000;stroke-linejoin:miter;stroke-width:0.39;"/>
   </g>
   <g id="patch_98">
    <path clip-path="url(#pf437ad0e36)" d="
M142.428 162.866
L152.801 162.866
L152.801 140.546
L142.428 140.546
z
" style="fill:#ead1c5;stroke:#000000;stroke-linejoin:miter;stroke-width:0.39;"/>
   </g>
   <g id="patch_99">
    <path clip-path="url(#pf437ad0e36)" d="
M152.801 162.866
L163.174 162.866
L163.174 140.546
L152.801 140.546
z
" style="fill:#ebdccd;stroke:#000000;stroke-linejoin:miter;stroke-width:0.39;"/>
   </g>
   <g id="patch_100">
    <path clip-path="url(#pf437ad0e36)" d="
M163.175 162.866
L173.77 162.866
L173.77 140.546
L163.175 140.546
z
" style="fill:#eee7d8;stroke:#000000;stroke-linejoin:miter;stroke-width:0.39;"/>
   </g>
   <g id="patch_101">
    <path clip-path="url(#pf437ad0e36)" d="
M47.3239 134.966
L57.8559 134.966
L57.8559 112.646
L47.3239 112.646
z
" style="fill:#7973ae;stroke:#000000;stroke-linejoin:miter;stroke-width:0.39;"/>
   </g>
   <g id="patch_102">
    <path clip-path="url(#pf437ad0e36)" d="
M57.8566 134.966
L68.4235 134.966
L68.4235 112.646
L57.8566 112.646
z
" style="fill:#917ab8;stroke:#000000;stroke-linejoin:miter;stroke-width:0.39;"/>
   </g>
   <g id="patch_103">
    <path clip-path="url(#pf437ad0e36)" d="
M68.4242 134.966
L78.9623 134.966
L78.9623 112.646
L68.4242 112.646
z
" style="fill:#a781bd;stroke:#000000;stroke-linejoin:miter;stroke-width:0.39;"/>
   </g>
   <g id="patch_104">
    <path clip-path="url(#pf437ad0e36)" d="
M78.963 134.966
L89.4474 134.966
L89.4474 112.646
L78.963 112.646
z
" style="fill:#ba8abf;stroke:#000000;stroke-linejoin:miter;stroke-width:0.39;"/>
   </g>
   <g id="patch_105">
    <path clip-path="url(#pf437ad0e36)" d="
M89.4481 134.966
L100.049 134.966
L100.049 112.646
L89.4481 112.646
z
" style="fill:#c993bf;stroke:#000000;stroke-linejoin:miter;stroke-width:0.39;"/>
   </g>
   <g id="patch_106">
    <path clip-path="url(#pf437ad0e36)" d="
M100.05 134.966
L110.657 134.966
L110.657 112.646
L100.05 112.646
z
" style="fill:#d69dbe;stroke:#000000;stroke-linejoin:miter;stroke-width:0.39;"/>
   </g>
   <g id="patch_107">
    <path clip-path="url(#pf437ad0e36)" d="
M110.657 134.966
L121.264 134.966
L121.264 112.646
L110.657 112.646
z
" style="fill:#dfaabd;stroke:#000000;stroke-linejoin:miter;stroke-width:0.39;"/>
   </g>
   <g id="patch_108">
    <path clip-path="url(#pf437ad0e36)" d="
M121.265 134.966
L131.891 134.966
L131.891 112.646
L121.265 112.646
z
" style="fill:#e5b7bd;stroke:#000000;stroke-linejoin:miter;stroke-width:0.39;"/>
   </g>
   <g id="patch_109">
    <path clip-path="url(#pf437ad0e36)" d="
M131.891 134.966
L142.427 134.966
L142.427 112.646
L131.891 112.646
z
" style="fill:#e8c4c0;stroke:#000000;stroke-linejoin:miter;stroke-width:0.39;"/>
   </g>
   <g id="patch_110">
    <path clip-path="url(#pf437ad0e36)" d="
M142.43 134.966
L152.801 134.966
L152.801 112.646
L142.43 112.646
z
" style="fill:#ead1c5;stroke:#000000;stroke-linejoin:miter;stroke-width:0.39;"/>
   </g>
   <g id="patch_111">
    <path clip-path="url(#pf437ad0e36)" d="
M152.803 134.966
L163.174 134.966
L163.174 112.646
L152.803 112.646
z
" style="fill:#ebdccd;stroke:#000000;stroke-linejoin:miter;stroke-width:0.39;"/>
   </g>
   <g id="patch_112">
    <path clip-path="url(#pf437ad0e36)" d="
M163.175 134.966
L173.77 134.966
L173.77 112.646
L163.175 112.646
z
" style="fill:#eee7d8;stroke:#000000;stroke-linejoin:miter;stroke-width:0.39;"/>
   </g>
   <g id="patch_113">
    <path clip-path="url(#pf437ad0e36)" d="
M47.3568 107.066
L57.8562 107.066
L57.8562 84.7462
L47.3568 84.7462
z
" style="fill:#7973ae;stroke:#000000;stroke-linejoin:miter;stroke-width:0.39;"/>
   </g>
   <g id="patch_114">
    <path clip-path="url(#pf437ad0e36)" d="
M57.8569 107.066
L68.4243 107.066
L68.4243 84.7462
L57.8569 84.7462
z
" style="fill:#917ab8;stroke:#000000;stroke-linejoin:miter;stroke-width:0.39;"/>
   </g>
   <g id="patch_115">
    <path clip-path="url(#pf437ad0e36)" d="
M68.425 107.066
L78.9621 107.066
L78.9621 84.7462
L68.425 84.7462
z
" style="fill:#a781bd;stroke:#000000;stroke-linejoin:miter;stroke-width:0.39;"/>
   </g>
   <g id="patch_116">
    <path clip-path="url(#pf437ad0e36)" d="
M78.9629 107.066
L89.4471 107.066
L89.4471 84.7462
L78.9629 84.7462
z
" style="fill:#ba8abf;stroke:#000000;stroke-linejoin:miter;stroke-width:0.39;"/>
   </g>
   <g id="patch_117">
    <path clip-path="url(#pf437ad0e36)" d="
M89.4479 107.066
L100.049 107.066
L100.049 84.7462
L89.4479 84.7462
z
" style="fill:#c993bf;stroke:#000000;stroke-linejoin:miter;stroke-width:0.39;"/>
   </g>
   <g id="patch_118">
    <path clip-path="url(#pf437ad0e36)" d="
M100.05 107.066
L110.657 107.066
L110.657 84.7462
L100.05 84.7462
z
" style="fill:#d69dbe;stroke:#000000;stroke-linejoin:miter;stroke-width:0.39;"/>
   </g>
   <g id="patch_119">
    <path clip-path="url(#pf437ad0e36)" d="
M110.657 107.066
L121.264 107.066
L121.264 84.7462
L110.657 84.7462
z
" style="fill:#dfaabd;stroke:#000000;stroke-linejoin:miter;stroke-width:0.39;"/>
   </g>
   <g id="patch_120">
    <path clip-path="url(#pf437ad0e36)" d="
M121.265 107.066
L131.891 107.066
L131.891 84.7462
L121.265 84.7462
z
" style="fill:#e5b7bd;stroke:#000000;stroke-linejoin:miter;stroke-width:0.39;"/>
   </g>
   <g id="patch_121">
    <path clip-path="url(#pf437ad0e36)" d="
M131.891 107.066
L142.427 107.066
L142.427 84.7462
L131.891 84.7462
z
" style="fill:#e8c4c0;stroke:#000000;stroke-linejoin:miter;stroke-width:0.39;"/>
   </g>
   <g id="patch_122">
    <path clip-path="url(#pf437ad0e36)" d="
M142.428 107.066
L152.801 107.066
L152.801 84.7462
L142.428 84.7462
z
" style="fill:#ead1c5;stroke:#000000;stroke-linejoin:miter;stroke-width:0.39;"/>
   </g>
   <g id="patch_123">
    <path clip-path="url(#pf437ad0e36)" d="
M152.801 107.066
L163.174 107.066
L163.174 84.7462
L152.801 84.7462
z
" style="fill:#ebdccd;stroke:#000000;stroke-linejoin:miter;stroke-width:0.39;"/>
   </g>
   <g id="patch_124">
    <path clip-path="url(#pf437ad0e36)" d="
M163.175 107.066
L173.77 107.066
L173.77 84.7462
L163.175 84.7462
z
" style="fill:#eee7d8;stroke:#000000;stroke-linejoin:miter;stroke-width:0.39;"/>
   </g>
   <g id="patch_125">
    <path clip-path="url(#pf437ad0e36)" d="
M47.3934 79.1662
L57.9878 79.1662
L57.9878 56.8462
L47.3934 56.8462
z
" style="fill:#7973ae;stroke:#000000;stroke-linejoin:miter;stroke-width:0.39;"/>
   </g>
   <g id="patch_126">
    <path clip-path="url(#pf437ad0e36)" d="
M57.9898 79.1662
L68.4245 79.1662
L68.4245 56.8462
L57.9898 56.8462
z
" style="fill:#917ab8;stroke:#000000;stroke-linejoin:miter;stroke-width:0.39;"/>
   </g>
   <g id="patch_127">
    <path clip-path="url(#pf437ad0e36)" d="
M68.4251 79.1662
L78.9621 79.1662
L78.9621 56.8462
L68.4251 56.8462
z
" style="fill:#a781bd;stroke:#000000;stroke-linejoin:miter;stroke-width:0.39;"/>
   </g>
   <g id="patch_128">
    <path clip-path="url(#pf437ad0e36)" d="
M78.9629 79.1662
L89.4471 79.1662
L89.4471 56.8462
L78.9629 56.8462
z
" style="fill:#ba8abf;stroke:#000000;stroke-linejoin:miter;stroke-width:0.39;"/>
   </g>
   <g id="patch_129">
    <path clip-path="url(#pf437ad0e36)" d="
M89.4479 79.1662
L100.049 79.1662
L100.049 56.8462
L89.4479 56.8462
z
" style="fill:#c993bf;stroke:#000000;stroke-linejoin:miter;stroke-width:0.39;"/>
   </g>
   <g id="patch_130">
    <path clip-path="url(#pf437ad0e36)" d="
M100.049 79.1662
L110.656 79.1662
L110.656 56.8462
L100.049 56.8462
z
" style="fill:#d69dbe;stroke:#000000;stroke-linejoin:miter;stroke-width:0.39;"/>
   </g>
   <g id="patch_131">
    <path clip-path="url(#pf437ad0e36)" d="
M110.657 79.1662
L121.264 79.1662
L121.264 56.8462
L110.657 56.8462
z
" style="fill:#dfaabd;stroke:#000000;stroke-linejoin:miter;stroke-width:0.39;"/>
   </g>
   <g id="patch_132">
    <path clip-path="url(#pf437ad0e36)" d="
M121.265 79.1662
L131.89 79.1662
L131.89 56.8462
L121.265 56.8462
z
" style="fill:#e5b7bd;stroke:#000000;stroke-linejoin:miter;stroke-width:0.39;"/>
   </g>
   <g id="patch_133">
    <path clip-path="url(#pf437ad0e36)" d="
M131.891 79.1662
L142.427 79.1662
L142.427 56.8462
L131.891 56.8462
z
" style="fill:#e8c4c0;stroke:#000000;stroke-linejoin:miter;stroke-width:0.39;"/>
   </g>
   <g id="patch_134">
    <path clip-path="url(#pf437ad0e36)" d="
M142.428 79.1662
L152.801 79.1662
L152.801 56.8462
L142.428 56.8462
z
" style="fill:#ead1c5;stroke:#000000;stroke-linejoin:miter;stroke-width:0.39;"/>
   </g>
   <g id="patch_135">
    <path clip-path="url(#pf437ad0e36)" d="
M152.802 79.1662
L163.174 79.1662
L163.174 56.8462
L152.802 56.8462
z
" style="fill:#ebdccd;stroke:#000000;stroke-linejoin:miter;stroke-width:0.39;"/>
   </g>
   <g id="patch_136">
    <path clip-path="url(#pf437ad0e36)" d="
M163.174 79.1662
L173.77 79.1662
L173.77 56.8462
L163.174 56.8462
z
" style="fill:#eee7d8;stroke:#000000;stroke-linejoin:miter;stroke-width:0.39;"/>
   </g>
   <g id="patch_137">
    <path clip-path="url(#pf437ad0e36)" d="
M47.4232 51.2662
L58.0205 51.2662
L58.0205 28.9462
L47.4232 28.9462
z
" style="fill:#7973ae;stroke:#000000;stroke-linejoin:miter;stroke-width:0.39;"/>
   </g>
   <g id="patch_138">
    <path clip-path="url(#pf437ad0e36)" d="
M58.0212 51.2662
L68.535 51.2662
L68.535 28.9462
L58.0212 28.9462
z
" style="fill:#917ab8;stroke:#000000;stroke-linejoin:miter;stroke-width:0.39;"/>
   </g>
   <g id="patch_139">
    <path clip-path="url(#pf437ad0e36)" d="
M68.5356 51.2662
L79.0131 51.2662
L79.0131 28.9462
L68.5356 28.9462
z
" style="fill:#a781bd;stroke:#000000;stroke-linejoin:miter;stroke-width:0.39;"/>
   </g>
   <g id="patch_140">
    <path clip-path="url(#pf437ad0e36)" d="
M79.0138 51.2662
L89.447 51.2662
L89.447 28.9462
L79.0138 28.9462
z
" style="fill:#ba8abf;stroke:#000000;stroke-linejoin:miter;stroke-width:0.39;"/>
   </g>
   <g id="patch_141">
    <path clip-path="url(#pf437ad0e36)" d="
M89.4479 51.2662
L100.05 51.2662
L100.05 28.9462
L89.4479 28.9462
z
" style="fill:#c993bf;stroke:#000000;stroke-linejoin:miter;stroke-width:0.39;"/>
   </g>
   <g id="patch_142">
    <path clip-path="url(#pf437ad0e36)" d="
M100.051 51.2662
L110.657 51.2662
L110.657 28.9462
L100.051 28.9462
z
" style="fill:#d69dbe;stroke:#000000;stroke-linejoin:miter;stroke-width:0.39;"/>
   </g>
   <g id="patch_143">
    <path clip-path="url(#pf437ad0e36)" d="
M110.658 51.2662
L121.264 51.2662
L121.264 28.9462
L110.658 28.9462
z
" style="fill:#dfaabd;stroke:#000000;stroke-linejoin:miter;stroke-width:0.39;"/>
   </g>
   <g id="patch_144">
    <path clip-path="url(#pf437ad0e36)" d="
M121.266 51.2662
L131.891 51.2662
L131.891 28.9462
L121.266 28.9462
z
" style="fill:#e5b7bd;stroke:#000000;stroke-linejoin:miter;stroke-width:0.39;"/>
   </g>
   <g id="patch_145">
    <path clip-path="url(#pf437ad0e36)" d="
M131.891 51.2662
L142.427 51.2662
L142.427 28.9462
L131.891 28.9462
z
" style="fill:#e8c4c0;stroke:#000000;stroke-linejoin:miter;stroke-width:0.39;"/>
   </g>
   <g id="patch_146">
    <path clip-path="url(#pf437ad0e36)" d="
M142.428 51.2662
L152.801 51.2662
L152.801 28.9462
L142.428 28.9462
z
" style="fill:#ead1c5;stroke:#000000;stroke-linejoin:miter;stroke-width:0.39;"/>
   </g>
   <g id="patch_147">
    <path clip-path="url(#pf437ad0e36)" d="
M152.801 51.2662
L163.175 51.2662
L163.175 28.9462
L152.801 28.9462
z
" style="fill:#ebdccd;stroke:#000000;stroke-linejoin:miter;stroke-width:0.39;"/>
   </g>
   <g id="patch_148">
    <path clip-path="url(#pf437ad0e36)" d="
M163.175 51.2662
L173.77 51.2662
L173.77 28.9462
L163.175 28.9462
z
" style="fill:#eee7d8;stroke:#000000;stroke-linejoin:miter;stroke-width:0.39;"/>
   </g>
   <g id="patch_149">
    <path d="
M46.9665 23.3662
L772.366 23.3662" style="fill:none;stroke:#262626;stroke-linecap:square;stroke-linejoin:miter;stroke-width:1.25;"/>
   </g>
   <g id="patch_150">
    <path d="
M772.366 358.166
L772.366 23.3662" style="fill:none;stroke:#262626;stroke-linecap:square;stroke-linejoin:miter;stroke-width:1.25;"/>
   </g>
   <g id="patch_151">
    <path d="
M46.9665 358.166
L46.9665 23.3662" style="fill:none;stroke:#262626;stroke-linecap:square;stroke-linejoin:miter;stroke-width:1.25;"/>
   </g>
   <g id="patch_152">
    <path d="
M46.9665 358.166
L772.366 358.166" style="fill:none;stroke:#262626;stroke-linecap:square;stroke-linejoin:miter;stroke-width:1.25;"/>
   </g>
   <g id="text_23">
    <!-- Direct view IPython parallel job timetable -->
    <defs>
     <path d="
M9.32812 0
L9.32812 71.5781
L18.7969 71.5781
L18.7969 0
z
" id="ArialMT-49"/>
     <path d="
M16.1562 0
L0.296875 51.8594
L9.375 51.8594
L17.625 21.9219
L20.7031 10.7969
Q20.9062 11.625 23.3906 21.4844
L31.6406 51.8594
L40.6719 51.8594
L48.4375 21.7812
L51.0312 11.8594
L54 21.875
L62.8906 51.8594
L71.4375 51.8594
L55.2188 0
L46.0938 0
L37.8438 31.0625
L35.8438 39.8906
L25.3438 0
z
" id="ArialMT-77"/>
     <path d="
M7.71875 0
L7.71875 71.5781
L34.7188 71.5781
Q41.8438 71.5781 45.6094 70.9062
Q50.875 70.0156 54.4375 67.5469
Q58.0156 65.0938 60.1875 60.6406
Q62.3594 56.2031 62.3594 50.875
Q62.3594 41.75 56.5469 35.4219
Q50.7344 29.1094 35.5469 29.1094
L17.1875 29.1094
L17.1875 0
z

M17.1875 37.5469
L35.6875 37.5469
Q44.875 37.5469 48.7344 40.9688
Q52.5938 44.3906 52.5938 50.5938
Q52.5938 55.0781 50.3125 58.2656
Q48.0469 61.4688 44.3438 62.5
Q41.9375 63.1406 35.5 63.1406
L17.1875 63.1406
z
" id="ArialMT-50"/>
     <path d="
M14.7031 0
L6.54688 0
L6.54688 71.5781
L15.3281 71.5781
L15.3281 46.0469
Q20.9062 53.0312 29.5469 53.0312
Q34.3281 53.0312 38.5938 51.0938
Q42.875 49.1719 45.625 45.6719
Q48.3906 42.1875 49.9531 37.25
Q51.5156 32.3281 51.5156 26.7031
Q51.5156 13.375 44.9219 6.09375
Q38.3281 -1.17188 29.1094 -1.17188
Q19.9219 -1.17188 14.7031 6.5
z

M14.5938 26.3125
Q14.5938 17 17.1406 12.8438
Q21.2969 6.0625 28.375 6.0625
Q34.125 6.0625 38.3281 11.0625
Q42.5312 16.0625 42.5312 25.9844
Q42.5312 36.1406 38.5 40.9688
Q34.4688 45.7969 28.7656 45.7969
Q23 45.7969 18.7969 40.7969
Q14.5938 35.7969 14.5938 26.3125" id="ArialMT-62"/>
     <path d="
M6.54688 61.375
L6.54688 71.5781
L15.3281 71.5781
L15.3281 61.375
z

M-4.59375 -20.125
L-2.9375 -12.6406
Q-0.296875 -13.3281 1.21875 -13.3281
Q3.90625 -13.3281 5.21875 -11.5469
Q6.54688 -9.76562 6.54688 -2.64062
L6.54688 51.8594
L15.3281 51.8594
L15.3281 -2.82812
Q15.3281 -12.4062 12.8438 -16.1562
Q9.67188 -21.0469 2.29688 -21.0469
Q-1.26562 -21.0469 -4.59375 -20.125" id="ArialMT-6a"/>
     <path d="
M6.59375 -19.875
L6.59375 51.8594
L14.5938 51.8594
L14.5938 45.125
Q17.4375 49.0781 21 51.0469
Q24.5625 53.0312 29.6406 53.0312
Q36.2812 53.0312 41.3594 49.6094
Q46.4375 46.1875 49.0156 39.9531
Q51.6094 33.7344 51.6094 26.3125
Q51.6094 18.3594 48.75 11.9844
Q45.9062 5.60938 40.4531 2.21875
Q35.0156 -1.17188 29 -1.17188
Q24.6094 -1.17188 21.1094 0.6875
Q17.625 2.54688 15.375 5.375
L15.375 -19.875
z

M14.5469 25.6406
Q14.5469 15.625 18.5938 10.8438
Q22.6562 6.0625 28.4219 6.0625
Q34.2812 6.0625 38.4531 11.0156
Q42.625 15.9688 42.625 26.375
Q42.625 36.2812 38.5469 41.2031
Q34.4688 46.1406 28.8125 46.1406
Q23.1875 46.1406 18.8594 40.8906
Q14.5469 35.6406 14.5469 25.6406" id="ArialMT-70"/>
     <path d="
M6.59375 0
L6.59375 71.5781
L15.375 71.5781
L15.375 45.9062
Q21.5312 53.0312 30.9062 53.0312
Q36.6719 53.0312 40.9219 50.75
Q45.1719 48.4844 47 44.4844
Q48.8281 40.4844 48.8281 32.8594
L48.8281 0
L40.0469 0
L40.0469 32.8594
Q40.0469 39.4531 37.1875 42.4531
Q34.3281 45.4531 29.1094 45.4531
Q25.2031 45.4531 21.75 43.4219
Q18.3125 41.4062 16.8438 37.9375
Q15.375 34.4688 15.375 28.375
L15.375 0
z
" id="ArialMT-68"/>
     <path d="
M6.5 0
L6.5 51.8594
L14.4062 51.8594
L14.4062 44
Q17.4375 49.5156 20 51.2656
Q22.5625 53.0312 25.6406 53.0312
Q30.0781 53.0312 34.6719 50.2031
L31.6406 42.0469
Q28.4219 43.9531 25.2031 43.9531
Q22.3125 43.9531 20.0156 42.2188
Q17.7188 40.4844 16.75 37.4062
Q15.2812 32.7188 15.2812 27.1562
L15.2812 0
z
" id="ArialMT-72"/>
     <path d="
M7.71875 0
L7.71875 71.5781
L32.375 71.5781
Q40.7188 71.5781 45.125 70.5625
Q51.2656 69.1406 55.6094 65.4375
Q61.2812 60.6406 64.0781 53.1875
Q66.8906 45.75 66.8906 36.1875
Q66.8906 28.0312 64.9844 21.7344
Q63.0938 15.4375 60.1094 11.2969
Q57.125 7.17188 53.5781 4.79688
Q50.0469 2.4375 45.0469 1.21875
Q40.0469 0 33.5469 0
z

M17.1875 8.45312
L32.4688 8.45312
Q39.5469 8.45312 43.5781 9.76562
Q47.6094 11.0781 50 13.4844
Q53.375 16.8438 55.25 22.5312
Q57.125 28.2188 57.125 36.3281
Q57.125 47.5625 53.4375 53.5938
Q49.75 59.625 44.4844 61.6719
Q40.6719 63.1406 32.2344 63.1406
L17.1875 63.1406
z
" id="ArialMT-44"/>
     <path d="
M21 0
L1.26562 51.8594
L10.5469 51.8594
L21.6875 20.7969
Q23.4844 15.7656 25 10.3594
Q26.1719 14.4531 28.2656 20.2188
L39.7969 51.8594
L48.8281 51.8594
L29.2031 0
z
" id="ArialMT-76"/>
     <path d="
M6.20312 -19.9688
L5.21875 -11.7188
Q8.10938 -12.5 10.25 -12.5
Q13.1875 -12.5 14.9375 -11.5156
Q16.7031 -10.5469 17.8281 -8.79688
Q18.6562 -7.46875 20.5156 -2.25
Q20.75 -1.51562 21.2969 -0.09375
L1.60938 51.8594
L11.0781 51.8594
L21.875 21.8281
Q23.9688 16.1094 25.6406 9.8125
Q27.1562 15.875 29.25 21.625
L40.3281 51.8594
L49.125 51.8594
L29.3906 -0.875
Q26.2188 -9.42188 24.4688 -12.6406
Q22.125 -17 19.0938 -19.0156
Q16.0625 -21.0469 11.8594 -21.0469
Q9.32812 -21.0469 6.20312 -19.9688" id="ArialMT-79"/>
     <path d="
M40.4375 6.39062
Q35.5469 2.25 31.0312 0.53125
Q26.5156 -1.17188 21.3438 -1.17188
Q12.7969 -1.17188 8.20312 3
Q3.60938 7.17188 3.60938 13.6719
Q3.60938 17.4844 5.34375 20.625
Q7.07812 23.7812 9.89062 25.6875
Q12.7031 27.5938 16.2188 28.5625
Q18.7969 29.25 24.0312 29.8906
Q34.6719 31.1562 39.7031 32.9062
Q39.75 34.7188 39.75 35.2031
Q39.75 40.5781 37.25 42.7812
Q33.8906 45.75 27.25 45.75
Q21.0469 45.75 18.0938 43.5781
Q15.1406 41.4062 13.7188 35.8906
L5.125 37.0625
Q6.29688 42.5781 8.98438 45.9688
Q11.6719 49.3594 16.75 51.1875
Q21.8281 53.0312 28.5156 53.0312
Q35.1562 53.0312 39.2969 51.4688
Q43.4531 49.9062 45.4062 47.5312
Q47.3594 45.1719 48.1406 41.5469
Q48.5781 39.3125 48.5781 33.4531
L48.5781 21.7344
Q48.5781 9.46875 49.1406 6.21875
Q49.7031 2.98438 51.375 0
L42.1875 0
Q40.8281 2.73438 40.4375 6.39062
M39.7031 26.0312
Q34.9062 24.0781 25.3438 22.7031
Q19.9219 21.9219 17.6719 20.9375
Q15.4375 19.9688 14.2031 18.0938
Q12.9844 16.2188 12.9844 13.9219
Q12.9844 10.4062 15.6406 8.0625
Q18.3125 5.71875 23.4375 5.71875
Q28.5156 5.71875 32.4688 7.9375
Q36.4219 10.1562 38.2812 14.0156
Q39.7031 17 39.7031 22.7969
z
" id="ArialMT-61"/>
     <path d="
M6.39062 0
L6.39062 71.5781
L15.1875 71.5781
L15.1875 0
z
" id="ArialMT-6c"/>
     <path d="
M25.7812 7.85938
L27.0469 0.09375
Q23.3438 -0.6875 20.4062 -0.6875
Q15.625 -0.6875 12.9844 0.828125
Q10.3594 2.34375 9.28125 4.8125
Q8.20312 7.28125 8.20312 15.1875
L8.20312 45.0156
L1.76562 45.0156
L1.76562 51.8594
L8.20312 51.8594
L8.20312 64.7031
L16.9375 69.9688
L16.9375 51.8594
L25.7812 51.8594
L25.7812 45.0156
L16.9375 45.0156
L16.9375 14.7031
Q16.9375 10.9375 17.4062 9.85938
Q17.875 8.79688 18.9219 8.15625
Q19.9688 7.51562 21.9219 7.51562
Q23.3906 7.51562 25.7812 7.85938" id="ArialMT-74"/>
    </defs>
    <g style="fill:#262626;" transform="translate(269.53215625 18.3661875)scale(0.15600000000000003 -0.15600000000000003)">
     <use xlink:href="#ArialMT-44"/>
     <use x="72.216796875" xlink:href="#ArialMT-69"/>
     <use x="94.43359375" xlink:href="#ArialMT-72"/>
     <use x="127.734375" xlink:href="#ArialMT-65"/>
     <use x="183.349609375" xlink:href="#ArialMT-63"/>
     <use x="233.349609375" xlink:href="#ArialMT-74"/>
     <use x="261.1328125" xlink:href="#ArialMT-20"/>
     <use x="288.916015625" xlink:href="#ArialMT-76"/>
     <use x="338.916015625" xlink:href="#ArialMT-69"/>
     <use x="361.1328125" xlink:href="#ArialMT-65"/>
     <use x="416.748046875" xlink:href="#ArialMT-77"/>
     <use x="488.96484375" xlink:href="#ArialMT-20"/>
     <use x="516.748046875" xlink:href="#ArialMT-49"/>
     <use x="544.53125" xlink:href="#ArialMT-50"/>
     <use x="611.23046875" xlink:href="#ArialMT-79"/>
     <use x="661.23046875" xlink:href="#ArialMT-74"/>
     <use x="689.013671875" xlink:href="#ArialMT-68"/>
     <use x="744.62890625" xlink:href="#ArialMT-6f"/>
     <use x="800.244140625" xlink:href="#ArialMT-6e"/>
     <use x="855.859375" xlink:href="#ArialMT-20"/>
     <use x="883.642578125" xlink:href="#ArialMT-70"/>
     <use x="939.2578125" xlink:href="#ArialMT-61"/>
     <use x="994.873046875" xlink:href="#ArialMT-72"/>
     <use x="1028.173828125" xlink:href="#ArialMT-61"/>
     <use x="1083.7890625" xlink:href="#ArialMT-6c"/>
     <use x="1106.005859375" xlink:href="#ArialMT-6c"/>
     <use x="1128.22265625" xlink:href="#ArialMT-65"/>
     <use x="1183.837890625" xlink:href="#ArialMT-6c"/>
     <use x="1206.0546875" xlink:href="#ArialMT-20"/>
     <use x="1233.837890625" xlink:href="#ArialMT-6a"/>
     <use x="1256.0546875" xlink:href="#ArialMT-6f"/>
     <use x="1311.669921875" xlink:href="#ArialMT-62"/>
     <use x="1367.28515625" xlink:href="#ArialMT-20"/>
     <use x="1395.068359375" xlink:href="#ArialMT-74"/>
     <use x="1422.8515625" xlink:href="#ArialMT-69"/>
     <use x="1445.068359375" xlink:href="#ArialMT-6d"/>
     <use x="1528.369140625" xlink:href="#ArialMT-65"/>
     <use x="1583.984375" xlink:href="#ArialMT-74"/>
     <use x="1611.767578125" xlink:href="#ArialMT-61"/>
     <use x="1667.3828125" xlink:href="#ArialMT-62"/>
     <use x="1722.998046875" xlink:href="#ArialMT-6c"/>
     <use x="1745.21484375" xlink:href="#ArialMT-65"/>
    </g>
   </g>
  </g>
 </g>
 <defs>
  <clipPath id="pf437ad0e36">
   <rect height="334.8" width="725.4" x="46.96646875" y="23.3661875"/>
  </clipPath>
 </defs>
</svg>
